<svg width="76" height="75" viewBox="0 0 76 75" fill="none" xmlns="http://www.w3.org/2000/svg">
<g id="agile">
<path id="Vector" d="M37.3137 75L28.3914 71.7672L2.10664 62.4774C1.73449 62.4125 1.38154 62.2667 1.07342 62.0506C0.765296 61.8345 0.509737 61.5535 0.325099 61.2279C0.140461 60.9022 0.0313432 60.54 0.00581782 60.1676C-0.0197076 59.7951 0.0389834 59.4218 0.177496 59.0745C0.331371 58.6897 0.573057 58.3452 0.883762 58.0677C1.19447 57.7903 1.56577 57.5875 1.96881 57.4751L11.8557 54.0722L12.6481 53.7319L11.6145 53.3235L2.07216 49.9206C1.50063 49.8038 0.986974 49.4967 0.617046 49.0508C0.247118 48.6049 0.0433301 48.0471 0.0396698 47.4705C0.0479705 46.8915 0.252833 46.3319 0.621357 45.8815C0.98988 45.4311 1.50072 45.1159 2.07216 44.9864L14.4739 40.6307L13.5782 40.2564L2.03767 36.1729C1.47531 36.0563 0.970381 35.7529 0.606849 35.3133C0.243316 34.8738 0.0431535 34.3245 0.0396698 33.7569C0.0400425 33.1808 0.237674 32.6218 0.600436 32.1708C0.963197 31.7198 1.46971 31.4033 2.03767 31.2727L20.7092 24.6371L21.8459 24.2287C21.6552 24.0606 21.4474 23.9124 21.2259 23.7864L19.3312 23.2079C18.9366 23.1154 18.5853 22.8934 18.335 22.5781C18.0847 22.2629 17.9501 21.873 17.9533 21.4723C17.9533 20.4174 17.9533 19.3626 17.9533 18.3417C17.9539 17.9559 18.0821 17.5809 18.3184 17.2738C18.5547 16.9666 18.8861 16.7442 19.2623 16.6403C20.0201 16.368 21.0192 16.334 21.5359 15.8576C22.0526 15.3812 22.0871 14.3944 22.3971 13.6457C22.5704 13.1339 22.8016 12.6431 23.0862 12.1825C23.3097 11.9009 23.4311 11.5534 23.4311 11.1956C23.4311 10.8378 23.3097 10.4903 23.0862 10.2088C21.846 8.0309 21.9149 7.75873 23.7062 5.92117C25.4976 4.0836 26.2555 3.91338 28.5636 5.20648C28.7833 5.3499 29.0408 5.42643 29.3042 5.42643C29.5676 5.42643 29.8251 5.3499 30.0449 5.20648C31.2161 4.62799 32.4218 4.21967 33.4898 3.74326C33.7506 3.61636 33.9668 3.41482 34.1099 3.16483C34.325 2.58498 34.5089 1.99425 34.661 1.39525C34.7505 1.01298 34.9637 0.669922 35.2684 0.418143C35.573 0.166364 35.9524 0.0195853 36.3491 5.02471e-05C37.4515 5.02471e-05 38.5883 5.02471e-05 39.794 5.02471e-05C40.199 -0.00308595 40.591 0.140685 40.8958 0.404124C41.2006 0.667563 41.3969 1.03239 41.4475 1.42931C41.5064 2.15999 41.8203 2.8478 42.3354 3.37533C42.8506 3.90286 43.5353 4.23741 44.2724 4.3218C44.8979 4.45412 45.4861 4.72132 45.9948 5.1044C46.2632 5.3032 46.5895 5.41065 46.9249 5.41065C47.2603 5.41065 47.5868 5.3032 47.8551 5.1044C50.1977 3.84533 50.4388 3.91346 52.3335 5.717C54.2282 7.52054 54.366 8.167 53.0225 10.4129C52.8694 10.6522 52.7881 10.9296 52.7881 11.2127C52.7881 11.4957 52.8694 11.773 53.0225 12.0123C53.5539 13.1168 54.0141 14.2533 54.4004 15.4152C54.4004 15.7895 54.676 16.0278 55.1238 16.1299C55.7184 16.2685 56.3049 16.4389 56.8808 16.6403C57.278 16.7515 57.6276 16.9879 57.8764 17.3134C58.1251 17.639 58.2593 18.0359 58.2587 18.4438C58.2587 19.4307 58.2587 20.4515 58.2587 21.4384C58.2615 21.8568 58.1196 22.2636 57.8565 22.5915C57.5934 22.9195 57.2249 23.1489 56.8119 23.2419L55.055 23.8204L54.2971 24.1947L55.1583 24.535C61.3592 26.7469 67.5256 28.9588 73.7264 31.1026C74.2535 31.2277 74.7392 31.4842 75.1373 31.8476C75.5354 32.211 75.8324 32.6692 76 33.1783V34.1993C75.8277 34.6965 75.5329 35.1435 75.1419 35.5C74.751 35.8564 74.2763 36.111 73.7608 36.2409C71.3838 37.0236 69.0068 37.9084 66.6298 38.7251L61.5658 40.5286L62.3237 40.8009L73.4853 44.7482C74.0424 44.8574 74.5635 45.1009 75.0022 45.4571C75.441 45.8134 75.7837 46.2712 76 46.7899V47.7768C75.8012 48.2856 75.4815 48.7398 75.0678 49.1011C74.6541 49.4623 74.1586 49.72 73.623 49.8525C71.246 50.6352 68.9035 51.4859 66.5265 52.3367L63.3572 53.4597L64.184 53.7659C67.3533 54.8889 70.5227 56.0459 73.7264 57.1688C74.2395 57.3121 74.7119 57.5711 75.1064 57.9254C75.5009 58.2797 75.8068 58.7196 76 59.2105V60.2314C75.8324 60.7406 75.5354 61.1988 75.1373 61.5622C74.7392 61.9257 74.2535 62.1821 73.7264 62.3071C65.0453 65.3357 56.5018 68.4324 47.7173 71.495L38.7261 74.7278L37.3137 75ZM2.62336 47.5386L3.38124 47.8109L37.3137 59.789C37.751 59.9249 38.2199 59.9249 38.6571 59.789L65.4242 50.363L73.1753 47.6407L72.5207 47.3344L58.1898 42.2982C57.7436 42.1452 57.2582 42.1452 56.8119 42.2982C50.9556 44.3399 45.1337 46.3816 39.2773 48.4914C38.3966 48.7975 37.4365 48.7975 36.5558 48.4914C30.7454 46.3816 24.9005 44.3172 19.0212 42.2982C18.5514 42.145 18.0441 42.145 17.5743 42.2982L7.23953 45.9052L2.62336 47.5386ZM73.1753 60.0273H72.8652C68.4902 58.4619 64.1151 56.8965 59.7056 55.3993C59.3923 55.2979 59.0544 55.2979 58.7411 55.3993L39.2083 62.2051C38.3797 62.5362 37.4533 62.5362 36.6247 62.2051L17.0576 55.3993C16.6974 55.2971 16.3153 55.2971 15.9552 55.3993L10.3056 57.373L2.62336 60.0953L3.58793 60.4697L37.1414 72.3457C37.5965 72.5156 38.0987 72.5156 38.5538 72.3457L65.4242 62.8857L73.1753 60.0273ZM73.1753 33.8249L72.5896 33.5867L64.1151 30.5581L54.0559 27.1552C53.5736 26.9851 53.4014 27.1552 53.1258 27.4615C52.7743 27.8633 52.5808 28.3766 52.5808 28.9077C52.5808 29.4387 52.7743 29.9521 53.1258 30.354C53.261 30.5583 53.3764 30.7748 53.4703 31.0005C53.6733 31.3429 53.7563 31.7419 53.7065 32.1356C53.6566 32.5293 53.4768 32.8958 53.1947 33.1783C52.5057 33.927 51.7823 34.6416 51.0244 35.3562C50.7073 35.6567 50.2975 35.8434 49.8604 35.8866C49.4232 35.9298 48.984 35.827 48.613 35.5945C48.138 35.3003 47.6431 35.0388 47.1317 34.8118C46.8098 34.6915 46.4545 34.6915 46.1327 34.8118C44.9958 35.2201 43.8935 35.7986 42.6877 36.1729C42.4044 36.2346 42.1455 36.3771 41.9434 36.5828C41.7413 36.7885 41.6048 37.0482 41.5509 37.3299C40.9308 39.7119 40.8619 40.1884 37.6926 40.1543C35.0744 40.1543 34.8333 39.9842 34.2477 37.466C34.2009 37.136 34.0487 36.8293 33.8133 36.5906C33.5778 36.3519 33.2714 36.1936 32.9386 36.1388C32.3505 36.0705 31.7856 35.8729 31.2851 35.5604C30.6966 35.0575 29.9445 34.7808 29.1664 34.7808C28.3883 34.7808 27.6362 35.0575 27.0478 35.5604C26.7131 35.7904 26.3056 35.893 25.9003 35.8492C25.495 35.8054 25.1195 35.6182 24.8431 35.3222C24.0852 34.6416 23.3617 33.893 22.6383 33.1444C22.3254 32.8432 22.1298 32.443 22.0857 32.0137C22.0416 31.5844 22.1518 31.1534 22.3971 30.7964C22.7072 30.2859 22.9828 29.7415 23.2584 29.197C23.324 29.0096 23.324 28.8058 23.2584 28.6185C22.9828 28.04 22.6728 27.4955 22.3628 26.8829L2.58887 33.6887L3.17456 33.927L36.8313 45.8371C37.4876 46.0739 38.2075 46.0739 38.8638 45.8371L67.2844 35.6284L73.1753 33.8249ZM37.9337 37.5681C39.0706 37.5681 39.0706 37.5681 39.3806 36.5812C39.5005 36.0591 39.6617 35.5471 39.8629 35.05C40.0902 34.6072 40.4684 34.2577 40.9308 34.0631C42.7168 33.6653 44.4188 32.9628 45.9603 31.9873C46.1942 31.8308 46.4702 31.7471 46.7527 31.7471C47.0352 31.7471 47.3112 31.8308 47.5451 31.9873C48.1307 32.3276 48.7508 32.6339 49.3709 32.9402C49.991 33.2465 49.8187 33.1103 49.8876 32.9402C50.3681 32.5905 50.787 32.1651 51.1277 31.681C51.1277 31.4769 50.9211 31.0005 50.7488 30.6602C50.5693 30.2609 50.3622 29.8743 50.1288 29.5032C49.9584 29.2263 49.8684 28.9084 49.8684 28.5844C49.8684 28.2604 49.9584 27.9426 50.1288 27.6656C50.8735 26.3724 51.4741 25.0033 51.9201 23.5822C51.9867 23.058 52.2304 22.5712 52.6117 22.2007C52.9931 21.8302 53.4898 21.5976 54.0215 21.5405H54.3659C55.7784 21.0981 55.7784 21.0981 55.7095 19.6349C55.7212 19.4699 55.6716 19.3064 55.5702 19.1749C55.4688 19.0434 55.3224 18.9528 55.1583 18.9202L53.2292 18.3757C52.9501 18.3122 52.6964 18.1684 52.5002 17.9625C52.304 17.7565 52.174 17.4977 52.1268 17.2187C51.77 15.4672 51.0677 13.8021 50.0598 12.3185C49.9013 12.0875 49.8166 11.815 49.8166 11.5359C49.8166 11.2569 49.9013 10.9842 50.0598 10.7532L51.0244 8.94969C51.0244 8.94969 51.2311 8.5414 51.0244 8.47334C50.6494 7.99556 50.2089 7.57169 49.7154 7.21418C49.7154 7.21418 49.1297 7.38442 48.8197 7.52053C48.3428 7.72419 47.8822 7.96304 47.4417 8.23511C47.1823 8.39144 46.8844 8.47417 46.5805 8.47417C46.2766 8.47417 45.9787 8.39144 45.7193 8.23511C44.445 7.51092 43.0931 6.92882 41.6887 6.4996C41.1009 6.43882 40.5527 6.17817 40.138 5.76228C39.7233 5.34639 39.4677 4.80117 39.415 4.21972C39.415 4.21972 39.415 4.21973 39.415 4.01555C39.0016 2.65439 39.0017 2.6884 37.5204 2.72243C37.0725 2.72243 36.9003 2.72241 36.797 3.23285C36.6936 3.74328 36.3835 4.55993 36.2113 5.20648C36.1417 5.46687 35.9974 5.7018 35.7957 5.88295C35.594 6.0641 35.3435 6.18378 35.0745 6.22742C33.279 6.59511 31.5715 7.29973 30.0449 8.30313C29.8234 8.45845 29.5585 8.54188 29.287 8.54188C29.0154 8.54188 28.7505 8.45845 28.5291 8.30313L26.7033 7.35033C26.531 7.35033 26.2211 7.18018 26.1177 7.35033C25.6461 7.69678 25.2282 8.10954 24.8775 8.57543C24.8775 8.7796 25.1531 9.256 25.3253 9.63032C25.4705 9.96154 25.6433 10.2802 25.8421 10.5831C26.0614 10.8922 26.1792 11.2605 26.1792 11.638C26.1792 12.0155 26.0614 12.3838 25.8421 12.6929C25.148 13.74 24.625 14.8883 24.2919 16.0958C24.2017 16.8162 23.866 17.485 23.3402 17.9921C22.8143 18.4992 22.1295 18.8145 21.3982 18.8862C20.2958 19.0904 20.3647 19.1924 20.3303 20.3494C20.3303 20.996 20.3302 21.3363 21.157 21.4384C21.9838 21.5405 22.156 21.7447 22.6383 21.8808C22.9728 21.9642 23.2766 22.1395 23.5144 22.3864C23.7521 22.6333 23.9143 22.9417 23.9819 23.2759C24.4157 24.7075 24.9807 26.0971 25.6698 27.4274C25.9688 27.8133 26.1307 28.2857 26.1307 28.7716C26.1307 29.2575 25.9688 29.7299 25.6698 30.1157L25.3942 30.6262C24.7397 31.8512 24.7397 31.8512 25.7732 32.838C25.8405 32.9059 25.9209 32.96 26.0096 32.9968C26.0984 33.0336 26.1937 33.0526 26.2899 33.0526C26.3862 33.0526 26.4815 33.0336 26.5702 32.9968C26.6589 32.96 26.7393 32.9059 26.8066 32.838C27.3234 32.4977 27.909 32.2596 28.4257 31.9533C28.6912 31.7792 29.0028 31.6863 29.3214 31.6863C29.6401 31.6863 29.9517 31.7792 30.2172 31.9533C31.3021 32.6105 32.4575 33.1469 33.6621 33.5527C36.1424 34.2673 35.7634 33.8929 36.5213 36.4791C36.7969 37.1257 37.0381 37.5681 37.9337 37.5681Z" fill="white"/>
<path id="Vector_2" d="M34.0061 56.08C33.7945 56.0425 33.5869 55.9856 33.386 55.9099L19.9164 51.1458C18.9863 50.8055 18.6074 50.1589 18.8829 49.4443C19.1585 48.7297 19.8475 48.4915 20.7087 48.7977L34.4884 53.5958C34.814 53.6693 35.1001 53.8598 35.2912 54.1304C35.4822 54.4009 35.5645 54.732 35.5218 55.0592C35.493 55.2259 35.4306 55.3851 35.3381 55.5274C35.2456 55.6698 35.1249 55.7923 34.9835 55.8876C34.842 55.9829 34.6825 56.049 34.5146 56.0821C34.3467 56.1151 34.1737 56.1144 34.0061 56.08Z" fill="white"/>
<path id="Vector_3" d="M35.3844 67.207C35.4043 67.4319 35.3624 67.658 35.2634 67.8615C35.1644 68.065 35.0118 68.2386 34.8216 68.3638C34.6314 68.4891 34.4106 68.5615 34.1824 68.5735C33.9541 68.5855 33.7267 68.5367 33.5242 68.4321L28.0468 66.4924C25.3253 65.5396 22.6382 64.6208 19.9857 63.634C19.5559 63.4881 19.1906 63.1995 18.9521 62.8173C18.8929 62.6051 18.8808 62.3827 18.9165 62.1654C18.9522 61.9482 19.0348 61.741 19.1588 61.5581C19.3135 61.3332 19.5477 61.1736 19.8155 61.1107C20.0832 61.0477 20.3651 61.086 20.6057 61.2179L28.2534 63.9061L34.3165 66.05C34.9366 66.2882 35.3844 66.6285 35.3844 67.207Z" fill="white"/>
<path id="Vector_4" d="M37.9336 31.1366C35.6838 31.1231 33.4887 30.4504 31.6261 29.2038C29.7636 27.9571 28.3174 26.1926 27.4706 24.1336C26.6239 22.0746 26.4147 19.8136 26.8695 17.6371C27.3243 15.4605 28.4228 13.4663 30.0257 11.9068C31.6286 10.3473 33.664 9.29264 35.874 8.87643C38.0841 8.46022 40.3694 8.70113 42.4408 9.56868C44.5121 10.4362 46.2763 11.8914 47.51 13.7499C48.7436 15.6085 49.3912 17.7868 49.3708 20.0092C49.3345 22.9787 48.1124 25.814 45.9704 27.8979C43.8285 29.9818 40.94 31.1458 37.9336 31.1366ZM37.9336 28.6185C39.6764 28.6185 41.38 28.1084 42.8296 27.1527C44.2791 26.197 45.4095 24.8384 46.078 23.2486C46.7465 21.6588 46.923 19.909 46.5856 18.2201C46.2481 16.5312 45.4116 14.9788 44.1816 13.7592C42.9517 12.5395 41.3836 11.7072 39.6751 11.3672C37.9667 11.0273 36.1946 11.195 34.5826 11.8491C32.9705 12.5032 31.5908 13.6144 30.6176 15.0425C29.6444 16.4706 29.1215 18.1515 29.1147 19.873C29.1101 21.0199 29.3349 22.1564 29.776 23.2173C30.2172 24.2781 30.866 25.2425 31.6854 26.055C32.5048 26.8675 33.4785 27.5123 34.5507 27.9522C35.623 28.3921 36.7726 28.6185 37.9336 28.6185Z" fill="white"/>
<path id="Vector_5" d="M37.9334 26.1342C36.6851 26.141 35.4629 25.7814 34.4216 25.1013C33.3804 24.4211 32.567 23.451 32.0846 22.3137C31.6021 21.1764 31.4723 19.9233 31.7117 18.713C31.951 17.5028 32.5487 16.39 33.429 15.5157C34.3093 14.6413 35.4326 14.0449 36.6564 13.8018C37.8802 13.5588 39.1495 13.6802 40.3035 14.1505C41.4574 14.6208 42.4441 15.4188 43.1383 16.4436C43.8326 17.4684 44.2032 18.6738 44.2032 19.9069C44.1942 21.5499 43.5319 23.1236 42.359 24.2886C41.1861 25.4535 39.5966 26.1164 37.9334 26.1342ZM37.9334 23.6501C38.9293 23.6501 39.8844 23.2593 40.5886 22.5637C41.2928 21.8681 41.6884 20.9247 41.6884 19.9409C41.6952 19.1978 41.4778 18.4694 41.0641 17.8486C40.6503 17.2279 40.0589 16.7428 39.3651 16.4553C38.6713 16.1678 37.9065 16.0908 37.1683 16.2342C36.43 16.3775 35.7516 16.7347 35.2196 17.2602C34.6875 17.7857 34.326 18.4559 34.1809 19.1851C34.0358 19.9144 34.1137 20.6698 34.4048 21.3551C34.6959 22.0405 35.1868 22.6247 35.8152 23.0334C36.4437 23.4421 37.181 23.6568 37.9334 23.6501Z" fill="white"/>
</g>
</svg>
