<svg width="76" height="75" viewBox="0 0 76 75" fill="none" xmlns="http://www.w3.org/2000/svg">
<g id="AI IOT">
<path id="Vector" d="M46.0651 56.6194H38.3427V66.5073C38.3051 66.7205 38.3471 66.94 38.461 67.1243C38.5748 67.3086 38.7526 67.4451 38.9605 67.5077C39.7732 67.8525 40.4426 68.4645 40.8572 69.2417C41.2717 70.0189 41.4064 70.9142 41.2386 71.7783C41.0823 72.6816 40.6074 73.4997 39.8995 74.0852C39.1916 74.6706 38.2972 74.985 37.3774 74.9717C36.4177 75.0883 35.449 74.8421 34.6628 74.2815C33.8766 73.7209 33.3301 72.8869 33.1312 71.9442C32.9323 71.0015 33.0954 70.0187 33.5885 69.1902C34.0816 68.3616 34.8687 67.7474 35.7943 67.4691C35.9281 67.398 36.0453 67.2995 36.1385 67.1802C36.2316 67.0609 36.2985 66.9234 36.3348 66.7766C36.3348 63.5063 36.3348 60.1975 36.3348 56.8886C36.3475 56.7993 36.3475 56.7087 36.3348 56.6194H26.6046V61.1593C26.6046 63.3524 26.6046 63.3524 24.3651 63.3524H20.89C20.4266 63.3524 20.1564 63.3524 19.9633 63.9295C19.6124 64.7702 18.9737 65.4598 18.1607 65.8754C17.3476 66.2911 16.413 66.4059 15.523 66.1995C14.8971 66.0402 14.3213 65.7269 13.8484 65.2885C13.3755 64.85 13.0205 64.3003 12.8161 63.6897C12.6116 63.0792 12.5641 62.4272 12.678 61.7937C12.7918 61.1601 13.0634 60.5651 13.4678 60.0631C13.8722 59.5612 14.3965 59.1684 14.9927 58.9207C15.5889 58.673 16.2379 58.5782 16.8804 58.6452C17.5229 58.7121 18.1382 58.9386 18.6701 59.3039C19.2019 59.6692 19.6333 60.1617 19.9247 60.7361L20.2336 61.4287H24.7126C24.7126 59.8512 24.7126 58.3122 24.7126 56.7732C24.7126 56.7732 24.4809 56.3885 24.2878 56.273C23.1204 55.9422 22.1014 55.2241 21.3992 54.2377C20.6971 53.2512 20.354 52.0554 20.4266 50.8482V47.0007H4.98182C4.96284 47.2312 4.96284 47.4628 4.98182 47.6932V54.4263C4.95196 54.6286 4.99336 54.835 5.09895 55.0104C5.20454 55.1857 5.36789 55.3192 5.5611 55.3881C6.38913 55.7355 7.06963 56.3598 7.48546 57.1534C7.90128 57.9469 8.0264 58.8602 7.8392 59.7358C7.6973 60.3781 7.39247 60.9735 6.9539 61.465C6.51534 61.9566 5.95762 62.3279 5.33403 62.5435C4.71044 62.7592 4.04175 62.8119 3.39188 62.6967C2.74202 62.5815 2.13271 62.3022 1.62201 61.8855C1.11131 61.4688 0.716293 60.9286 0.474769 60.3165C0.233245 59.7044 0.15326 59.0408 0.242399 58.3891C0.331539 57.7374 0.586823 57.1194 0.983933 56.594C1.38104 56.0686 1.90673 55.6535 2.51072 55.3881C2.70844 55.3259 2.87643 55.1937 2.98311 55.0165C3.0898 54.8393 3.12779 54.6294 3.08987 54.4263V46.5005C3.08987 45.3463 3.36014 45.077 4.5185 45.077H20.5425V37.3821H8.457C7.95505 37.3821 7.68476 37.382 7.4917 37.9976C7.14431 38.815 6.52389 39.4876 5.73573 39.9013C4.94757 40.315 4.04004 40.4445 3.16705 40.2677C2.26756 40.1038 1.45569 39.6271 0.875878 38.9226C0.296069 38.218 -0.0139568 37.3313 0.00095634 36.4202C-0.0190231 35.5255 0.274585 34.6518 0.831337 33.9496C1.38809 33.2473 2.17307 32.7605 3.05122 32.5728C3.94682 32.3563 4.89062 32.4661 5.71205 32.8824C6.53347 33.2987 7.17837 33.994 7.53023 34.8428C7.53023 35.0736 7.95502 35.3814 8.18669 35.3814H20.2336H20.5039V25.6858H12.7815C11.7004 25.6858 11.4687 25.455 11.4687 24.3392V19.1451C10.7813 18.9541 10.156 18.5873 9.65479 18.0811C9.15358 17.5749 8.79383 16.947 8.61137 16.2595C8.36874 15.3063 8.50166 14.2967 8.98278 13.4381C9.4639 12.5794 10.2567 11.937 11.1984 11.6426C12.1268 11.3359 13.1374 11.3917 14.0261 11.7988C14.9148 12.2058 15.6154 12.9338 15.9863 13.8356C16.3624 14.7376 16.3802 15.7483 16.036 16.6629C15.6918 17.5774 15.0114 18.3272 14.1329 18.7604C13.8593 18.8492 13.6287 19.0363 13.4859 19.2852C13.3432 19.5341 13.2986 19.8271 13.3607 20.107C13.3607 21.2997 13.3607 22.4924 13.3607 23.9545H20.3881C20.5765 23.9872 20.7705 23.9556 20.9386 23.8649C21.1068 23.7741 21.2394 23.6294 21.3148 23.4543C21.7918 22.6541 22.4702 21.992 23.2828 21.5331C24.0955 21.0743 25.0142 20.8347 25.9482 20.838C26.8363 20.838 27.6857 20.838 28.6124 20.838V5.17886H20.89C20.6559 5.14189 20.4164 5.1921 20.217 5.31981C20.0176 5.44753 19.8723 5.64387 19.8088 5.87143C19.4497 6.66696 18.8301 7.31731 18.0513 7.71578C17.2726 8.11425 16.381 8.23717 15.523 8.06445C14.4989 8.09506 13.5046 7.71905 12.7588 7.01916C12.0129 6.31927 11.5766 5.35282 11.5459 4.33241C11.5152 3.312 11.8925 2.32127 12.5949 1.57809C13.2973 0.834907 14.2672 0.40015 15.2913 0.369538C16.1838 0.124812 17.1349 0.207775 17.9712 0.603253C18.8075 0.99873 19.4733 1.68039 19.8475 2.5241C19.894 2.73539 20.0201 2.92091 20.1996 3.04255C20.3791 3.16419 20.5985 3.21275 20.8128 3.17822H29.153C30.4272 3.17822 30.6589 3.17818 30.6589 4.64021V20.6456H38.3813C38.4018 20.4281 38.4018 20.2091 38.3813 19.9916C38.3813 16.1441 38.3813 12.2967 38.3813 8.21838C38.3995 8.01733 38.3481 7.81611 38.2357 7.64815C38.1233 7.4802 37.9568 7.35559 37.7635 7.29497C36.9437 6.95674 36.2657 6.34747 35.8438 5.56967C35.4218 4.79187 35.2817 3.89301 35.4468 3.02429C35.5873 2.38509 35.8891 1.79219 36.3236 1.30158C36.7581 0.810968 37.3111 0.438894 37.9301 0.220539C38.5492 0.00218255 39.2138 -0.0552448 39.8613 0.0536918C40.5089 0.162628 41.1178 0.434302 41.6306 0.843073C42.1434 1.25184 42.5431 1.78421 42.7919 2.38978C43.0407 2.99535 43.1304 3.65415 43.0525 4.30388C42.9746 4.95361 42.7317 5.57279 42.3467 6.10291C41.9617 6.63303 41.4474 7.05653 40.8524 7.33342C40.4663 7.33342 40.2346 7.60275 40.2346 8.06445C40.2346 12.1427 40.2346 16.1826 40.2346 20.2224V20.6456H49.8105V13.374C49.8105 11.6811 49.8104 11.6041 51.5866 11.6041H55.4478C55.6257 11.6288 55.8064 11.5876 55.9559 11.4883C56.1053 11.389 56.2131 11.2386 56.2586 11.0655C56.6036 10.2096 57.2456 9.5058 58.0677 9.08208C58.8898 8.65837 59.8373 8.543 60.7376 8.75702C61.7617 8.80294 62.7255 9.25231 63.4171 10.0063C64.1086 10.7603 64.4712 11.7572 64.4251 12.7776C64.3791 13.798 63.928 14.7584 63.1713 15.4474C62.4146 16.1365 61.4142 16.4978 60.3901 16.4519C59.5525 16.5728 58.6983 16.4161 57.9588 16.006C57.2193 15.5958 56.6355 14.955 56.2973 14.1819C56.2341 13.9646 56.093 13.7778 55.9009 13.6573C55.7087 13.5367 55.4788 13.4906 55.2548 13.5278H51.3936V20.6456C52.1719 20.7568 52.9179 21.0302 53.5832 21.4478C54.2484 21.8654 54.8181 22.418 55.2548 23.0696C56.0332 24.4343 56.3448 26.0143 56.1428 27.5711H70.0045C70.0045 27.3017 70.0045 27.0709 70.0045 26.8785V20.107C70.0045 19.6453 70.0045 19.376 69.4253 19.1836C68.8216 18.9134 68.2978 18.4931 67.9041 17.9631C67.5103 17.433 67.2599 16.8111 67.1768 16.1569C67.0938 15.5026 67.1809 14.8381 67.4298 14.2271C67.6787 13.6161 68.081 13.079 68.5981 12.6675C69.1153 12.256 69.7299 11.9839 70.383 11.8772C71.036 11.7705 71.7057 11.8329 72.3276 12.0584C72.9495 12.2838 73.5028 12.6647 73.9344 13.1646C74.366 13.6645 74.6616 14.2665 74.7925 14.9129C74.9576 15.7816 74.8173 16.6805 74.3954 17.4583C73.9734 18.2361 73.2955 18.8454 72.4757 19.1836C72.2856 19.245 72.1233 19.3713 72.0173 19.5402C71.9114 19.7091 71.8686 19.9098 71.8966 20.107V28.0327C71.8966 29.2639 71.6648 29.4948 70.3906 29.4948H56.1814V37.1897H56.7606H67.765C67.9529 37.2178 68.1448 37.1793 68.3071 37.0809C68.4694 36.9824 68.5919 36.8303 68.6532 36.6511C68.9962 35.8111 69.6259 35.1188 70.4313 34.6965C71.2366 34.2741 72.1658 34.1487 73.0549 34.3426C73.6916 34.4975 74.2782 34.8114 74.7595 35.2547C75.2408 35.698 75.601 36.256 75.8061 36.8763C76.0112 37.4965 76.0545 38.1586 75.9318 38.8002C75.8092 39.4417 75.5245 40.0415 75.105 40.5433C74.6854 41.0449 74.1445 41.432 73.5334 41.6679C72.9222 41.9037 72.2609 41.9807 71.6116 41.8916C70.9624 41.8024 70.3465 41.5501 69.8222 41.1583C69.2978 40.7665 68.8823 40.2481 68.6145 39.6521C68.5431 39.5187 68.4443 39.4018 68.3245 39.309C68.2048 39.2162 68.0668 39.1496 67.9195 39.1134H56.9922H56.7992V48.6166H62.6682C63.981 48.6166 64.1741 48.8475 64.1741 50.1171C64.1741 51.3868 64.1741 53.1182 64.1741 54.5802C64.148 54.7724 64.1921 54.9676 64.2985 55.1301C64.4048 55.2925 64.5662 55.4114 64.7533 55.4651C65.5808 55.8046 66.2642 56.4199 66.6867 57.2059C67.1093 57.9919 67.2448 58.8997 67.0701 59.7742C67.0701 60.7946 66.6632 61.7733 65.9391 62.4948C65.215 63.2163 64.2329 63.6217 63.2088 63.6217C62.1848 63.6217 61.2026 63.2163 60.4785 62.4948C59.7544 61.7733 59.3476 60.7946 59.3476 59.7742C59.1556 58.8836 59.2869 57.9541 59.7182 57.1509C60.1495 56.3477 60.8528 55.7231 61.7029 55.3881C61.8725 55.3359 62.0189 55.227 62.1173 55.0799C62.2158 54.9327 62.2603 54.7563 62.2435 54.5802C62.2435 53.2336 62.2435 51.8869 62.2435 50.5019H56.7606V51.3868C56.6002 52.7028 55.9618 53.9147 54.9658 54.7937C53.9699 55.6727 52.6854 56.1579 51.3549 56.1576H48.1887V69.7776H56.1814C56.2677 69.8004 56.3578 69.8054 56.4461 69.7923C56.5344 69.7792 56.6191 69.7483 56.695 69.7015C56.7708 69.6547 56.8364 69.5929 56.8875 69.52C56.9386 69.4471 56.9742 69.3646 56.9922 69.2775C57.3283 68.4497 57.9428 67.7643 58.7304 67.3385C59.518 66.9127 60.4297 66.7731 61.3092 66.9437C62.1888 67.1142 62.9815 67.5842 63.5514 68.2733C64.1213 68.9623 64.4329 69.8274 64.4329 70.7203C64.4329 71.6131 64.1213 72.4782 63.5514 73.1672C62.9815 73.8563 62.1888 74.3263 61.3092 74.4968C60.4297 74.6674 59.518 74.5278 58.7304 74.102C57.9428 73.6762 57.3283 72.9908 56.9922 72.163C56.9922 71.7398 56.6062 71.6629 56.1814 71.6629H47.8412C46.4898 71.6629 46.2581 71.4705 46.2581 70.1624V56.1576L46.0651 56.6194ZM54.7528 38.6902V26.4553C54.8003 25.9382 54.733 25.417 54.5558 24.9288C54.3785 24.4405 54.0956 23.997 53.7272 23.6299C53.3587 23.2627 52.9136 22.9808 52.4236 22.8042C51.9335 22.6276 51.4105 22.5605 50.8916 22.6078H26.4116C25.8926 22.5605 25.3695 22.6276 24.8795 22.8042C24.3895 22.9808 23.9445 23.2627 23.576 23.6299C23.2075 23.997 22.9246 24.4405 22.7474 24.9288C22.5701 25.417 22.5029 25.9382 22.5504 26.4553V50.8866C22.5029 51.4037 22.5701 51.9249 22.7474 52.4131C22.9246 52.9014 23.2075 53.3449 23.576 53.712C23.9445 54.0792 24.3895 54.3611 24.8795 54.5378C25.3695 54.7144 25.8926 54.7814 26.4116 54.7341H50.8143C51.3317 54.7746 51.8518 54.7029 52.3387 54.5238C52.8256 54.3448 53.2678 54.0628 53.6348 53.6971C54.0018 53.3314 54.2849 52.8908 54.4646 52.4056C54.6442 51.9204 54.7162 51.4022 54.6755 50.8866L54.7528 38.6902ZM39.501 71.0858C39.4813 70.5548 39.2583 70.0515 38.8777 69.6794C38.497 69.3072 37.9877 69.0946 37.4546 69.0851C36.9253 69.105 36.4244 69.3286 36.0572 69.7089C35.6899 70.0892 35.4851 70.5965 35.4854 71.1242C35.6053 71.5423 35.8585 71.9101 36.2068 72.1719C36.5552 72.4337 36.9797 72.5754 37.416 72.5754C37.8524 72.5754 38.2768 72.4337 38.6251 72.1719C38.9735 71.9101 39.2268 71.5423 39.3466 71.1242L39.501 71.0858ZM58.1892 12.6814C58.1891 13.2055 58.3954 13.7086 58.7637 14.0827C59.1319 14.4568 59.6327 14.672 60.1585 14.6821C60.578 14.5626 60.9471 14.3103 61.2099 13.9632C61.4727 13.6161 61.6148 13.1931 61.6148 12.7583C61.6148 12.3236 61.4727 11.9006 61.2099 11.5535C60.9471 11.2064 60.578 10.954 60.1585 10.8346C59.667 10.85 59.1974 11.0412 58.8358 11.3733C58.4742 11.7053 58.2446 12.156 58.1892 12.6429V12.6814ZM10.5034 15.3746C10.6233 15.7927 10.8765 16.1604 11.2248 16.4223C11.5732 16.6841 11.9977 16.8258 12.434 16.8258C12.8704 16.8258 13.2948 16.6841 13.6431 16.4223C13.9915 16.1604 14.2448 15.7927 14.3646 15.3746C14.3646 14.844 14.1531 14.3351 13.7765 13.9599C13.4 13.5847 12.8892 13.374 12.3567 13.374C11.8612 13.4205 11.3996 13.6453 11.0584 14.0065C10.7173 14.3677 10.52 14.8404 10.5034 15.3361V15.3746ZM16.3724 6.10227C16.6361 6.09726 16.8962 6.04056 17.1379 5.93536C17.3796 5.83017 17.5981 5.67855 17.781 5.48918C17.9639 5.29982 18.1075 5.07641 18.2037 4.83172C18.2999 4.58703 18.3468 4.32586 18.3417 4.06312C18.3367 3.80209 18.2796 3.54465 18.1735 3.30591C18.0675 3.06717 17.9147 2.85191 17.7241 2.67275C17.5335 2.49359 17.309 2.35415 17.0636 2.26256C16.8183 2.17097 16.557 2.12911 16.2952 2.13939C16.0318 2.13393 15.7701 2.18224 15.5261 2.28135C15.2822 2.38046 15.0611 2.52825 14.8766 2.71567C14.6922 2.90308 14.5482 3.12617 14.4535 3.37113C14.3588 3.6161 14.3154 3.87779 14.326 4.14009C14.3461 4.66397 14.5718 5.15901 14.9545 5.51877C15.3372 5.87854 15.8464 6.07428 16.3724 6.06381V6.10227ZM18.5347 62.429C18.5061 61.9011 18.2802 61.4029 17.9014 61.0326C17.5227 60.6624 17.0185 60.4468 16.4883 60.4283C15.9622 60.4574 15.4667 60.6839 15.1013 61.0622C14.736 61.4405 14.528 61.9425 14.519 62.4674C14.519 62.9981 14.7306 63.507 15.1071 63.8822C15.4837 64.2574 15.9944 64.4681 16.5269 64.4681C17.0664 64.4482 17.577 64.2206 17.9515 63.8331C18.326 63.4456 18.5351 62.9285 18.5347 62.3905V62.429ZM74.136 38.4594C74.136 38.0637 74.0183 37.6769 73.7977 37.3479C73.5771 37.0188 73.2635 36.7624 72.8966 36.611C72.5297 36.4595 72.126 36.4199 71.7365 36.4971C71.3471 36.5743 70.9892 36.7648 70.7084 37.0446C70.4276 37.3244 70.2364 37.6809 70.159 38.069C70.0815 38.4571 70.1213 38.8594 70.2733 39.225C70.4252 39.5905 70.6825 39.903 71.0127 40.1228C71.3429 40.3427 71.7311 40.46 72.1282 40.46C72.6642 40.4499 73.1749 40.2307 73.5504 39.8493C73.9258 39.468 74.1361 38.9551 74.136 38.4209V38.4594ZM60.3901 69.239C59.8607 69.2489 59.3557 69.4628 58.9813 69.8359C58.6069 70.209 58.3922 70.7121 58.3823 71.2396C58.3823 71.7702 58.5938 72.2792 58.9703 72.6544C59.3469 73.0296 59.8576 73.2403 60.3901 73.2403C60.9226 73.2403 61.4334 73.0296 61.8099 72.6544C62.1865 72.2792 62.3979 71.7702 62.3979 71.2396C62.4083 70.9705 62.3641 70.7021 62.2678 70.4504C62.1716 70.1987 62.0254 69.969 61.838 69.7749C61.6505 69.5809 61.4256 69.4267 61.1768 69.3214C60.928 69.216 60.6604 69.1618 60.3901 69.162V69.239ZM39.4238 1.83159C39.0043 1.95101 38.6351 2.20336 38.3724 2.55046C38.1096 2.89757 37.9675 3.32053 37.9675 3.75532C37.9675 4.1901 38.1096 4.61307 38.3724 4.96017C38.6351 5.30727 39.0043 5.55962 39.4238 5.67904C39.8434 5.55962 40.2125 5.30727 40.4753 4.96017C40.738 4.61307 40.8801 4.1901 40.8801 3.75532C40.8801 3.32053 40.738 2.89757 40.4753 2.55046C40.2125 2.20336 39.8434 1.95101 39.4238 1.83159ZM2.12457 36.4587C2.14373 36.9832 2.36143 37.4811 2.73389 37.8522C3.10636 38.2234 3.60595 38.4403 4.13236 38.4594C4.63765 38.4205 5.10953 38.1927 5.45328 37.8216C5.79703 37.4506 5.98728 36.9637 5.98578 36.4587C5.98578 35.9281 5.7742 35.4192 5.39766 35.044C5.02112 34.6688 4.5105 34.458 3.97799 34.458C3.47596 34.5053 3.00912 34.7357 2.66708 35.1049C2.32504 35.4742 2.13184 35.9562 2.12457 36.4587ZM73.6727 15.6055C73.5528 15.1874 73.2995 14.8196 72.9512 14.5578C72.6028 14.296 72.1784 14.1544 71.7421 14.1544C71.3057 14.1544 70.8813 14.296 70.533 14.5578C70.1846 14.8196 69.9313 15.1874 69.8115 15.6055C69.806 15.8679 69.8545 16.1287 69.9539 16.3718C70.0534 16.6149 70.2017 16.8351 70.3898 17.0189C70.5779 17.2027 70.8017 17.3462 71.0476 17.4406C71.2934 17.535 71.556 17.5782 71.8193 17.5677C72.2773 17.4971 72.6968 17.2708 73.0064 16.9272C73.3161 16.5836 73.4969 16.1438 73.5182 15.6824L73.6727 15.6055ZM5.98578 59.0432C5.99344 58.646 5.88224 58.2555 5.66633 57.9214C5.45042 57.5874 5.13963 57.325 4.77349 57.1676C4.40735 57.0103 4.00245 56.9651 3.61047 57.0379C3.21848 57.1107 2.85714 57.2982 2.57246 57.5764C2.28779 57.8546 2.09269 58.211 2.01204 58.6001C1.93139 58.9892 1.96874 59.3934 2.1195 59.7612C2.27027 60.129 2.52759 60.4438 2.85856 60.6654C3.18953 60.887 3.57925 61.0054 3.97799 61.0055C4.50388 61.0056 5.00878 60.8 5.38423 60.4331C5.75968 60.0662 5.97566 59.5671 5.98578 59.0432ZM65.0621 59.351C65.0621 58.9553 64.9445 58.5685 64.7238 58.2395C64.5032 57.9105 64.1896 57.6541 63.8228 57.5027C63.4559 57.3512 63.0522 57.3116 62.6627 57.3888C62.2732 57.466 61.9154 57.6565 61.6346 57.9363C61.3538 58.2161 61.1626 58.5726 61.0851 58.9607C61.0076 59.3488 61.0474 59.7511 61.1994 60.1167C61.3514 60.4823 61.6086 60.7947 61.9388 61.0146C62.269 61.2344 62.6573 61.3517 63.0544 61.3517C63.3131 61.3727 63.5735 61.3426 63.8205 61.2629C64.0675 61.1833 64.2963 61.0558 64.4937 60.8877C64.6911 60.7197 64.8531 60.5144 64.9706 60.2836C65.088 60.0529 65.1585 59.8014 65.178 59.5434L65.0621 59.351Z" fill="white"/>
<path id="Vector_2" d="M41.5478 41.4987C41.525 42.5148 41.2013 43.5015 40.6173 44.3348C40.0334 45.1681 39.2152 45.8108 38.2658 46.1822C37.3164 46.5536 36.278 46.637 35.281 46.4221C34.2841 46.2072 33.3732 45.7035 32.6628 44.9743C31.9523 44.245 31.474 43.3229 31.288 42.3236C31.1019 41.3243 31.2164 40.2925 31.6171 39.3578C32.0178 38.4232 32.6867 37.6274 33.5399 37.0705C34.3931 36.5136 35.3925 36.2203 36.4125 36.2277C37.0986 36.2326 37.7767 36.3734 38.4077 36.642C39.0386 36.9105 39.6096 37.3015 40.0875 37.792C40.5654 38.2825 40.9407 38.8628 41.1914 39.4991C41.4421 40.1355 41.5632 40.8152 41.5478 41.4987ZM39.6559 41.4987C39.6559 41.0692 39.571 40.644 39.4061 40.2472C39.2411 39.8504 38.9994 39.4899 38.6946 39.1862C38.3898 38.8825 38.028 38.6416 37.6298 38.4773C37.2317 38.3129 36.8048 38.2284 36.3738 38.2284C35.5131 38.2381 34.6898 38.5805 34.0775 39.1835C33.4652 39.7864 33.1118 40.6027 33.0918 41.4602C33.0918 42.3276 33.4376 43.1594 34.0531 43.7727C34.6686 44.386 35.5034 44.7305 36.3738 44.7305C37.2443 44.7305 38.0791 44.386 38.6946 43.7727C39.3101 43.1594 39.6559 42.3276 39.6559 41.4602V41.4987Z" fill="white"/>
<path id="Vector_3" d="M44.9845 32.6118H41.6638C41.0074 32.6118 40.544 32.4194 40.4668 31.6884C40.3896 30.9574 40.8916 30.7266 41.6252 30.7266H50.2357C50.9693 30.7266 51.4326 31.1113 51.4326 31.6884C51.4326 32.2655 51.0079 32.6118 50.2357 32.6118H46.8764V45.0391C46.8958 45.2438 46.8958 45.45 46.8764 45.6547C46.8824 45.7809 46.8613 45.9069 46.8143 46.0242C46.7674 46.1415 46.6958 46.2475 46.6043 46.335C46.5129 46.4225 46.4038 46.4894 46.2842 46.5313C46.1646 46.5733 46.0374 46.5892 45.9111 46.5781C45.7912 46.5782 45.6724 46.5541 45.5621 46.5073C45.4518 46.4604 45.3522 46.3918 45.2692 46.3055C45.1862 46.2192 45.1215 46.117 45.0792 46.0052C45.0369 45.8933 45.0178 45.7741 45.023 45.6547C45.0026 45.45 45.0026 45.2438 45.023 45.0391V32.6118H44.9845Z" fill="white"/>
<path id="Vector_4" d="M25.8711 38.5364V31.8803C25.8711 31.2262 26.1028 30.7645 26.7592 30.726C27.4156 30.6876 27.7246 31.1108 27.7632 31.8803V45.0001C27.7632 45.231 27.7632 45.5772 27.7632 45.7696C27.7632 45.962 27.1453 46.5006 26.8364 46.5006C26.5275 46.5006 26.2186 46.0004 25.9869 45.6926C25.9286 45.4135 25.9286 45.1254 25.9869 44.8462L25.8711 38.5364Z" fill="white"/>
</g>
</svg>
