<svg width="76" height="75" viewBox="0 0 76 75" fill="none" xmlns="http://www.w3.org/2000/svg">
<g id="ai p s d">
<path id="Vector" d="M47.0175 59.983V67.4916H59.2294C60.5272 67.4916 60.9264 67.9178 60.9264 69.1965V73.4918C60.9264 74.541 60.4606 75 59.3625 75H16.7706C15.6725 75 15.2399 74.541 15.2399 73.4918C15.2399 72.4425 15.2399 70.5081 15.2399 69.0326C15.2399 67.5571 15.6725 67.4916 16.7706 67.4916H29.1156V59.983H1.89665C0.332723 59.983 0 59.6551 0 58.1141V11.817C0 10.276 0.332723 9.94807 1.89665 9.94807H30.4133V4.99701H29.8476C26.5201 4.99701 22.9265 4.99701 19.4659 4.99701C19.2746 4.97914 19.0824 5.01997 18.9156 5.11388C18.7489 5.20779 18.6156 5.35021 18.5341 5.52163C18.1444 6.27076 17.5054 6.86524 16.7239 7.20547C15.9425 7.54571 15.0662 7.61105 14.2417 7.39059C13.4327 7.16954 12.7189 6.69462 12.2086 6.03785C11.6982 5.38109 11.4189 4.57833 11.4133 3.75114C11.4094 2.92535 11.6856 2.12187 12.198 1.46843C12.7105 0.814985 13.4298 0.349021 14.2417 0.144408C15.0622 -0.091525 15.9405 -0.0370678 16.7246 0.298303C17.5086 0.633673 18.1488 1.2288 18.5341 1.98054C18.6191 2.1638 18.7628 2.3144 18.9432 2.40921C19.1236 2.50401 19.3306 2.53776 19.5324 2.50517H31.1786C32.6427 2.50517 33.0088 2.8658 33.0088 4.30848V9.98089H42.9912C42.9912 9.75137 42.9912 9.5546 42.9912 9.32508V4.14458C42.9912 2.93142 43.4238 2.50517 44.655 2.50517H56.401C56.6249 2.54479 56.8558 2.50783 57.0555 2.4005C57.2552 2.29317 57.4117 2.12193 57.4991 1.915C57.8987 1.18641 58.5385 0.613809 59.3129 0.291899C60.0872 -0.0300119 60.9499 -0.082008 61.7583 0.144408C62.3621 0.304729 62.9164 0.609672 63.3716 1.03206C63.8269 1.45444 64.1692 1.98118 64.368 2.5654C64.5667 3.14963 64.6159 3.77318 64.511 4.38063C64.406 4.98808 64.1503 5.56061 63.7666 6.04716C63.3829 6.5337 62.8831 6.91915 62.3116 7.16935C61.7401 7.41955 61.1148 7.52666 60.4912 7.48114C59.8675 7.43563 59.265 7.23892 58.7372 6.90849C58.2094 6.57806 57.7726 6.12422 57.4659 5.58727C57.3922 5.39183 57.2532 5.22685 57.0718 5.11958C56.8903 5.01232 56.6773 4.96908 56.4676 4.99701C53.1401 4.99701 49.8126 4.99701 46.2855 4.99701H45.5534V10.0137H74.1699C75.634 10.0137 76 10.3743 76 11.817V58.2452C76 59.6879 75.634 60.0486 74.1699 60.0486H46.8512L47.0175 59.983ZM2.56219 52.4417H73.6042V12.5056H45.6865V20.8993C45.4506 22.1565 45.4506 23.4456 45.6865 24.7028C46.1524 25.8176 47.4168 26.6046 48.3485 27.5226C48.5407 27.6483 48.6983 27.8187 48.8074 28.0189C48.9165 28.2192 48.9735 28.4429 48.9735 28.6701C48.9735 28.8974 48.9165 29.1211 48.8074 29.3214C48.6983 29.5216 48.5407 29.6921 48.3485 29.8178L47.084 31.0637C50.2119 31.2932 50.2119 31.2933 50.6112 33.5557H50.8109H62.9562C63.1056 33.5265 63.2462 33.4641 63.3673 33.3732C63.4884 33.2822 63.5869 33.1652 63.655 33.031C64.0716 32.2928 64.7277 31.7137 65.5181 31.3867C66.3085 31.0597 67.1875 31.0037 68.014 31.2276C68.826 31.4322 69.5452 31.8983 70.0577 32.5518C70.5701 33.2052 70.8463 34.0086 70.8424 34.8344C70.8347 35.6658 70.5507 36.472 70.0339 37.1293C69.5171 37.7866 68.7959 38.2589 67.9807 38.4739C67.1562 38.6882 66.2823 38.6199 65.5023 38.2803C64.7223 37.9407 64.0827 37.3499 63.6883 36.605C63.617 36.433 63.4906 36.2887 63.3284 36.194C63.1663 36.0993 62.9771 36.0594 62.7898 36.0803H50.8441V36.9329C50.8441 38.1788 50.4115 38.5722 49.1138 38.605H47.5166C47.5166 38.7689 47.5166 38.8346 47.5166 38.8674L48.6147 39.9821C48.7863 40.0999 48.9265 40.2568 49.0233 40.4395C49.1201 40.6222 49.1706 40.8253 49.1706 41.0314C49.1706 41.2375 49.1201 41.4405 49.0233 41.6232C48.9265 41.8058 48.7863 41.9628 48.6147 42.0806C47.5499 43.1627 46.4851 44.2447 45.2872 45.3595C44.0893 46.4743 43.8897 46.0808 43.0911 45.3595L41.7268 44.0807V45.9824C41.7268 47.0316 41.261 47.4579 40.1962 47.4907H35.6042C34.5727 47.4907 34.1068 47.0316 34.1068 45.9824V44.2774H33.8406C33.4413 44.7364 33.042 45.1955 32.6095 45.6217C32.4913 45.7716 32.3399 45.8928 32.1669 45.9762C31.9939 46.0595 31.8038 46.1029 31.6112 46.1029C31.4186 46.1029 31.2285 46.0595 31.0555 45.9762C30.8825 45.8928 30.7312 45.7716 30.613 45.6217C29.4816 44.5725 28.3835 43.4577 27.2855 42.3429C27.1202 42.2207 26.986 42.0623 26.8936 41.8802C26.8012 41.6981 26.753 41.4973 26.753 41.2937C26.753 41.09 26.8012 40.8893 26.8936 40.7072C26.986 40.5251 27.1202 40.3666 27.2855 40.2444L28.5832 38.9329C27.6882 38.9568 26.7937 38.8687 25.9212 38.6706C24.8564 38.31 25.289 37.228 25.1226 36.3427H12.9772C12.7637 36.3186 12.548 36.3629 12.3622 36.4693C12.1763 36.5756 12.0303 36.7382 11.9457 36.9329C11.5468 37.6632 10.9087 38.239 10.1353 38.5665C9.36188 38.8939 8.4988 38.9537 7.68651 38.7362C6.87754 38.5151 6.16378 38.0402 5.65338 37.3834C5.14299 36.7267 4.86377 35.9239 4.85812 35.0967C4.85423 34.2709 5.13045 33.4676 5.64287 32.8141C6.1553 32.1607 6.87459 31.6946 7.68651 31.49C8.49495 31.2636 9.35759 31.3156 10.132 31.6375C10.9063 31.9594 11.5461 32.532 11.9457 33.2606C12.0303 33.4553 12.1763 33.6178 12.3622 33.7242C12.548 33.8305 12.7637 33.8749 12.9772 33.8508H25.1891V32.9327C25.1891 31.7851 25.6217 31.3588 26.8196 31.3588H28.4168V31.1621L27.2189 29.9161C27.0602 29.7968 26.9317 29.643 26.8432 29.4667C26.7547 29.2905 26.7086 29.0964 26.7086 28.8997C26.7086 28.703 26.7547 28.509 26.8432 28.3327C26.9317 28.1565 27.0602 28.0026 27.2189 27.8833C28.0508 27.0308 28.9159 26.2438 29.7145 25.3913C30.0072 25.075 30.1831 24.6708 30.2137 24.2438C30.2137 20.6043 30.2137 16.9976 30.2137 13.3581C30.2303 13.1179 30.2303 12.8769 30.2137 12.6367H2.36249L2.56219 52.4417ZM73.6042 55.032H2.59544V57.4583H73.6042V55.032ZM27.9509 36.3099C29.415 36.1459 30.4466 36.3099 31.2784 37.8837C32.1103 39.4576 31.2785 40.3101 30.1471 41.1626L31.9772 42.8347C32.9089 41.6871 33.7075 41.0642 35.3047 41.7199C36.9019 42.3757 36.9019 43.5561 36.8687 44.9987H39.4308C39.2312 43.5889 39.4308 42.5724 40.9947 41.7199C42.5586 40.8674 43.4571 41.8839 44.3222 42.8347L46.0858 40.9986C44.9878 40.0805 44.2224 39.3264 44.8879 37.7197C45.5534 36.1131 46.8179 36.1787 48.2154 36.1787V33.654C46.8179 33.654 45.7531 33.6541 44.8879 32.1458C44.6033 31.5692 44.555 30.9067 44.7533 30.2961C44.9517 29.6854 45.3812 29.1736 45.9527 28.867L44.1559 27.0636C43.2575 27.9816 42.5587 28.8997 40.8284 28.2112C39.0981 27.5226 39.1646 26.375 39.2312 24.9323H36.7355C36.4693 27.457 36.4694 27.4242 34.4396 28.2112C32.9755 28.8669 32.5429 27.4898 31.7776 27.0307L29.9475 28.7685C30.979 29.621 31.6778 30.3751 31.0455 32.0473C30.4133 33.7195 29.0823 33.5556 27.718 33.6212L27.9509 36.3099ZM33.0088 12.4728V13.3909C33.0088 16.8337 33.0088 20.2764 33.0088 23.7192C33.0019 24.1207 33.1068 24.5163 33.3121 24.8631C33.5175 25.2099 33.8153 25.4948 34.1734 25.6865C34.1734 25.0963 34.1734 24.5389 34.1734 23.9487C34.1734 23.3585 34.6392 22.5388 35.5709 22.5388H40.4291C40.6151 22.5231 40.8024 22.5483 40.9774 22.6125C41.1524 22.6767 41.3108 22.7782 41.4412 22.9099C41.5717 23.0415 41.6709 23.2 41.7318 23.374C41.7926 23.5479 41.8137 23.733 41.7933 23.9159V25.8504C42.1998 25.6444 42.5379 25.328 42.7679 24.9387C42.9978 24.5495 43.11 24.1036 43.0911 23.6535C43.0911 20.3747 43.0911 17.3583 43.0911 14.2106V12.5384L33.0088 12.4728ZM17.8021 72.4425H58.3643V70.049H17.8021V72.4425ZM44.4221 60.0486H31.7776V67.4259H44.4221V60.0486ZM16.5044 3.81668C16.5048 3.4886 16.3773 3.17294 16.1481 2.93493C15.919 2.69692 15.6057 2.55471 15.2732 2.53789C14.9434 2.52889 14.623 2.64735 14.3805 2.86789C14.1381 3.08843 13.9927 3.39362 13.9755 3.71832C13.9665 3.88465 13.9915 4.05107 14.0489 4.20772C14.1064 4.36437 14.1951 4.50811 14.3099 4.63038C14.4247 4.75266 14.5632 4.85094 14.7172 4.91956C14.8712 4.98818 15.0376 5.02568 15.2066 5.02983C15.5396 5.03026 15.86 4.90462 16.1015 4.67881C16.3431 4.45301 16.4873 4.14433 16.5044 3.81668ZM62.1909 3.81668C62.1909 3.48623 62.0577 3.1693 61.8206 2.93563C61.5834 2.70197 61.2618 2.57071 60.9264 2.57071C60.756 2.57496 60.5881 2.61225 60.4323 2.68048C60.2765 2.7487 60.1359 2.84656 60.0185 2.96835C59.901 3.09015 59.8091 3.2335 59.7479 3.39032C59.6868 3.54713 59.6576 3.71428 59.662 3.88222C59.6792 4.20692 59.8246 4.51211 60.0671 4.73265C60.3095 4.95318 60.6299 5.07165 60.9597 5.06265C61.1242 5.06271 61.2871 5.0303 61.4387 4.96729C61.5903 4.90428 61.7275 4.81197 61.8423 4.69582C61.9571 4.57967 62.0471 4.44197 62.1069 4.29097C62.1668 4.13998 62.1954 3.97873 62.1909 3.81668ZM8.95097 36.3427C9.28367 36.3344 9.60042 36.2004 9.83575 35.9686C10.0711 35.7367 10.207 35.4246 10.2154 35.0967C10.2111 34.9288 10.1732 34.7632 10.104 34.6097C10.0348 34.4562 9.9355 34.3177 9.81189 34.202C9.68828 34.0863 9.54276 33.9957 9.38361 33.9354C9.22447 33.8751 9.05484 33.8464 8.88441 33.8508C8.55489 33.8677 8.24517 34.011 8.02136 34.2499C7.79755 34.4888 7.67737 34.8044 7.68651 35.1294C7.71877 35.4224 7.85815 35.6938 8.07858 35.8929C8.29902 36.092 8.58544 36.2053 8.88441 36.2115L8.95097 36.3427ZM67.3485 33.8508C67.0132 33.8508 66.6915 33.982 66.4544 34.2157C66.2173 34.4493 66.0841 34.7663 66.0841 35.0967C66.0841 35.4272 66.2173 35.7441 66.4544 35.9778C66.6915 36.2114 67.0132 36.3427 67.3485 36.3427C67.6839 36.3427 68.0055 36.2114 68.2426 35.9778C68.4797 35.7441 68.613 35.4272 68.613 35.0967C68.613 34.7663 68.4797 34.4493 68.2426 34.2157C68.0055 33.982 67.6839 33.8508 67.3485 33.8508Z" fill="white"/>
<path id="Vector_2" d="M15.2405 26.2113H21.4297C21.6065 26.1929 21.7854 26.2114 21.9545 26.2657C22.1236 26.32 22.2792 26.4089 22.4111 26.5265C22.543 26.6441 22.6482 26.7878 22.7199 26.9482C22.7916 27.1086 22.8282 27.282 22.8272 27.4573C22.8318 27.6221 22.8022 27.7862 22.7403 27.9394C22.6784 28.0926 22.5854 28.2318 22.4671 28.3484C22.3487 28.465 22.2075 28.5566 22.052 28.6176C21.8965 28.6786 21.73 28.7078 21.5627 28.7032C19.0338 28.7032 16.505 28.7032 13.9428 28.7032C13.1109 28.7032 12.6783 28.1459 12.6783 27.2278V17.3914H6.42262C6.08726 17.3914 5.76568 17.26 5.52855 17.0263C5.29142 16.7927 5.1582 16.4758 5.1582 16.1454C5.1582 15.8149 5.29142 15.498 5.52855 15.2643C5.76568 15.0307 6.08726 14.8994 6.42262 14.8994H13.8762C14.7747 14.8994 15.2072 15.424 15.2072 16.3748C15.2072 19.3258 15.2072 22.2439 15.2072 25.1949L15.2405 26.2113Z" fill="white"/>
<path id="Vector_3" d="M63.4887 17.4568V23.4898C63.4887 24.7686 63.4887 26.0473 63.4887 27.3261C63.5154 27.5145 63.4979 27.7065 63.4376 27.8872C63.3774 28.068 63.2759 28.2327 63.141 28.3688C63.006 28.5049 62.8413 28.6088 62.6593 28.6724C62.4773 28.7361 62.283 28.7578 62.0912 28.736C59.651 28.736 57.2219 28.736 54.804 28.736C54.6256 28.7588 54.4443 28.7449 54.2717 28.6951C54.0991 28.6453 53.9388 28.5607 53.8012 28.4466C53.6635 28.3325 53.5514 28.1915 53.472 28.0324C53.3925 27.8734 53.3476 27.6999 53.3398 27.5228C53.3398 26.7359 53.9055 26.244 54.8372 26.244H60.8267V16.6043C60.8267 15.3583 61.2593 14.9648 62.4905 14.9648H69.3118C70.3766 14.9648 70.9756 15.3911 70.9756 16.178C70.9756 16.9649 70.3766 17.4568 69.2785 17.4568H63.4887Z" fill="white"/>
<path id="Vector_4" d="M38.0662 39.8838C37.0565 39.8837 36.0696 39.5877 35.231 39.0336C34.3924 38.4794 33.74 37.6919 33.3567 36.7715C32.9734 35.851 32.8765 34.839 33.0784 33.8642C33.2803 32.8893 33.7718 31.9956 34.4905 31.2967C35.2092 30.5978 36.1225 30.1252 37.1144 29.9391C38.1063 29.753 39.132 29.8617 40.061 30.2515C40.9901 30.6413 41.7805 31.2944 42.3318 32.128C42.8831 32.9615 43.1705 33.9378 43.1573 34.9327C43.1313 36.2491 42.5845 37.5035 41.6335 38.4284C40.6824 39.3532 39.4024 39.8755 38.0662 39.8838ZM40.6284 34.8344C40.5568 34.2185 40.2578 33.6502 39.7884 33.2376C39.319 32.825 38.7119 32.597 38.0828 32.597C37.4538 32.597 36.8467 32.825 36.3773 33.2376C35.9079 33.6502 35.6089 34.2185 35.5373 34.8344C35.6089 35.4502 35.9079 36.0185 36.3773 36.4311C36.8467 36.8438 37.4538 37.0718 38.0828 37.0718C38.7119 37.0718 39.319 36.8438 39.7884 36.4311C40.2578 36.0185 40.5568 35.4502 40.6284 34.8344Z" fill="white"/>
</g>
</svg>
