<svg width="60" height="60" viewBox="0 0 60 60" fill="none" xmlns="http://www.w3.org/2000/svg">
<g id="Android-Settings--Streamline-Ultimate.svg" clip-path="url(#clip0_368_141)">
<g id="Group">
<path id="Vector" d="M33.175 47.85C33.2482 47.748 33.2876 47.6256 33.2876 47.5C33.2876 47.3744 33.2482 47.252 33.175 47.15C32.3886 46.0227 31.9388 44.6951 31.8781 43.322C31.8174 41.9488 32.1483 40.5867 32.8322 39.3944C33.5161 38.2022 34.5249 37.2289 35.7408 36.588C36.9568 35.9472 38.3299 35.6652 39.7 35.775C39.8284 35.796 39.9601 35.7728 40.0736 35.7092C40.1872 35.6456 40.2758 35.5454 40.325 35.425C40.9781 34.0213 42.0648 32.8644 43.425 32.125C43.5236 32.071 43.6059 31.9915 43.6631 31.8947C43.7203 31.7979 43.7503 31.6874 43.75 31.575V26.25C43.7435 25.7547 43.5439 25.2816 43.1936 24.9313C42.8434 24.5811 42.3703 24.3815 41.875 24.375H11.875C11.3777 24.375 10.9008 24.5725 10.5492 24.9242C10.1975 25.2758 9.99998 25.7527 9.99998 26.25V51.25C9.99668 51.6505 10.0723 52.0478 10.2226 52.4191C10.3728 52.7904 10.5947 53.1285 10.8756 53.414C11.1565 53.6996 11.4909 53.927 11.8597 54.0833C12.2285 54.2396 12.6244 54.3217 13.025 54.325H31.45C31.5449 54.328 31.6393 54.3092 31.726 54.2703C31.8126 54.2313 31.8892 54.173 31.95 54.1C32.0122 54.0294 32.0561 53.9446 32.0779 53.8531C32.0997 53.7615 32.0987 53.6661 32.075 53.575C31.8537 52.5965 31.8372 51.5827 32.0265 50.5975C32.2158 49.6123 32.6068 48.6768 33.175 47.85Z" fill="#004AAD"/>
<path id="Vector_2" d="M10 17.9249C9.86828 18.3025 9.82905 18.7061 9.8856 19.102C9.94215 19.4978 10.0928 19.8743 10.325 20.1999C10.555 20.523 10.8587 20.7867 11.2108 20.9693C11.5629 21.1519 11.9534 21.2481 12.35 21.2499H41.45C41.8508 21.252 42.2463 21.1578 42.6031 20.975C42.9599 20.7923 43.2675 20.5264 43.5 20.1999C43.7322 19.8743 43.8828 19.4978 43.9394 19.102C43.9959 18.7061 43.9567 18.3025 43.825 17.9249C42.3461 13.7319 39.3118 10.2679 35.35 8.24989C35.2065 8.19373 35.0901 8.08453 35.025 7.9449C34.9598 7.80528 34.9509 7.64594 35 7.49989L36.6 3.42489C36.7647 2.82993 36.7034 2.19507 36.428 1.64258C36.1526 1.09009 35.6825 0.659045 35.1082 0.432451C34.534 0.205857 33.8962 0.199743 33.3177 0.415286C32.7392 0.630829 32.261 1.05279 31.975 1.59989L30.225 6.07489C30.1754 6.20198 30.084 6.30838 29.9659 6.37655C29.8477 6.44472 29.7098 6.47059 29.575 6.44989C27.7933 6.18313 25.9817 6.18313 24.2 6.44989C24.0617 6.47203 23.9201 6.4471 23.7977 6.3791C23.6753 6.3111 23.5792 6.20398 23.525 6.07489L21.8 1.59989C21.5613 0.97995 21.0861 0.480219 20.479 0.210636C19.8718 -0.0589476 19.1824 -0.0763007 18.5625 0.162394C17.9426 0.401089 17.4428 0.876279 17.1732 1.48343C16.9037 2.09058 16.8863 2.77995 17.125 3.39989L18.7 7.49989C18.7537 7.64339 18.7528 7.8016 18.6975 7.94448C18.6422 8.08735 18.5363 8.20494 18.4 8.27489C14.4585 10.2856 11.4482 13.7438 10 17.9249ZM32.5 12.4999C32.9973 12.4999 33.4742 12.6974 33.8258 13.0491C34.1775 13.4007 34.375 13.8776 34.375 14.3749C34.375 14.8722 34.1775 15.3491 33.8258 15.7007C33.4742 16.0524 32.9973 16.2499 32.5 16.2499C32.0027 16.2499 31.5258 16.0524 31.1742 15.7007C30.8225 15.3491 30.625 14.8722 30.625 14.3749C30.625 13.8776 30.8225 13.4007 31.1742 13.0491C31.5258 12.6974 32.0027 12.4999 32.5 12.4999ZM21.25 12.4999C21.7473 12.4999 22.2242 12.6974 22.5758 13.0491C22.9275 13.4007 23.125 13.8776 23.125 14.3749C23.125 14.8722 22.9275 15.3491 22.5758 15.7007C22.2242 16.0524 21.7473 16.2499 21.25 16.2499C20.7527 16.2499 20.2758 16.0524 19.9242 15.7007C19.5725 15.3491 19.375 14.8722 19.375 14.3749C19.375 13.8776 19.5725 13.4007 19.9242 13.0491C20.2758 12.6974 20.7527 12.4999 21.25 12.4999Z" fill="#004AAD"/>
<path id="Vector_3" d="M51.875 27.5C51.875 26.837 51.6116 26.2011 51.1428 25.7322C50.6739 25.2634 50.038 25 49.375 25C48.712 25 48.0761 25.2634 47.6072 25.7322C47.1384 26.2011 46.875 26.837 46.875 27.5V30.65C46.8745 30.8075 46.9334 30.9593 47.04 31.0752C47.1466 31.191 47.2931 31.2624 47.45 31.275C48.6845 31.3695 49.8733 31.783 50.9 32.475C50.9969 32.5374 51.1097 32.5706 51.225 32.5706C51.3403 32.5706 51.4531 32.5374 51.55 32.475C51.6505 32.4232 51.7343 32.3442 51.7918 32.2469C51.8493 32.1495 51.8781 32.038 51.875 31.925V27.5Z" fill="#004AAD"/>
<path id="Vector_4" d="M4.375 25C3.71196 25 3.07607 25.2634 2.60723 25.7322C2.13839 26.2011 1.875 26.837 1.875 27.5V45C1.875 45.663 2.13839 46.2989 2.60723 46.7678C3.07607 47.2366 3.71196 47.5 4.375 47.5C5.03804 47.5 5.67393 47.2366 6.14277 46.7678C6.61161 46.2989 6.875 45.663 6.875 45V27.5C6.875 26.837 6.61161 26.2011 6.14277 25.7322C5.67393 25.2634 5.03804 25 4.375 25Z" fill="#004AAD"/>
<path id="Vector_5" d="M57.175 45.3747C57.6915 44.8317 58.0187 44.1363 58.1077 43.3922C58.1966 42.6481 58.0427 41.8952 57.6687 41.2458C57.2948 40.5963 56.721 40.0852 56.0328 39.7885C55.3446 39.4919 54.5789 39.4257 53.85 39.5997L51.35 40.1747C51.2507 40.1981 51.1462 40.1827 51.0579 40.1315C50.9696 40.0804 50.9042 39.9975 50.875 39.8997L50.15 37.3997C49.9433 36.678 49.5068 36.0434 48.9067 35.5922C48.3067 35.141 47.5758 34.8979 46.825 34.8997C46.0722 34.8895 45.3373 35.1294 44.7356 35.5819C44.1338 36.0343 43.6993 36.6737 43.5 37.3997L42.775 39.8997C42.7459 39.9975 42.6804 40.0804 42.5922 40.1315C42.5039 40.1827 42.3994 40.1981 42.3 40.1747L39.8 39.5997C39.077 39.4237 38.3161 39.4898 37.6342 39.7879C36.9523 40.0859 36.387 40.5995 36.025 41.2497C35.6464 41.8942 35.4857 42.6437 35.5668 43.3868C35.6478 44.1299 35.9664 44.827 36.475 45.3747L38.2 47.2247C38.2721 47.3031 38.312 47.4057 38.312 47.5122C38.312 47.6187 38.2721 47.7213 38.2 47.7997L36.475 49.6497C35.9312 50.2028 35.5879 50.9219 35.5 51.6926C35.4122 52.4633 35.5846 53.2412 35.9901 53.9025C36.3955 54.5638 37.0105 55.0705 37.7372 55.3418C38.4639 55.6131 39.2604 55.6335 40 55.3997L42.5 54.8247C42.6015 54.8134 42.7038 54.837 42.7901 54.8915C42.8764 54.946 42.9416 55.0283 42.975 55.1247L43.7 57.6247C43.9031 58.3486 44.3386 58.9856 44.9395 59.4374C45.5404 59.8892 46.2733 60.1307 47.025 60.1247C47.7758 60.1265 48.5067 59.8834 49.1067 59.4322C49.7068 58.9811 50.1433 58.3465 50.35 57.6247L51.075 55.1247C51.1042 55.0255 51.1685 54.9403 51.2559 54.885C51.3433 54.8298 51.4479 54.8084 51.55 54.8247L54.05 55.3997C54.7767 55.5732 55.54 55.5061 56.2253 55.2086C56.9105 54.911 57.4807 54.3991 57.85 53.7497C58.2315 53.1088 58.3917 52.3603 58.3059 51.6194C58.22 50.8785 57.893 50.1864 57.375 49.6497L55.675 47.7997C55.603 47.7213 55.563 47.6187 55.563 47.5122C55.563 47.4057 55.603 47.3031 55.675 47.2247L57.175 45.3747ZM46.875 51.2497C46.1334 51.2497 45.4083 51.0298 44.7917 50.6177C44.175 50.2057 43.6943 49.62 43.4105 48.9348C43.1267 48.2496 43.0524 47.4956 43.1971 46.7681C43.3418 46.0407 43.6989 45.3725 44.2234 44.8481C44.7478 44.3236 45.416 43.9665 46.1435 43.8218C46.8709 43.6771 47.6249 43.7514 48.3101 44.0352C48.9953 44.319 49.581 44.7997 49.9931 45.4163C50.4051 46.033 50.625 46.758 50.625 47.4997C50.625 48.4943 50.23 49.4481 49.5267 50.1514C48.8234 50.8546 47.8696 51.2497 46.875 51.2497Z" fill="#004AAD"/>
</g>
</g>
<defs>
<clipPath id="clip0_368_141">
<rect width="60" height="60" fill="white"/>
</clipPath>
</defs>
</svg>
