<svg width="76" height="75" viewBox="0 0 76 75" fill="none" xmlns="http://www.w3.org/2000/svg">
<g id="cloud NA">
<path id="Vector" d="M48.7786 74.9189C48.4711 75.0273 48.1307 75.0273 47.8232 74.9189H48.7786Z" fill="white"/>
<path id="Vector_2" d="M44.1386 26.9669V34.8443H53.9648C54.3848 34.8253 54.7839 34.6702 55.0907 34.4067C57.2402 32.4686 59.3556 30.5304 61.4709 28.5611C61.6154 28.4038 61.7999 28.2817 62.0082 28.2054C62.2165 28.129 62.4421 28.1009 62.665 28.1235H68.1923C68.3717 28.1463 68.5544 28.1161 68.7139 28.0375C68.8734 27.9588 69.0014 27.8356 69.0794 27.6858C69.4241 26.9914 70.0342 26.4365 70.7946 26.1255C71.555 25.8146 72.4133 25.7692 73.2077 25.9979C74.0037 26.1743 74.7118 26.5908 75.2183 27.1804C75.7247 27.77 76 28.4985 76 29.2488C76 29.9991 75.7247 30.7276 75.2183 31.3173C74.7118 31.9069 74.0037 32.3234 73.2077 32.4998C72.4133 32.7285 71.555 32.6831 70.7946 32.3722C70.0342 32.0612 69.4241 31.5062 69.0794 30.8118C69.0111 30.655 68.8848 30.5254 68.7226 30.4454C68.5604 30.3653 68.3727 30.3401 68.1923 30.3742H63.5863C63.2074 30.4095 62.8498 30.5515 62.5627 30.7806C60.3791 32.7499 58.2638 34.7193 56.0802 36.6574C55.7733 36.9209 55.3743 37.0759 54.9542 37.0949C51.5424 37.0949 48.3352 37.0949 45.0257 37.0949H44.1386V39.3456H68.0217C68.2279 39.3726 68.438 39.3347 68.6177 39.2382C68.7974 39.1417 68.9361 38.9922 69.0111 38.8142C69.3735 38.1368 69.991 37.6023 70.7497 37.3093C71.5084 37.0163 72.3572 36.9846 73.1395 37.22C73.8963 37.4105 74.5678 37.8155 75.0581 38.377C75.5484 38.9384 75.8323 39.6277 75.869 40.3459C75.8249 41.0668 75.5342 41.7567 75.0382 42.3178C74.5421 42.8788 73.8659 43.2827 73.1054 43.4719C72.3228 43.6595 71.4942 43.6012 70.752 43.3066C70.0098 43.0119 69.3969 42.4977 69.0111 41.8463C68.9508 41.6874 68.8339 41.5517 68.6792 41.461C68.5245 41.3703 68.341 41.3299 68.1582 41.3463H44.0363V43.5657H54.8177C55.0548 43.5622 55.29 43.6051 55.5077 43.6913C55.7253 43.7775 55.9205 43.9052 56.0802 44.0658L62.3921 49.88C62.5401 50.0351 62.7243 50.1578 62.931 50.239C63.1377 50.3201 63.3616 50.3577 63.5863 50.3489C65.0192 50.3489 66.4522 50.3489 67.8852 50.3489C68.1317 50.3802 68.3825 50.3359 68.5986 50.2228C68.8146 50.1097 68.9837 49.9342 69.0794 49.7238C69.4818 49.0138 70.166 48.4723 70.9911 48.2106C71.8162 47.9489 72.7195 47.987 73.5148 48.317C74.3156 48.6152 74.9764 49.1619 75.3818 49.8613C75.7872 50.5608 75.9112 51.3685 75.7324 52.1433C75.5535 52.9181 75.083 53.6106 74.4032 54.0998C73.7234 54.5889 72.8775 54.8435 72.0136 54.819C71.3858 54.8087 70.7733 54.6397 70.2435 54.3308C69.7138 54.0219 69.2873 53.5852 69.0111 53.0685C68.9366 52.8988 68.8017 52.7571 68.6283 52.6663C68.4549 52.5756 68.2532 52.5411 68.0558 52.5684H62.665C62.4391 52.5873 62.2117 52.5543 62.0032 52.4724C61.7947 52.3905 61.6118 52.2623 61.4709 52.0994L55.1589 46.5352C55.0005 46.3752 54.8047 46.25 54.5862 46.1688C54.3676 46.0876 54.1319 46.0526 53.8966 46.0664H44.1386V63.5716C44.2049 64.3836 44.0792 65.199 43.77 65.9624C43.4608 66.7257 42.9754 67.4189 42.347 67.9946C41.7187 68.5703 40.9621 69.015 40.1289 69.2983C39.2958 69.5815 38.4058 69.6967 37.5196 69.636H6.57389C5.69184 69.6926 4.80686 69.5741 3.97943 69.2884C3.15199 69.0028 2.40163 68.5568 1.77964 67.981C1.15766 67.4052 0.678714 66.7132 0.375557 65.9522C0.0724003 65.1911 -0.0478304 64.3791 0.023104 63.5716V6.14816C-0.0543393 5.33252 0.0634555 4.51124 0.368216 3.7416C0.672977 2.97196 1.15736 2.27252 1.78761 1.69211C2.41786 1.1117 3.17877 0.664256 4.01722 0.381083C4.85568 0.0979088 5.75151 -0.0142203 6.64214 0.0525384C16.6389 0.0525384 26.6698 0.0525384 36.6666 0.0525384C37.9474 -0.100549 39.2493 0.0825369 40.421 0.580556C41.5927 1.07857 42.5861 1.87105 43.2856 2.86586C45.0641 1.69265 47.0875 0.868245 49.2296 0.444044C51.3716 0.0198431 53.5861 0.00502027 55.7346 0.400543C57.8832 0.796066 59.9196 1.59339 61.7165 2.74271C63.5134 3.89203 65.0322 5.36864 66.178 7.08018C67.3238 8.79171 68.072 10.7014 68.3756 12.6898C68.6793 14.6783 68.532 16.7027 67.9429 18.6366C67.3538 20.5706 66.3356 22.3724 64.952 23.9294C63.5683 25.4864 61.849 26.7652 59.9014 27.6858C57.4429 28.8574 54.6841 29.3975 51.9177 29.2488C49.1554 29.105 46.4784 28.3198 44.1386 26.9669ZM2.4114 11.3372V59.3829C2.38069 59.8636 2.46263 60.3448 2.65161 60.7941C2.8406 61.2434 3.13227 61.6504 3.50713 61.988C3.88199 62.3255 4.33131 62.5856 4.82495 62.7509C5.31859 62.9163 5.84512 62.9829 6.36918 62.9464H37.6902C38.2173 62.9834 38.7469 62.9161 39.2431 62.7489C39.7393 62.5818 40.1904 62.3189 40.5658 61.9779C40.9413 61.6369 41.2322 61.2258 41.4189 60.7726C41.6057 60.3195 41.6837 59.8348 41.6479 59.3516C41.6479 48.1607 41.6479 36.9595 41.6479 25.7478C41.6367 25.4007 41.4917 25.0685 41.2385 24.81C39.243 22.8762 37.8421 20.4926 37.1784 17.9017C36.632 15.7422 36.632 13.4968 37.1784 11.3372H2.4114ZM2.4114 8.99277H37.3149C37.4512 8.96746 37.5798 8.91516 37.6918 8.83957C37.8038 8.76398 37.8964 8.66688 37.9631 8.5551C38.9185 7.27346 39.8397 5.96063 40.8291 4.71025C40.9442 4.595 41.008 4.44442 41.008 4.28822C41.008 4.13202 40.9442 3.98144 40.8291 3.86619C40.4638 3.3489 39.9559 2.92914 39.3569 2.64922C38.7578 2.3693 38.0887 2.2392 37.4172 2.27202H5.78917C4.90276 2.32362 4.0673 2.66945 3.43924 3.24487C2.81119 3.82029 2.43362 4.58583 2.3773 5.39796C2.3773 6.5233 2.44555 7.74237 2.44555 8.86771L2.4114 8.99277ZM41.5115 64.0718C40.505 64.7113 39.323 65.0795 38.0996 65.1346C27.4887 65.1346 16.8436 65.1346 6.23273 65.1346C5.18615 65.021 4.16322 64.7683 3.19617 64.3844L2.58201 64.1031C2.5906 64.5546 2.698 65 2.89781 65.4128C3.09762 65.8256 3.38582 66.1974 3.74531 66.5064C4.1048 66.8154 4.52829 67.0551 4.99071 67.2115C5.45314 67.3678 5.94507 67.4376 6.43744 67.4166H38.0996C39.0229 67.3538 39.8867 66.9747 40.5189 66.3549C41.1511 65.7351 41.5054 64.9201 41.5115 64.0718ZM47.6187 13.4628H57.5131L56.9331 9.05526H48.3352L47.6187 13.4628ZM57.5131 15.8073H47.6187L48.1987 20.2462H56.9331L57.5131 15.8073ZM38.9526 13.4941H45.1963L45.6739 9.02397H40.8973C40.792 9.03842 40.6926 9.07778 40.6088 9.13806C40.5251 9.19835 40.4599 9.27753 40.4196 9.36787C40.0102 10.712 39.5667 11.9937 39.0549 13.4941H38.9526ZM65.9746 13.4941C65.8372 12.0588 65.4091 10.6595 64.7122 9.36787C64.6762 9.28958 64.6202 9.22031 64.549 9.16592C64.4777 9.11153 64.3933 9.07358 64.3027 9.05526H59.4579L59.9697 13.5253L65.9746 13.4941ZM45.6739 20.2774L45.1963 15.8073H39.1914C39.2916 17.2586 39.7216 18.6746 40.4538 19.9648C40.4995 20.0395 40.5631 20.1037 40.64 20.1525C40.7169 20.2012 40.8049 20.2333 40.8973 20.2462L45.6739 20.2774ZM66.1452 15.8073H59.9355L59.4238 20.2774H64.1663C64.2791 20.26 64.3865 20.2202 64.4808 20.1608C64.5751 20.1014 64.6541 20.0239 64.7122 19.9336C65.3946 18.5894 65.7698 17.2452 66.2816 15.8073H66.1452ZM48.8811 6.77329H56.2166C55.8216 5.35109 55.0479 4.04079 53.9648 2.95964C53.7959 2.75858 53.5789 2.59585 53.3304 2.4838C53.082 2.37176 52.8087 2.31343 52.5318 2.31343C52.2549 2.31343 51.9817 2.37176 51.7332 2.4838C51.4848 2.59585 51.2677 2.75858 51.0988 2.95964C50.0883 4.06379 49.3754 5.37017 49.0176 6.77329H48.8811ZM48.8811 22.403C49.2783 23.8561 50.0773 25.1912 51.2012 26.2792C51.3398 26.4513 51.5169 26.5942 51.7207 26.6985C51.9246 26.8027 52.1504 26.8659 52.383 26.8836C52.6156 26.9014 52.8497 26.8734 53.0696 26.8015C53.2894 26.7296 53.4899 26.6155 53.6577 26.4668C54.9112 25.3599 55.7982 23.9513 56.2166 22.403H48.8811ZM47.7893 2.99093C45.595 3.73533 43.6615 5.0099 42.1938 6.67951H45.8446C45.959 6.66669 46.0684 6.62872 46.1635 6.56885C46.2585 6.50899 46.3363 6.42904 46.3904 6.33571C47.0045 5.36667 47.4481 4.27259 47.9258 3.11599L47.7893 2.99093ZM57.2743 2.99093C57.7519 4.14753 58.1955 5.21035 58.6732 6.11687C58.6732 6.27316 58.8779 6.49197 59.0144 6.49197H62.9039C61.4027 4.97096 59.5163 3.81162 57.4108 3.11599L57.2743 2.99093ZM47.7893 26.0604L46.4246 22.7782C46.4246 22.6219 46.1857 22.403 46.0493 22.403H42.1597C43.6963 24.0956 45.6818 25.3981 47.9258 26.1854L47.7893 26.0604ZM62.8015 22.3718H60.7885C60.1402 22.3718 59.3555 22.2155 58.8779 22.3718C58.4002 22.5281 58.4343 23.372 58.1955 23.8722L57.2402 25.9041C59.4694 25.3175 61.4546 24.1302 62.938 22.4968L62.8015 22.3718ZM73.3783 29.0925C73.3715 28.8701 73.2928 28.6545 73.1523 28.473C73.0117 28.2915 72.8156 28.1523 72.5887 28.0729C72.3617 27.9936 72.1143 27.9776 71.8774 28.0271C71.6406 28.0765 71.4251 28.1893 71.2582 28.3509C71.0913 28.5126 70.9805 28.716 70.9397 28.9353C70.8989 29.1547 70.9301 29.3802 71.0292 29.5834C71.1283 29.7865 71.2909 29.9582 71.4965 30.0767C71.702 30.1952 71.9414 30.2552 72.1842 30.2491C72.5062 30.2594 72.8209 30.1595 73.0669 29.9688C73.3129 29.778 73.4726 29.5103 73.5148 29.2176L73.3783 29.0925ZM73.3783 40.3459C73.3697 40.05 73.2375 39.7683 73.009 39.5589C72.7805 39.3496 72.4731 39.2284 72.15 39.2206C71.9071 39.2206 71.6697 39.2865 71.4677 39.4102C71.2657 39.5339 71.1082 39.7096 71.0153 39.9152C70.9223 40.1209 70.898 40.3471 70.9454 40.5654C70.9928 40.7837 71.1098 40.9843 71.2816 41.1416C71.4533 41.299 71.6722 41.4062 71.9105 41.4497C72.1487 41.4931 72.3957 41.4707 72.6201 41.3856C72.8445 41.3004 73.0364 41.1562 73.1713 40.9712C73.3063 40.7861 73.3783 40.5685 73.3783 40.3459ZM72.1159 50.4427C71.8731 50.4489 71.6378 50.5211 71.4397 50.6499C71.2416 50.7786 71.0897 50.9582 71.003 51.1661C70.9164 51.374 70.899 51.6008 70.953 51.8178C71.007 52.0348 71.13 52.2322 71.3064 52.3851C71.4829 52.538 71.7048 52.6396 71.9443 52.6769C72.1837 52.7143 72.4299 52.6858 72.6516 52.595C72.8734 52.5042 73.0608 52.3552 73.1902 52.1668C73.3195 51.9785 73.385 51.7592 73.3783 51.5368C73.3328 51.279 73.1933 51.0429 72.9827 50.867C72.7721 50.691 72.5027 50.5855 72.2183 50.5677L72.1159 50.4427Z" fill="white"/>
<path id="Vector_3" d="M21.9955 35.9697H11.9646C10.3369 35.8953 8.78261 35.3264 7.54699 34.3528C6.31136 33.3792 5.46475 32.0564 5.14083 30.5931C4.7872 29.107 5.005 27.5546 5.75734 26.1988C6.50968 24.843 7.75034 23.7671 9.26922 23.1533C9.64533 23.0217 9.98784 22.8206 10.2755 22.5624C10.5631 22.3043 10.7896 21.9946 10.941 21.6528C11.8259 19.886 13.2504 18.3917 15.0422 17.3506C16.834 16.3094 18.9166 15.7658 21.0383 15.7857C23.16 15.8055 25.2301 16.3878 26.9983 17.4623C28.7666 18.5367 30.1574 20.0573 31.0028 21.8404C31.0598 22.0584 31.2029 22.2494 31.4045 22.3764C31.6062 22.5034 31.852 22.5574 32.0946 22.5281C34.0401 22.5281 35.906 23.2362 37.2816 24.4966C38.6573 25.757 39.4301 27.4664 39.4301 29.2488C39.4301 31.0313 38.6573 32.7408 37.2816 34.0012C35.906 35.2616 34.0401 35.9697 32.0946 35.9697C28.751 36.0322 25.3732 35.9697 21.9955 35.9697ZM29.4334 25.1539C29.4334 24.8413 29.4334 24.56 29.1945 24.2474C28.7991 22.5005 27.7657 20.9292 26.2647 19.7927C24.7637 18.6562 22.8848 18.0223 20.9378 17.9955C18.9944 17.9568 17.0956 18.5323 15.5609 19.6254C14.0261 20.7184 12.949 22.2622 12.5105 23.9973C12.3399 24.6537 11.9305 24.7475 11.3505 24.8412C10.1407 25.0262 9.05364 25.6276 8.31166 26.5224C7.56967 27.4172 7.22877 28.5378 7.35858 29.6552C7.47806 30.7688 8.04897 31.8008 8.95862 32.5474C9.86827 33.294 11.0504 33.7009 12.2716 33.6877H31.8899C32.8194 33.7135 33.7355 33.479 34.5158 33.0155C35.2961 32.5519 35.9036 31.8812 36.2571 31.0931C36.6831 30.3515 36.8526 29.5086 36.7429 28.6766C36.6331 27.8445 36.2495 27.0629 35.643 26.4355C35.1029 25.7639 34.3576 25.254 33.5014 24.9702C32.6451 24.6865 31.7163 24.6416 30.8322 24.8412L29.4334 25.1539Z" fill="white"/>
<path id="Vector_4" d="M31.2759 41.8773L29.5359 43.284C27.454 41.4629 24.6864 40.4468 21.808 40.4468C18.9297 40.4468 16.162 41.4629 14.0801 43.284L12.4766 41.7522C13.7139 40.6196 15.1845 39.7235 16.803 39.1159C18.4216 38.5084 20.1557 38.2016 21.9048 38.2132C23.6538 38.2248 25.3829 38.5547 26.9916 39.1837C28.6004 39.8127 30.0567 40.7283 31.2759 41.8773Z" fill="white"/>
<path id="Vector_5" d="M25.6117 50.568C25.6183 51.2397 25.4062 51.8979 25.0024 52.4585C24.5985 53.019 24.0213 53.4565 23.3446 53.7149C22.6679 53.9733 21.9225 54.0409 21.2036 53.9091C20.4848 53.7772 19.8252 53.4518 19.3093 52.9747C18.7933 52.4975 18.4444 51.8902 18.3073 51.2303C18.1701 50.5705 18.2509 49.8882 18.5392 49.2707C18.8276 48.6532 19.3105 48.1285 19.9261 47.7637C20.5418 47.399 21.2621 47.2108 21.9951 47.2232C22.4729 47.2232 22.946 47.3099 23.3871 47.4784C23.8281 47.6469 24.2283 47.8938 24.5646 48.2048C24.9009 48.5158 25.1665 48.8847 25.3463 49.2904C25.526 49.696 25.6162 50.1303 25.6117 50.568ZM21.9269 51.6934C22.2468 51.6935 22.5542 51.5792 22.7836 51.3749C23.013 51.1705 23.1462 50.8923 23.1551 50.5993C23.1645 50.306 23.0485 50.0209 22.8318 49.8048C22.6151 49.5888 22.3149 49.4589 21.9951 49.4427C21.6718 49.4423 21.3606 49.5555 21.1257 49.7591C20.8909 49.9626 20.7502 50.2409 20.7327 50.5367C20.7282 50.6845 20.7554 50.8317 20.813 50.9698C20.8706 51.1079 20.9573 51.2344 21.0682 51.3418C21.1791 51.4492 21.312 51.5355 21.4593 51.5958C21.6067 51.6561 21.7655 51.6893 21.9269 51.6934Z" fill="white"/>
<path id="Vector_6" d="M29.365 58.4766V60.6335H17.1846V58.4766H29.365Z" fill="white"/>
<path id="Vector_7" d="M17.628 46.5662L16.0244 45.0032C16.7998 44.2764 17.7259 43.6988 18.7483 43.3045C19.7707 42.9102 20.8688 42.707 21.9781 42.707C23.0874 42.707 24.1856 42.9102 25.208 43.3045C26.2304 43.6988 27.1565 44.2764 27.9319 45.0032L26.26 46.5037C25.0933 45.4864 23.5408 44.9243 21.9302 44.936C20.3196 44.9476 18.777 45.5321 17.628 46.5662Z" fill="white"/>
<path id="Vector_8" d="M29.3655 4.58496V6.74187H14.7285V4.58496H29.3655Z" fill="white"/>
<path id="Vector_9" d="M6.13054 4.55371C6.30663 4.52654 6.48707 4.53488 6.65928 4.57813C6.83149 4.62138 6.99132 4.69849 7.12767 4.80413C7.26401 4.90977 7.37358 5.04141 7.44873 5.18981C7.52388 5.33822 7.5628 5.49986 7.5628 5.66345C7.5628 5.82705 7.52388 5.98869 7.44873 6.1371C7.37358 6.2855 7.26401 6.41705 7.12767 6.52269C6.99132 6.62833 6.83149 6.70552 6.65928 6.74878C6.48707 6.79203 6.30663 6.80027 6.13054 6.7731C5.95446 6.80027 5.77402 6.79203 5.60181 6.74878C5.4296 6.70552 5.26977 6.62833 5.13342 6.52269C4.99707 6.41705 4.88751 6.2855 4.81236 6.1371C4.73721 5.98869 4.69824 5.82705 4.69824 5.66345C4.69824 5.49986 4.73721 5.33822 4.81236 5.18981C4.88751 5.04141 4.99707 4.90977 5.13342 4.80413C5.26977 4.69849 5.4296 4.62138 5.60181 4.57813C5.77402 4.53488 5.95446 4.52654 6.13054 4.55371Z" fill="white"/>
</g>
</svg>
