<svg width="60" height="60" viewBox="0 0 60 60" fill="none" xmlns="http://www.w3.org/2000/svg">
<g id="Shopping-Broadcast-Advertising-Monitor-Megaphone--Streamline-Ultimate.svg" clip-path="url(#clip0_368_162)">
<g id="Group">
<path id="Vector" d="M59.9998 6.475C60.0266 4.78844 59.3839 3.16001 58.2124 1.94638C57.041 0.732754 55.4363 0.0328614 53.7498 0L6.24983 0C4.56338 0.0328614 2.95869 0.732754 1.78723 1.94638C0.615775 3.16001 -0.0269514 4.78844 -0.000172081 6.475V41.25C-0.000172081 43.2391 0.790004 45.1468 2.19653 46.5533C3.60305 47.9598 5.5107 48.75 7.49983 48.75H25.6248C25.7906 48.75 25.9496 48.8158 26.0668 48.9331C26.184 49.0503 26.2498 49.2092 26.2498 49.375V54.375C26.2498 54.5408 26.184 54.6997 26.0668 54.8169C25.9496 54.9342 25.7906 55 25.6248 55H12.4998C11.8368 55 11.2009 55.2634 10.7321 55.7322C10.2632 56.2011 9.99983 56.837 9.99983 57.5C9.99983 58.163 10.2632 58.7989 10.7321 59.2678C11.2009 59.7366 11.8368 60 12.4998 60H47.4998C48.1629 60 48.7988 59.7366 49.2676 59.2678C49.7364 58.7989 49.9998 58.163 49.9998 57.5C49.9998 56.837 49.7364 56.2011 49.2676 55.7322C48.7988 55.2634 48.1629 55 47.4998 55H31.8748C31.7091 55 31.5501 54.9342 31.4329 54.8169C31.3157 54.6997 31.2498 54.5408 31.2498 54.375V49.375C31.2498 49.2092 31.3157 49.0503 31.4329 48.9331C31.5501 48.8158 31.7091 48.75 31.8748 48.75H52.4998C54.489 48.75 56.3966 47.9598 57.8031 46.5533C59.2097 45.1468 59.9998 43.2391 59.9998 41.25V6.475ZM6.24983 37.5C5.91831 37.5 5.60037 37.3683 5.36594 37.1339C5.13152 36.8995 4.99983 36.5815 4.99983 36.25V6.475C4.9721 6.11411 5.08779 5.75684 5.32181 5.4807C5.55582 5.20457 5.88928 5.03184 6.24983 5H53.7498C54.1104 5.03184 54.4438 5.20457 54.6778 5.4807C54.9119 5.75684 55.0276 6.11411 54.9998 6.475V36.25C54.9998 36.5815 54.8681 36.8995 54.6337 37.1339C54.3993 37.3683 54.0813 37.5 53.7498 37.5H6.24983Z" fill="#004AAD"/>
<path id="Vector_2" d="M20.9 20.55C19.9967 21.0465 19.2839 21.829 18.8738 22.7747C18.4636 23.7203 18.3793 24.7753 18.634 25.7741C18.8887 26.7729 19.468 27.6587 20.2809 28.2924C21.0938 28.9261 22.0942 29.2718 23.125 29.275C23.8869 29.2706 24.6353 29.0728 25.3 28.7L25.65 28.525V28.65C26.1205 30.0028 26.9685 31.1925 28.0938 32.0786C29.2191 32.9646 30.5746 33.5099 32 33.65H32.275C32.7731 33.6352 33.2478 33.4348 33.606 33.0883C33.9642 32.7417 34.1801 32.2739 34.2114 31.7765C34.2427 31.279 34.0871 30.7879 33.7752 30.3991C33.4632 30.0104 33.0174 29.7522 32.525 29.675C31.8802 29.6206 31.2633 29.3885 30.7425 29.0046C30.2217 28.6206 29.8176 28.0998 29.575 27.5C29.4988 27.2562 29.3803 27.0277 29.225 26.825C32.7068 25.2171 36.4899 24.365 40.325 24.325C40.5934 24.3104 40.8539 24.2284 41.0822 24.0865C41.3106 23.9446 41.4996 23.7474 41.6316 23.5132C41.7637 23.279 41.8346 23.0153 41.8378 22.7465C41.841 22.4776 41.7764 22.2123 41.65 21.975L35.6 10.725C35.4717 10.4915 35.2872 10.2936 35.0631 10.1494C34.839 10.0053 34.5824 9.91934 34.3167 9.89947C34.051 9.87961 33.7845 9.92642 33.5415 10.0357C33.2984 10.1449 33.0865 10.3131 32.925 10.525C30.1812 14.4233 26.5247 17.5905 22.275 19.75L20.9 20.55Z" fill="#004AAD"/>
</g>
</g>
<defs>
<clipPath id="clip0_368_162">
<rect width="60" height="60" fill="white"/>
</clipPath>
</defs>
</svg>
