<svg width="76" height="75" viewBox="0 0 76 75" fill="none" xmlns="http://www.w3.org/2000/svg">
<g id="fullstack">
<path id="Vector" d="M0 40.4603C0.113382 40.4048 0.237218 40.376 0.362535 40.376C0.487853 40.376 0.611593 40.4048 0.724974 40.4603H0Z" fill="white"/>
<path id="Vector_2" d="M3.78223 3.23255L4.03434 2.5771C4.2973 1.81795 4.78212 1.16332 5.4208 0.704952C6.05949 0.246586 6.82006 0.00745566 7.59601 0.0209982H30.5735C30.726 0.00272167 30.8804 0.0176718 31.027 0.0650017C31.1736 0.112332 31.3091 0.190953 31.4248 0.29582C31.5404 0.400687 31.6338 0.529525 31.6989 0.67405C31.764 0.818575 31.7993 0.975643 31.8027 1.13519C31.8027 1.7906 31.2984 2.21657 30.4789 2.21657H8.22643C6.49288 2.21657 5.89395 2.83928 5.89395 4.64166V12.1134H73.7862C73.7862 11.9167 73.7862 11.6873 73.7862 11.4579V4.41225C73.8287 4.1137 73.8033 3.80902 73.7122 3.52248C73.6211 3.23593 73.4668 2.97551 73.2616 2.76212C73.0563 2.54872 72.8058 2.3882 72.5302 2.29348C72.2546 2.19876 71.9616 2.1724 71.6744 2.21657H36.2469C35.1122 2.21657 34.608 1.88888 34.6395 1.10238C34.671 0.31589 35.1437 0.0209982 36.2469 0.0209982H71.6113C72.193 -0.0404723 72.7805 0.0334286 73.3313 0.237315C73.8821 0.441202 74.3823 0.769971 74.7957 1.19979C75.2091 1.62961 75.5253 2.14967 75.7214 2.72231C75.9175 3.29496 75.9886 3.90581 75.9294 4.51055V22.5344C75.9337 22.6748 75.9107 22.8148 75.8619 22.9458C75.8131 23.0769 75.7395 23.1963 75.6454 23.2971C75.5513 23.398 75.4387 23.4782 75.3142 23.533C75.1898 23.5877 75.0561 23.6159 74.9209 23.6159C74.7791 23.6248 74.637 23.6034 74.5034 23.5531C74.3699 23.5027 74.2476 23.4246 74.1443 23.3232C74.0409 23.2219 73.9586 23.0996 73.9025 22.9639C73.8463 22.8282 73.8175 22.6821 73.8177 22.5344V14.4072H5.89395V57.599C5.89395 58.2216 5.89395 58.7786 5.20053 59.0736C4.50711 59.3685 4.16046 59.0736 3.78223 58.4837V3.23255Z" fill="white"/>
<path id="Vector_3" d="M3.78223 62.7109C4.10874 62.4402 4.48374 62.2397 4.88542 62.121C5.5158 62.121 5.89395 62.547 5.89395 63.3335V70.5103C5.89395 72.1488 6.55592 72.8042 8.13188 72.8042H71.5483C73.1873 72.8042 73.8177 72.1488 73.8177 70.412V28.2035C73.8177 27.0893 74.1329 26.5649 74.8578 26.5321C75.5827 26.4994 75.9294 27.0564 75.9294 28.2362V70.0515C76.1262 71.1405 75.9071 72.2664 75.3186 73.1902C74.7302 74.1141 73.8187 74.7632 72.7775 74.9999H7.02869C6.31808 74.7168 5.64954 74.3306 5.04297 73.8529C4.5505 73.2153 4.12767 72.5229 3.78223 71.7883V62.7109Z" fill="white"/>
<path id="Vector_4" d="M51.7545 28.5314H33.7885C32.5593 28.5314 32.2441 28.2037 32.2441 26.9584V22.9276C32.2441 22.0428 32.6223 21.6495 33.4733 21.584H69.5312C71.2017 21.584 71.3908 21.8134 71.3908 23.5502V27.0567C71.3908 28.1709 71.0126 28.5314 69.941 28.5314H51.7545ZM69.2791 23.878H34.419V26.303H69.09C69.09 26.0408 69.09 25.8442 69.09 25.6148L69.2791 23.878Z" fill="white"/>
<path id="Vector_5" d="M42.6767 66.4142H26.4759C25.089 66.4142 24.8369 66.1521 24.8369 64.7757V60.876C24.8369 59.8601 25.2152 59.4668 26.2238 59.4668H59.3188C60.3274 59.4668 60.6742 59.8601 60.7057 60.9743V64.9395C60.7057 66.1848 60.3905 66.5126 59.1927 66.5126L42.6767 66.4142ZM26.9172 64.1531H58.4363V61.6625H26.9172V64.1531Z" fill="white"/>
<path id="Vector_6" d="M40.9117 40.5582H55.2844C56.6082 40.5582 56.8604 40.8532 56.8604 42.2295V46.0636C56.8604 47.1123 56.5137 47.4728 55.5051 47.4728H26.2238C25.2152 47.4728 24.8684 47.1123 24.8369 46.0636V42.0001C24.8369 40.8531 25.1521 40.5254 26.2553 40.5254L40.9117 40.5582ZM54.7171 42.8194H27.0117V45.2772H54.7171V42.8194Z" fill="white"/>
<path id="Vector_7" d="M38.7689 50.0293H50.9668C52.3221 50.0293 52.5742 50.2915 52.5742 51.6678V55.633C52.5742 56.5834 52.1961 56.9438 51.282 56.9438H26.0667C25.1527 56.9438 24.8059 56.5506 24.7744 55.6002V51.4384C24.7744 50.357 25.1211 50.0293 26.1613 50.0293H38.7689ZM27.0122 52.2577V54.7155H50.4309V52.2577H27.0122Z" fill="white"/>
<path id="Vector_8" d="M35.9007 31.0547H45.3564C46.4911 31.0547 46.8378 31.4152 46.8378 32.5949V36.6256C46.8378 37.6087 46.4595 38.002 45.514 38.002H26.0667C25.1527 38.002 24.8059 37.6415 24.7744 36.6584V32.431C24.7744 31.4479 25.1841 31.0547 26.1297 31.0547H35.9007ZM44.7575 33.3159H27.0122V35.7409H44.7575V33.3159Z" fill="white"/>
<path id="Vector_9" d="M60.3906 31.0547H69.8463C71.0125 31.0547 71.3593 31.4152 71.3593 32.6277V36.5929C71.3593 37.6416 70.981 38.002 69.9724 38.002H50.6827C49.6426 38.002 49.2959 37.6416 49.2959 36.5601V32.4638C49.2959 31.4807 49.6741 31.0547 50.6196 31.0547H60.3906ZM51.5022 33.3159V35.7737H69.2475V33.3159H51.5022Z" fill="white"/>
<path id="Vector_10" d="M15.3815 56.9438H9.73959C8.69946 56.9438 8.32129 56.5834 8.32129 55.5347V51.4384C8.32129 50.3897 8.69953 50.0293 9.70814 50.0293H21.0235C22.0321 50.0293 22.3788 50.3897 22.3788 51.4056C22.3788 52.4215 22.3788 54.2567 22.3788 55.6658C22.3788 56.5506 22.0006 56.9438 21.1496 56.9438H15.3815ZM10.4646 54.7155H20.2355V52.2905H10.4646V54.7155Z" fill="white"/>
<path id="Vector_11" d="M22.7251 28.5314H17.1777C16.0746 28.5314 15.7594 28.1709 15.7279 27.0567C15.6964 25.9425 15.7279 24.2712 15.7279 22.8949C15.7279 21.5185 16.0746 21.6168 16.8941 21.6168H28.5876C29.4071 21.6168 29.7854 22.0428 29.7854 22.8949V27.2205C29.7854 28.1381 29.3756 28.5314 28.4615 28.5314H22.7251ZM27.6736 23.8451H17.9026V26.3029H27.7997L27.6736 23.8451Z" fill="white"/>
<path id="Vector_12" d="M15.35 47.4732H9.67659C8.6995 47.4732 8.32129 47.1127 8.32129 46.1296V42.0004C8.32129 41.0173 8.69946 40.624 9.64504 40.624H21.118C22.0321 40.624 22.3788 40.9846 22.3788 41.9349C22.3788 43.3768 22.3788 44.8187 22.3788 46.2606C22.3788 47.1454 22.0006 47.5387 21.118 47.5387L15.35 47.4732ZM20.267 42.7869H10.4646V45.2775H20.267V42.7869Z" fill="white"/>
<path id="Vector_13" d="M15.1926 66.4146H9.55061C8.542 66.4146 8.19531 66.0541 8.19531 65.0054V60.8436C8.19531 59.8933 8.60507 59.5 9.48761 59.5H21.0236C21.8746 59.5 22.2528 59.8933 22.2528 60.7781C22.2528 62.22 22.2528 63.6618 22.2528 65.1037C22.2528 66.0213 21.9062 66.4146 21.0236 66.4146H15.1926ZM20.2356 61.6629H10.4647V64.0879H20.2356V61.6629Z" fill="white"/>
<path id="Vector_14" d="M15.3815 38.002H9.73959C8.66794 38.002 8.32129 37.6415 8.32129 36.5273V32.4966C8.32129 31.4479 8.6995 31.0547 9.67659 31.0547H21.0865C22.0321 31.0547 22.3788 31.4479 22.3788 32.4638C22.3788 33.4797 22.3788 35.2821 22.3788 36.6912C22.3788 38.1004 22.0321 38.002 21.1496 38.002H15.3815ZM20.267 33.3159H10.4646V35.7409H20.267V33.3159Z" fill="white"/>
<path id="Vector_15" d="M65.2132 62.9405L63.5111 61.5313C63.3726 61.4536 63.2522 61.3451 63.1586 61.2136C63.0649 61.082 63.0003 60.9307 62.9693 60.7702C62.9382 60.6098 62.9416 60.4442 62.9791 60.2853C63.0166 60.1263 63.0874 59.9779 63.1863 59.8506C63.2852 59.7232 63.4098 59.6202 63.5514 59.5486C63.693 59.4771 63.8479 59.4389 64.0053 59.4366C64.1627 59.4344 64.3186 59.4682 64.462 59.5357C64.6054 59.6033 64.7327 59.7028 64.8349 59.8273C65.7175 60.5154 66.5685 61.2364 67.4195 61.9901C67.5833 62.0877 67.7193 62.2284 67.8139 62.3982C67.9085 62.5679 67.9584 62.7606 67.9584 62.9568C67.9584 63.153 67.9085 63.3458 67.8139 63.5155C67.7193 63.6853 67.5833 63.826 67.4195 63.9236C66.5685 64.6773 65.686 65.3655 64.8349 66.0865C64.7346 66.1997 64.6127 66.29 64.4771 66.3518C64.3415 66.4136 64.195 66.4455 64.047 66.4455C63.8989 66.4455 63.7524 66.4136 63.6168 66.3518C63.4812 66.29 63.3593 66.1997 63.259 66.0865C63.1591 65.967 63.0857 65.8263 63.0438 65.6741C63.002 65.522 62.9927 65.3621 63.0168 65.2059C63.0408 65.0496 63.0976 64.9008 63.183 64.7698C63.2684 64.6389 63.3804 64.529 63.5111 64.4479C64.0469 63.8908 64.6143 63.4648 65.2132 62.9405Z" fill="white"/>
<path id="Vector_16" d="M11.0952 25.0577L12.7657 26.4669C12.892 26.5554 12.9997 26.6695 13.0827 26.8023C13.1657 26.9351 13.2222 27.084 13.2486 27.2399C13.2751 27.3959 13.271 27.5558 13.2368 27.7101C13.2026 27.8644 13.1388 28.01 13.0493 28.1381C12.949 28.2513 12.8271 28.3417 12.6915 28.4035C12.5559 28.4653 12.4094 28.4972 12.2614 28.4972C12.1133 28.4972 11.9668 28.4653 11.8312 28.4035C11.6956 28.3417 11.5737 28.2513 11.4734 28.1381L8.82578 25.9425C8.66929 25.843 8.53995 25.7033 8.45026 25.5369C8.36057 25.3705 8.31348 25.1829 8.31348 24.9922C8.31348 24.8014 8.36057 24.6138 8.45026 24.4474C8.53995 24.281 8.66929 24.1414 8.82578 24.0418L11.4103 21.8789C11.5145 21.7639 11.641 21.6734 11.7815 21.6131C11.9219 21.5528 12.0731 21.5243 12.225 21.5294C12.3769 21.5345 12.5259 21.5731 12.6623 21.6427C12.7987 21.7123 12.9193 21.8113 13.0161 21.933C13.113 22.0548 13.1838 22.1965 13.2239 22.3489C13.264 22.5012 13.2725 22.6608 13.2488 22.8168C13.2251 22.9728 13.1699 23.1218 13.0866 23.2539C13.0032 23.386 12.8939 23.4982 12.7657 23.5831L11.0952 25.0577Z" fill="white"/>
<path id="Vector_17" d="M55.6314 7.13233C55.6399 7.36587 55.6029 7.59884 55.5228 7.81718C55.4426 8.03553 55.3209 8.23484 55.165 8.40313C55.009 8.57142 54.822 8.70521 54.6151 8.79656C54.4082 8.88792 54.1857 8.93494 53.9609 8.93477C53.5095 8.93477 53.0766 8.7483 52.7574 8.41643C52.4382 8.08456 52.2589 7.63446 52.2589 7.16513C52.2259 6.91479 52.2449 6.65997 52.3145 6.41787C52.3841 6.17578 52.5028 5.95204 52.6625 5.76162C52.8223 5.5712 53.0195 5.41857 53.2407 5.31399C53.462 5.2094 53.7022 5.15527 53.9452 5.15527C54.1882 5.15527 54.4285 5.2094 54.6497 5.31399C54.8709 5.41857 55.068 5.5712 55.2278 5.76162C55.3875 5.95204 55.5063 6.17578 55.5759 6.41787C55.6455 6.65997 55.6644 6.91479 55.6314 7.16513V7.13233Z" fill="white"/>
<path id="Vector_18" d="M65.623 8.9343C65.1716 8.9343 64.7386 8.74783 64.4194 8.41596C64.1003 8.08409 63.9209 7.63399 63.9209 7.16466C63.9209 6.69533 64.1003 6.24523 64.4194 5.91336C64.7386 5.58149 65.1716 5.39502 65.623 5.39502C66.0744 5.39502 66.5073 5.58149 66.8265 5.91336C67.1457 6.24523 67.325 6.69533 67.325 7.16466C67.325 7.63399 67.1457 8.08409 66.8265 8.41596C66.5073 8.74783 66.0744 8.9343 65.623 8.9343Z" fill="white"/>
<path id="Vector_19" d="M59.7919 8.9343C59.3405 8.9343 58.9076 8.74783 58.5884 8.41596C58.2692 8.08409 58.0898 7.63399 58.0898 7.16466C58.0898 6.69533 58.2692 6.24523 58.5884 5.91336C58.9076 5.58149 59.3405 5.39502 59.7919 5.39502C60.2433 5.39502 60.6762 5.58149 60.9954 5.91336C61.3146 6.24523 61.494 6.69533 61.494 7.16466C61.4859 7.63136 61.3039 8.0766 60.9865 8.40666C60.669 8.73672 60.2408 8.92589 59.7919 8.9343Z" fill="white"/>
</g>
</svg>
