<svg width="81" height="81" viewBox="0 0 81 81" fill="none" xmlns="http://www.w3.org/2000/svg">
<g id="et:global" clip-path="url(#clip0_293_811)">
<path id="Vector" d="M0.0860625 42.1909C0.982125 63.7343 18.7388 81 40.5 81C62.2612 81 80.0179 63.7343 80.9139 42.1909C80.9669 42.0551 80.996 41.9113 81 41.7656C81 41.6745 80.9671 41.596 80.9494 41.5125C80.957 41.1733 81 40.8417 81 40.5C81 18.1693 62.8307 0 40.5 0C18.1693 0 0 18.1693 0 40.5C0 40.8417 0.0430312 41.1733 0.050625 41.5125C0.0329062 41.596 0 41.6745 0 41.7656C0 41.9175 0.0379688 42.0567 0.0860625 42.1909ZM63.0813 57.5657C59.6414 56.1392 56.0671 55.0614 52.4121 54.3485C52.812 50.6706 53.0474 46.8509 53.1208 43.0338H65.7264C65.4961 48.233 64.5722 53.1411 63.0813 57.5657ZM68.2552 43.0312H78.3397C77.8915 49.9226 75.5598 56.5585 71.5989 62.2156C69.6314 60.8288 67.551 59.6095 65.3797 58.5706C67.0123 53.8397 68.0172 48.5899 68.2552 43.0312ZM31.3597 56.4114C34.3832 55.9343 37.4391 55.6923 40.5 55.6875C43.5983 55.6875 46.6585 55.9457 49.6378 56.4114C47.8811 69.9157 44.0438 78.4688 40.5 78.4688C36.9562 78.4688 33.1189 69.9157 31.3597 56.4114ZM35.2046 77.6182C28.2412 75.3857 22.3509 68.8323 18.7971 59.94C22.053 58.5805 25.4363 57.5486 28.8968 56.8595C30.0586 65.7087 32.1823 73.4189 35.2046 77.6182ZM31.0686 27.1072C34.1889 27.5934 37.342 27.8397 40.5 27.8438C43.658 27.8397 46.8111 27.5934 49.9314 27.1072C50.3668 31.2078 50.625 35.683 50.625 40.5H30.375C30.375 35.683 30.6332 31.2078 31.0686 27.1072ZM50.587 43.0312C50.5267 46.6597 50.3071 50.2837 49.9289 53.8928C46.8094 53.4067 43.6572 53.1604 40.5 53.1562C37.342 53.1603 34.1889 53.4066 31.0686 53.8928C30.6904 50.2837 30.4708 46.6597 30.4104 43.0312H50.587ZM52.1058 56.8595C55.6597 57.5733 59.049 58.6111 62.2055 59.94C58.6516 68.8323 52.7614 75.3857 45.7979 77.6182C48.8177 73.4189 50.9414 65.7087 52.1058 56.8595ZM53.1562 40.5C53.1562 35.8526 52.8981 31.1445 52.4121 26.6541C56.1583 25.9149 59.7426 24.8316 63.0813 23.4368C64.8127 28.5728 65.8125 34.3592 65.8125 40.5H53.1562ZM52.1058 24.1405C50.9414 15.2913 48.8202 7.57856 45.7954 3.38175C52.7588 5.61431 58.6491 12.1677 62.2029 21.06C58.9489 22.4225 55.5662 23.4546 52.1058 24.1405ZM49.6403 24.5886C46.6585 25.0543 43.5983 25.3125 40.5 25.3125C37.4017 25.3125 34.3415 25.0543 31.3597 24.5886C33.1189 11.0843 36.9562 2.53125 40.5 2.53125C44.0438 2.53125 47.8811 11.0843 49.6403 24.5886ZM28.8942 24.1405C25.4338 23.4514 22.0505 22.4195 18.7945 21.06C22.3484 12.1677 28.2386 5.61431 35.2021 3.38175C32.1823 7.58109 30.0586 15.2913 28.8942 24.1405ZM28.5879 26.6541C28.092 31.2527 27.8436 35.8747 27.8438 40.5H15.1875C15.1875 34.3592 16.1873 28.5728 17.9187 23.4343C21.2574 24.8316 24.8417 25.9124 28.5879 26.6541ZM27.8792 43.0312C27.9526 46.8484 28.188 50.668 28.5879 54.3485C24.8417 55.0876 21.2574 56.171 17.9187 57.5657C16.4278 53.1411 15.5039 48.233 15.2736 43.0312H27.8792ZM15.6178 58.5706C13.4473 59.6096 11.3677 60.8289 9.40106 62.2156C5.44017 56.5585 3.10852 49.9226 2.66034 43.0312H12.7448C12.9828 48.5899 13.9877 53.8397 15.6178 58.5706ZM10.9173 64.2431C12.6881 62.9944 14.5562 61.8897 16.5037 60.9398C19.0451 67.23 22.7028 72.452 27.0996 75.9831C20.7565 73.5802 15.17 69.5273 10.9173 64.2431ZM53.9004 75.9805C58.2998 72.452 61.9549 67.2275 64.4962 60.9373C66.4959 61.9093 68.3488 63.0281 70.0827 64.2406C65.8317 69.5266 60.2447 73.5798 53.9004 75.9805ZM68.3438 40.5C68.3438 34.0023 67.2604 27.8767 65.3822 22.4294C67.6097 21.3612 69.6803 20.1336 71.6015 18.7844C76.0737 25.1423 78.4722 32.7267 78.4688 40.5H68.3438ZM70.0853 16.7569C68.3513 17.9693 66.4985 19.0882 64.4988 20.0602C61.9574 13.77 58.2998 8.5455 53.903 5.01694C60.2454 7.42091 65.8317 11.4736 70.0853 16.7569ZM27.0996 5.01947C22.7003 8.54803 19.0451 13.7725 16.5037 20.0627C14.5561 19.112 12.688 18.0065 10.9173 16.7569C15.1695 11.4727 20.7562 7.42056 27.0996 5.01947ZM9.40106 18.7844C11.3677 20.1711 13.4473 21.3904 15.6178 22.4294C13.6402 28.2483 12.6395 34.3543 12.6562 40.5H2.53125C2.53125 32.4253 5.08528 24.9455 9.40106 18.7844Z" fill="black"/>
</g>
<defs>
<clipPath id="clip0_293_811">
<rect width="81" height="81" fill="white"/>
</clipPath>
</defs>
</svg>
