<svg width="76" height="75" viewBox="0 0 76 75" fill="none" xmlns="http://www.w3.org/2000/svg">
<g id="robotics ">
<path id="Vector" d="M41.4812 58.8123L49.3528 61.5478C50.8553 62.0627 52.3578 62.6098 53.8603 63.0604C54.2495 63.2063 54.6795 63.2063 55.0687 63.0604L70.126 54.4999C70.653 54.1681 71.2545 53.9688 71.8779 53.9194C72.5012 53.87 73.1273 53.9722 73.7013 54.2168C74.2752 54.4614 74.7795 54.8412 75.1698 55.3226C75.5601 55.804 75.8246 56.3724 75.9399 56.978C76.0812 57.7671 75.9719 58.5799 75.627 59.3056C75.2822 60.0313 74.7185 60.6345 74.0129 61.0329C70.0607 63.4787 66.1086 65.9567 62.1564 68.3704C60.4929 69.4601 58.7702 70.4593 56.9958 71.3634C53.7099 72.7954 50.1687 73.5719 46.5765 73.6482C40.6223 73.8952 34.6576 73.6584 28.7429 72.9402L13.3916 71.4277C12.673 71.4277 11.9544 71.4277 11.1052 71.4277C11.1052 72.1679 11.1052 72.9402 11.1052 73.7126C11.1052 74.4849 10.7459 74.9998 9.7987 74.9998H1.33917C0.359298 74.9998 0 74.6137 0 73.6805V52.9874C0 52.0219 0.359298 51.6679 1.33917 51.6679H9.7987C10.7459 51.6679 11.1052 52.022 11.1052 52.9553C11.1052 53.8886 11.1052 54.4356 11.1052 55.2724H11.9871H17.0497C18.1027 55.2888 19.1478 55.0916 20.12 54.693C24.7907 52.7943 29.5268 50.96 34.2302 49.0934C35.5939 48.5571 37.1012 48.489 38.5089 48.9003C39.0013 49.0224 39.5044 49.0979 40.0114 49.1256C43.2776 49.1256 46.5438 49.1256 49.8101 49.1256C50.3686 49.131 50.9199 49.252 51.4279 49.4808C51.936 49.7097 52.3894 50.0412 52.759 50.4539C53.1286 50.8666 53.4061 51.3514 53.5733 51.8765C53.7405 52.4017 53.7937 52.9556 53.7296 53.5023C53.5956 54.4127 53.1561 55.2527 52.4813 55.8885C51.8065 56.5242 50.9351 56.919 50.006 57.0101L42.559 58.1043C42.1252 58.2149 41.6996 58.3547 41.2852 58.5227L41.4812 58.8123ZM17.7683 69.4645V69.6577C24.0721 70.2048 30.3433 70.8806 36.6471 71.3634C41.1209 71.7227 45.6207 71.6148 50.0714 71.0415C51.3452 70.8806 51.9332 70.43 52.1292 69.1749C52.3251 67.9198 52.815 66.5038 53.1743 65.1844L52.6844 64.9591L39.6194 60.518C39.2667 60.422 38.8943 60.422 38.5416 60.518C37.6522 60.8298 36.7026 60.9389 35.7643 60.8367C34.826 60.7345 33.9235 60.4238 33.1247 59.928C32.326 59.4322 31.6518 58.7643 31.153 57.9746C30.6543 57.1848 30.3439 56.294 30.2454 55.3689C30.1962 54.5114 30.1962 53.6518 30.2454 52.7943L18.2582 57.5251C19.0485 58.302 19.6658 59.2327 20.0707 60.2578C20.4756 61.2829 20.6592 62.3798 20.6099 63.4787C20.5893 64.6171 20.3256 65.7385 19.836 66.7698C19.3464 67.8011 18.6419 68.7192 17.7683 69.4645ZM6.76113 63.1891C6.70055 63.9926 6.80888 64.7998 7.07935 65.5601C7.34981 66.3205 7.77658 67.0178 8.33299 67.6082C8.8894 68.1987 9.56346 68.6697 10.313 68.9917C11.0626 69.3138 11.8716 69.48 12.6893 69.48C13.5071 69.48 14.3161 69.3138 15.0657 68.9917C15.8152 68.6697 16.4892 68.1987 17.0457 67.6082C17.6021 67.0178 18.0288 66.3205 18.2993 65.5601C18.5698 64.7998 18.6781 63.9926 18.6176 63.1891C18.6781 62.3856 18.5698 61.5784 18.2993 60.818C18.0288 60.0576 17.6021 59.3604 17.0457 58.77C16.4892 58.1795 15.8152 57.7086 15.0657 57.3865C14.3161 57.0644 13.5071 56.8982 12.6893 56.8982C11.8716 56.8982 11.0626 57.0644 10.313 57.3865C9.56346 57.7086 8.8894 58.1795 8.33299 58.77C7.77658 59.3604 7.34981 60.0576 7.07935 60.818C6.80888 61.5784 6.70055 62.3856 6.76113 63.1891ZM8.98214 72.8437C8.98214 72.2001 8.98214 71.6208 8.98214 71.0415C9.00664 70.8432 8.96592 70.6424 8.86597 70.4686C8.76602 70.2949 8.61212 70.1572 8.42689 70.076C7.24451 69.3626 6.26777 68.3623 5.59012 67.1705C4.91247 65.9788 4.55661 64.6356 4.55661 63.2695C4.55661 61.9035 4.91247 60.5603 5.59012 59.3686C6.26777 58.1768 7.24451 57.1764 8.42689 56.4631C8.65231 56.3613 8.82825 56.1764 8.91685 55.9482C8.91685 55.2402 8.91685 54.5321 8.91685 53.7919H2.15573V72.8437H8.98214ZM57.9756 68.3704L58.3676 68.1773L72.6737 59.2951C72.9298 59.1491 73.1613 58.9644 73.3597 58.748C73.5813 58.5286 73.7309 58.2487 73.7891 57.9446C73.8473 57.6405 73.8115 57.3262 73.6862 57.0423C73.5891 56.7636 73.4099 56.5197 73.1713 56.342C72.9327 56.1643 72.6457 56.0608 72.3471 56.0447C71.8447 56.0894 71.3563 56.2316 70.91 56.4631L58.3676 63.4787L56.0486 64.7982L57.9756 68.3704ZM40.7299 54.854C40.7364 54.0507 40.5006 53.2635 40.0523 52.5925C39.6041 51.9214 38.9636 51.3967 38.2122 51.0848C37.4608 50.773 36.6322 50.6881 35.8318 50.8409C35.0313 50.9937 34.2951 51.3773 33.7162 51.9431C33.1374 52.5089 32.7422 53.2314 32.5807 54.0188C32.4192 54.8063 32.4988 55.6232 32.8093 56.3661C33.1198 57.1089 33.6473 57.744 34.3248 58.191C35.0022 58.638 35.7992 58.8767 36.6145 58.8767C37.1593 58.8767 37.6986 58.771 38.2019 58.5656C38.7052 58.3602 39.1625 58.0592 39.5477 57.6796C39.9328 57.3001 40.2384 56.8496 40.4468 56.3537C40.6553 55.8578 40.7626 55.3263 40.7626 54.7896L40.7299 54.854ZM42.7877 56.0125L47.5238 55.3045C48.4927 55.1982 49.453 55.0261 50.398 54.7896C50.7747 54.7002 51.108 54.4841 51.3405 54.1787C51.573 53.8732 51.6902 53.4975 51.6718 53.1161C51.6813 52.7464 51.5729 52.3831 51.362 52.0772C51.1511 51.7712 50.8483 51.5381 50.496 51.4105C50.1713 51.362 49.8409 51.362 49.5161 51.4105H42.3631H41.8078C42.6926 52.7521 43.0525 54.3647 42.8204 55.9482L42.7877 56.0125ZM56.1139 69.4645L54.9054 67.3406L54.1542 70.2048L56.1139 69.4645Z" fill="white"/>
<path id="Vector_2" d="M39.3906 22.4793H30.9965C30.6915 23.4877 30.0091 24.3444 29.0875 24.8761C28.1658 25.4078 27.0736 25.5749 26.0318 25.3434C25.1039 25.1631 24.2695 24.6686 23.6729 23.9457C23.0763 23.2227 22.7553 22.3168 22.7655 21.3851C22.7648 20.4486 23.0879 19.5398 23.6817 18.8085C24.2754 18.0772 25.1043 17.5672 26.0318 17.3623C27.0658 17.1829 28.1307 17.3814 29.0267 17.9206C29.9227 18.4598 30.5883 19.3025 30.8985 20.2908H39.2927C39.315 19.9327 39.3697 19.5774 39.456 19.2289C39.578 18.7925 39.8425 18.408 40.2085 18.1346C40.5745 17.8612 41.0218 17.7142 41.4811 17.7163C41.8306 17.7142 42.1757 17.6394 42.4938 17.4968C42.8119 17.3542 43.096 17.147 43.3272 16.8888C43.5585 16.6305 43.7318 16.3271 43.8358 15.9983C43.9398 15.6695 43.9722 15.3228 43.9308 14.9808C43.9308 14.0475 43.6041 13.8223 42.6569 13.8223H31.4864C31.1841 13.8302 30.8832 13.7772 30.6024 13.6665C30.3216 13.5559 30.0667 13.3898 29.8533 13.1786C28.1875 11.473 26.587 9.96045 24.8233 8.15826C24.6952 7.9977 24.5155 7.88477 24.3137 7.83799C24.112 7.79121 23.9001 7.81341 23.7128 7.90085C22.8245 8.25852 21.8367 8.29646 20.9229 8.00809C20.009 7.71973 19.2275 7.12342 18.7154 6.32386C18.1919 5.53497 17.9611 4.59206 18.0623 3.65477C18.1636 2.71748 18.5905 1.84343 19.2707 1.18072C19.951 0.518017 20.8429 0.107352 21.7953 0.0182911C22.7476 -0.0707701 23.702 0.167248 24.4966 0.692022C25.2967 1.20619 25.8884 1.98053 26.1689 2.88017C26.4494 3.77982 26.4009 4.74782 26.0318 5.61586C25.943 5.77898 25.914 5.96731 25.9497 6.14905C25.9854 6.33078 26.0836 6.49479 26.2277 6.61349C27.8608 8.15822 29.494 9.83175 31.0291 11.3121C31.2274 11.4981 31.4777 11.6214 31.7477 11.6661H42.5263C43.3545 10.2489 44.4656 9.01177 45.7925 8.0295C46.196 7.75168 46.6894 7.63086 47.178 7.69028C47.6665 7.7497 48.1154 7.98518 48.4382 8.35134C48.8873 8.74714 49.4687 8.96595 50.0713 8.96595C50.6739 8.96595 51.2553 8.74714 51.7044 8.35134C52.0831 7.89484 52.3411 7.35312 52.4556 6.77446C52.7495 5.06881 53.3701 4.48957 55.1012 4.48957H58.2042C58.4934 4.4667 58.7843 4.50434 59.0577 4.60005C59.3311 4.69577 59.5809 4.84731 59.7906 5.04485C60.0004 5.2424 60.1653 5.48148 60.2747 5.74628C60.3841 6.01108 60.4353 6.29566 60.4252 6.58137C60.4195 7.05353 60.5604 7.51613 60.8289 7.90723C61.0974 8.29833 61.4808 8.59925 61.9277 8.76972C62.3715 8.97953 62.8703 9.04888 63.3557 8.96821C63.8411 8.88754 64.2893 8.66076 64.6387 8.31913C64.841 8.08771 65.0917 7.90203 65.3735 7.77474C65.6553 7.64746 65.9618 7.58156 66.2718 7.58156C66.5818 7.58156 66.8882 7.64746 67.1701 7.77474C67.4519 7.90203 67.7025 8.08771 67.9049 8.31913L69.8647 10.2501C70.1045 10.4464 70.2975 10.6923 70.4299 10.9704C70.5624 11.2486 70.6311 11.552 70.6311 11.8592C70.6311 12.1664 70.5624 12.4699 70.4299 12.748C70.2975 13.0261 70.1045 13.272 69.8647 13.4683C69.5227 13.8148 69.291 14.2522 69.1981 14.7268C69.1053 15.2014 69.1553 15.6925 69.342 16.1394C69.5374 16.5669 69.8475 16.9336 70.2389 17.2002C70.6304 17.4668 71.0882 17.623 71.5631 17.652C71.8803 17.6378 72.1967 17.6938 72.489 17.8161C72.7813 17.9383 73.042 18.1236 73.252 18.3583C73.462 18.593 73.6158 18.871 73.7022 19.1721C73.7887 19.4731 73.8055 19.7894 73.7515 20.0977C73.7515 20.9988 73.7515 21.9321 73.7515 22.8332C73.7647 23.1048 73.7222 23.3762 73.6268 23.6313C73.5313 23.8864 73.3848 24.12 73.1959 24.3182C73.007 24.5163 72.7795 24.675 72.527 24.7848C72.2746 24.8946 72.0023 24.9532 71.7264 24.9572C71.2189 24.9551 70.7219 25.1006 70.2978 25.3753C69.8736 25.6501 69.5412 26.042 69.342 26.502C69.1594 26.9496 69.1116 27.4396 69.2043 27.9133C69.297 28.387 69.5262 28.8244 69.8647 29.1731C70.0809 29.3633 70.2539 29.5964 70.3724 29.857C70.4909 30.1177 70.5521 30.4 70.5521 30.6856C70.5521 30.9712 70.4909 31.2536 70.3724 31.5142C70.2539 31.7749 70.0809 32.008 69.8647 32.1982C69.1461 32.9062 68.4602 33.6142 67.7416 34.29C67.5463 34.4935 67.3107 34.6557 67.0496 34.7665C66.7884 34.8773 66.5071 34.9344 66.2227 34.9344C65.9384 34.9344 65.6571 34.8773 65.3959 34.7665C65.1348 34.6557 64.8993 34.4935 64.704 34.29C64.3524 33.9491 63.9068 33.7177 63.4228 33.6244C62.9387 33.5311 62.4376 33.5801 61.9816 33.7653C61.5256 33.9505 61.1349 34.2638 60.8582 34.666C60.5815 35.0683 60.4309 35.5419 60.4252 36.0278C60.4261 36.3082 60.368 36.5857 60.2545 36.8428C60.1411 37.0999 59.9748 37.331 59.766 37.5215C59.5573 37.7121 59.3107 37.8579 59.0419 37.9497C58.7731 38.0416 58.4878 38.0776 58.2042 38.0553H55.4279C55.1112 38.0979 54.789 38.0715 54.4838 37.9782C54.1786 37.8849 53.8979 37.7269 53.6613 37.5153C53.4247 37.3036 53.238 37.0435 53.1143 36.7531C52.9907 36.4628 52.9331 36.1494 52.9456 35.8348C52.9168 35.3857 52.7627 34.9532 52.5004 34.5848C52.2382 34.2164 51.878 33.9264 51.4593 33.7468C51.0406 33.5671 50.5798 33.5048 50.1274 33.5666C49.6751 33.6283 49.2487 33.8118 48.8954 34.0969C48.6766 34.3528 48.4005 34.5551 48.0887 34.6876C47.7769 34.8202 47.4381 34.8795 47.099 34.8608C46.76 34.8421 46.43 34.7459 46.1352 34.5798C45.8404 34.4137 45.5888 34.1822 45.4005 33.9038L42.4936 30.8787H31.9763C31.7314 30.8991 31.5009 31.0012 31.323 31.1683C29.6899 32.7452 28.0568 34.3866 26.4237 35.9635C26.0317 36.3175 26.1624 36.6071 26.4237 36.9611C26.726 37.7187 26.7879 38.5487 26.6013 39.3416C26.4147 40.1345 25.9884 40.8531 25.3786 41.4023C24.8418 41.905 24.1781 42.257 23.4566 42.4216C22.7351 42.5863 21.982 42.5575 21.2755 42.3385C20.5691 42.1195 19.9351 41.718 19.4393 41.176C18.9435 40.6339 18.604 39.9711 18.4561 39.2561C18.3082 38.541 18.3573 37.8 18.5983 37.11C18.8393 36.42 19.2633 35.8062 19.8264 35.3322C20.3896 34.8583 21.0712 34.5415 21.8006 34.4148C22.5299 34.2881 23.2804 34.3562 23.974 34.6118C24.1819 34.7175 24.4214 34.7464 24.649 34.6932C24.8767 34.6401 25.0775 34.5085 25.2152 34.3222L30.1472 29.4306C30.361 29.1979 30.6237 29.014 30.9171 28.8917C31.2104 28.7694 31.5273 28.7117 31.8457 28.7226H43.1469C43.8655 28.7226 44.0941 28.4008 44.2574 27.8215C44.3381 27.4883 44.3469 27.1422 44.2832 26.8055C44.2196 26.4688 44.0849 26.149 43.8878 25.8669C43.6907 25.5847 43.4358 25.3465 43.1393 25.1676C42.8429 24.9887 42.5116 24.8732 42.167 24.8285C39.9786 24.8607 39.6519 24.4424 39.3906 22.4793ZM44.9433 12.0845C45.5662 12.7213 45.9851 13.5248 46.1477 14.3947C46.3103 15.2646 46.2095 16.1623 45.8578 16.9761C45.5233 17.8142 44.9449 18.5363 44.1953 19.0516C43.4457 19.5669 42.5582 19.8526 41.6444 19.8725V22.8654C42.5383 22.9116 43.4005 23.2065 44.1313 23.7158C44.8621 24.2252 45.4314 24.9282 45.7733 25.7433C46.1151 26.5584 46.2155 27.4522 46.0629 28.3213C45.9102 29.1903 45.5106 29.9989 44.9106 30.6534L47.099 32.7774C47.7632 32.1862 48.5839 31.7926 49.466 31.6422C50.348 31.4918 51.2552 31.5907 52.0825 31.9275C52.9098 32.2643 53.6232 32.8252 54.1401 33.5452C54.6571 34.2653 54.9563 35.1149 55.0032 35.9956H58.2042C58.2433 35.1149 58.5366 34.2636 59.0496 33.5413C59.5627 32.8191 60.274 32.256 61.1004 31.9182C61.9268 31.5803 62.8339 31.4816 63.7152 31.6339C64.5964 31.7861 65.4153 32.1828 66.0758 32.7774L68.2641 30.6534C67.6504 30.0037 67.2391 29.194 67.0789 28.3206C66.9186 27.4472 67.0163 26.5468 67.3604 25.7265C67.7044 24.9062 68.2803 24.2006 69.0195 23.6934C69.7587 23.1862 70.6302 22.8988 71.5304 22.8654V19.8081C70.6265 19.7997 69.7459 19.5258 69.0011 19.0212C68.2562 18.5167 67.6812 17.8046 67.3496 16.9761C66.9822 16.1828 66.8637 15.2995 67.0092 14.4395C67.1547 13.5794 67.5575 12.7817 68.1662 12.1488L66.0431 9.8639C65.3837 10.4686 64.5619 10.874 63.6755 11.0318C62.789 11.1897 61.8752 11.0934 61.0427 10.7545C60.2102 10.4155 59.4939 9.84811 58.9792 9.11975C58.4644 8.39138 58.1728 7.53264 58.1389 6.6457H54.9379C54.9041 7.53264 54.6124 8.39138 54.0977 9.11975C53.5829 9.84811 52.8667 10.4155 52.0341 10.7545C51.2016 11.0934 50.2878 11.1897 49.4014 11.0318C48.5149 10.874 47.693 10.4686 47.0336 9.8639L44.9433 12.0845ZM26.979 19.4219C26.7173 19.4177 26.4574 19.4642 26.214 19.5589C25.9706 19.6537 25.7485 19.7948 25.5605 19.9741C25.3724 20.1534 25.2221 20.3674 25.118 20.604C25.0139 20.8406 24.9582 21.0951 24.9539 21.3529C24.9539 21.8735 25.1638 22.3728 25.5375 22.741C25.9111 23.1091 26.4179 23.3159 26.9463 23.3159C27.4747 23.3159 27.9815 23.1091 28.3551 22.741C28.7288 22.3728 28.9388 21.8735 28.9388 21.3529C28.9303 20.8434 28.7212 20.357 28.3554 19.9967C27.9897 19.6363 27.4961 19.4302 26.979 19.4219ZM22.2756 6.06645C22.5373 6.06226 22.7956 6.00734 23.0357 5.90479C23.2758 5.80225 23.493 5.65402 23.675 5.46874C23.857 5.28345 24.0001 5.06467 24.0962 4.82486C24.1924 4.58505 24.2397 4.32899 24.2354 4.07119C24.2354 3.55054 24.0254 3.05122 23.6518 2.68306C23.2781 2.31491 22.7713 2.10804 22.2429 2.10804C21.7145 2.10804 21.2077 2.31491 20.8341 2.68306C20.4604 3.05122 20.2506 3.55054 20.2506 4.07119C20.2461 4.33441 20.2955 4.59574 20.3957 4.83979C20.4959 5.08383 20.6449 5.30556 20.8339 5.49172C21.0228 5.67787 21.2478 5.82472 21.4954 5.92345C21.7431 6.02219 22.0085 6.0708 22.2756 6.06645ZM24.2354 38.7311C24.2657 38.2105 24.0848 37.6993 23.7326 37.31C23.3804 36.9207 22.8857 36.6853 22.3573 36.6554C21.8288 36.6255 21.31 36.8037 20.9149 37.1507C20.5198 37.4977 20.2809 37.9852 20.2506 38.5058C20.2356 38.7636 20.2722 39.0218 20.3584 39.2657C20.4447 39.5095 20.5788 39.7342 20.7532 39.9269C20.9276 40.1197 21.1388 40.2767 21.3748 40.389C21.6108 40.5013 21.8669 40.5668 22.1286 40.5816C22.3902 40.5964 22.6523 40.5602 22.8998 40.4753C23.1473 40.3903 23.3753 40.2581 23.5709 40.0862C23.7666 39.9144 23.9259 39.7063 24.0399 39.4738C24.1539 39.2413 24.2204 38.9889 24.2354 38.7311Z" fill="white"/>
<path id="Vector_3" d="M12.7057 64.6056C12.3301 64.6057 11.9695 64.4609 11.7009 64.2022C11.4323 63.9436 11.2771 63.5917 11.2686 63.2218C11.2686 62.8548 11.4165 62.5027 11.6799 62.2432C11.9433 61.9837 12.3005 61.8379 12.673 61.8379C13.0455 61.8379 13.4027 61.9837 13.6661 62.2432C13.9295 62.5027 14.0775 62.8548 14.0775 63.2218C14.0818 63.402 14.0496 63.5812 13.9826 63.7489C13.9156 63.9166 13.8153 64.0695 13.6874 64.1984C13.5596 64.3273 13.4069 64.4298 13.2383 64.4997C13.0697 64.5696 12.8886 64.6056 12.7057 64.6056Z" fill="white"/>
<path id="Vector_4" d="M38.019 54.7895C38.019 54.9697 37.9825 55.1482 37.9115 55.3143C37.8405 55.4804 37.7366 55.6309 37.6057 55.7569C37.4748 55.8828 37.3197 55.9817 37.1495 56.0477C36.9793 56.1137 36.7974 56.1455 36.6145 56.1412C36.242 56.1412 35.8847 55.9954 35.6213 55.7358C35.3579 55.4763 35.21 55.1244 35.21 54.7574C35.21 54.3904 35.3579 54.0383 35.6213 53.7788C35.8847 53.5193 36.242 53.3735 36.6145 53.3735C36.803 53.3688 36.9904 53.4026 37.1651 53.4726C37.3398 53.5425 37.498 53.6472 37.6298 53.7801C37.7616 53.9129 37.8642 54.0711 37.9312 54.2448C37.9981 54.4185 38.028 54.6039 38.019 54.7895Z" fill="white"/>
<path id="Vector_5" d="M47.6868 21.3529C47.6933 19.6139 48.2234 17.916 49.21 16.4741C50.1967 15.0322 51.5954 13.9111 53.2291 13.253C54.8628 12.5949 56.658 12.4293 58.3872 12.7772C60.1165 13.1251 61.7022 13.9708 62.9433 15.2072C64.1844 16.4436 65.0252 18.0151 65.3592 19.7227C65.6932 21.4303 65.5054 23.1971 64.8195 24.7995C64.1337 26.4018 62.9807 27.7675 61.5065 28.7237C60.0322 29.6799 58.3031 30.1835 56.5382 30.1707C55.3688 30.1665 54.2117 29.9349 53.1333 29.4891C52.055 29.0432 51.0765 28.3921 50.2542 27.5729C49.4318 26.7536 48.7816 25.7825 48.341 24.7151C47.9005 23.6477 47.6782 22.5051 47.6868 21.3529ZM49.8425 21.3529C49.849 22.6718 50.2528 23.9591 51.0025 25.0517C51.7523 26.1443 52.8143 26.993 54.0541 27.4904C55.2939 27.9877 56.6556 28.1112 57.9667 27.8453C59.2778 27.5794 60.4793 26.9359 61.4189 25.9966C62.3586 25.0572 62.994 23.8642 63.2448 22.5687C63.4957 21.2731 63.3506 19.9334 62.8279 18.7192C62.3052 17.505 61.4284 16.471 60.3087 15.7482C59.189 15.0254 57.8768 14.6463 56.5382 14.659C55.6476 14.6674 54.7674 14.8492 53.9482 15.1938C53.129 15.5384 52.387 16.0391 51.7648 16.6671C51.1426 17.2951 50.6524 18.0379 50.3225 18.8531C49.9926 19.6683 49.8295 20.5397 49.8425 21.4172V21.3529Z" fill="white"/>
</g>
</svg>
