<svg width="60" height="60" viewBox="0 0 60 60" fill="none" xmlns="http://www.w3.org/2000/svg">
<g id="Whitesource-Logo-2--Streamline-Ultimate.svg" clip-path="url(#clip0_368_3)">
<g id="Group">
<path id="Vector" d="M48.5751 22.5V20.5C48.5607 17.4186 47.781 14.3891 46.3061 11.6836C44.8312 8.97814 42.7072 6.68148 40.125 5V18.5H36.375V0.125H23.625V18.425H20V5C17.3947 6.66692 15.2462 8.95724 13.7489 11.6637C12.2516 14.3701 11.4529 17.4072 11.425 20.5V22.5H7.30005V28.75H52.7001V22.5H48.5751Z" fill="#004AAD"/>
<path id="Vector_2" d="M30 43.4751C28.6453 43.4784 27.3033 43.2144 26.0507 42.6982C24.7982 42.1821 23.6598 41.4239 22.7007 40.4672C21.7416 39.5104 20.9807 38.3738 20.4615 37.1225C19.9423 35.8712 19.675 34.5298 19.675 33.1751H7.30005V41.4251H12.5C13.0826 43.2058 13.9251 44.8906 15 46.4251L11.025 50.4251L16.875 56.2751L21.425 51.7001C22.8286 52.4452 24.3251 53.0001 25.875 53.3501V60.0001H34.125V53.3501C35.675 53.0001 37.1715 52.4452 38.5751 51.7001L43.125 56.2751L48.975 50.4251L45 46.3501C46.1189 44.8233 47.0037 43.1381 47.625 41.3501H52.8V33.1001H40.325C40.335 34.4611 40.075 35.8106 39.5603 37.0706C39.0455 38.3305 38.2862 39.476 37.3261 40.4407C36.366 41.4054 35.2242 42.1703 33.9668 42.6912C32.7093 43.212 31.3611 43.4784 30 43.4751Z" fill="#004AAD"/>
</g>
</g>
<defs>
<clipPath id="clip0_368_3">
<rect width="60" height="60" fill="white"/>
</clipPath>
</defs>
</svg>
