<svg width="60" height="60" viewBox="0 0 60 60" fill="none" xmlns="http://www.w3.org/2000/svg">
<g id="Web--Streamline-Plump.svg">
<g id="web--server-world-internet-earth-www-globe-worldwide-web-network">
<path id="Ellipse 18" d="M57.5 30C57.5 45.1879 45.1879 57.5 30 57.5C14.8121 57.5 2.5 45.1879 2.5 30C2.5 14.8121 14.8121 2.5 30 2.5C45.1879 2.5 57.5 14.8121 57.5 30Z" stroke="#004AAD" stroke-width="3" stroke-linecap="round" stroke-linejoin="round"/>
<path id="Ellipse 19" d="M41.7855 30C41.7855 14.8121 36.5089 2.5 29.9999 2.5C23.4907 2.5 18.2141 14.8121 18.2141 30C18.2141 45.1879 23.4907 57.5 29.9999 57.5C36.5089 57.5 41.7855 45.1879 41.7855 30Z" stroke="#004AAD" stroke-width="3" stroke-linecap="round" stroke-linejoin="round"/>
<path id="Vector" d="M4.06494 20.8325H55.9354" stroke="#004AAD" stroke-width="3" stroke-linecap="round" stroke-linejoin="round"/>
<path id="Vector_2" d="M55.9354 39.165H4.06494" stroke="#004AAD" stroke-width="3" stroke-linecap="round" stroke-linejoin="round"/>
</g>
</g>
</svg>
