<svg width="48" height="48" viewBox="0 0 48 48" fill="none" xmlns="http://www.w3.org/2000/svg">
<g id="ic:baseline-whatsapp">
<path id="Vector" d="M38.1001 9.82011C36.2662 7.96832 34.0821 6.50004 31.6751 5.50083C29.2681 4.50162 26.6863 3.99147 24.0801 4.00011C13.1601 4.00011 4.2601 12.9001 4.2601 23.8201C4.2601 27.3201 5.1801 30.7201 6.9001 33.7201L4.1001 44.0001L14.6001 41.2401C17.5001 42.8201 20.7601 43.6601 24.0801 43.6601C35.0001 43.6601 43.9001 34.7601 43.9001 23.8401C43.9001 18.5401 41.8401 13.5601 38.1001 9.82011ZM24.0801 40.3001C21.1201 40.3001 18.2201 39.5001 15.6801 38.0001L15.0801 37.6401L8.8401 39.2801L10.5001 33.2001L10.1001 32.5801C8.45519 29.9542 7.58195 26.9187 7.5801 23.8201C7.5801 14.7401 14.9801 7.34011 24.0601 7.34011C28.4601 7.34011 32.6001 9.06011 35.7001 12.1801C37.2353 13.7078 38.4519 15.5252 39.2793 17.5268C40.1068 19.5283 40.5285 21.6743 40.5201 23.8401C40.5601 32.9201 33.1601 40.3001 24.0801 40.3001ZM33.1201 27.9801C32.6201 27.7401 30.1801 26.5401 29.7401 26.3601C29.2801 26.2001 28.9601 26.1201 28.6201 26.6001C28.2801 27.1001 27.3401 28.2201 27.0601 28.5401C26.7801 28.8801 26.4801 28.9201 25.9801 28.6601C25.4801 28.4201 23.8801 27.8801 22.0001 26.2001C20.5201 24.8801 19.5401 23.2601 19.2401 22.7601C18.9601 22.2601 19.2001 22.0001 19.4601 21.7401C19.6801 21.5201 19.9601 21.1601 20.2001 20.8801C20.4401 20.6001 20.5401 20.3801 20.7001 20.0601C20.8601 19.7201 20.7801 19.4401 20.6601 19.2001C20.5401 18.9601 19.5401 16.5201 19.1401 15.5201C18.7401 14.5601 18.3201 14.6801 18.0201 14.6601H17.0601C16.7201 14.6601 16.2001 14.7801 15.7401 15.2801C15.3001 15.7801 14.0201 16.9801 14.0201 19.4201C14.0201 21.8601 15.8001 24.2201 16.0401 24.5401C16.2801 24.8801 19.5401 29.8801 24.5001 32.0201C25.6801 32.5401 26.6001 32.8401 27.3201 33.0601C28.5001 33.4401 29.5801 33.3801 30.4401 33.2601C31.4001 33.1201 33.3801 32.0601 33.7801 30.9001C34.2001 29.7401 34.2001 28.7601 34.0601 28.5401C33.9201 28.3201 33.6201 28.2201 33.1201 27.9801Z" fill="white"/>
</g>
</svg>
