<svg width="771" height="474" viewBox="0 0 771 474" fill="none" xmlns="http://www.w3.org/2000/svg">
<g filter="url(#filter0_iiiii_801_173)">
<circle cx="394.708" cy="222.927" r="97.7085" fill="#F2F2F2"/>
</g>
<circle cx="394.708" cy="222.927" r="95.7085" stroke="white" stroke-width="4"/>
<g filter="url(#filter1_d_801_173)">
<circle cx="394.053" cy="223.583" r="73.4453" fill="white"/>
</g>
<g filter="url(#filter2_dd_801_173)">
<path d="M92 282.219L11 325.804L11 421.219" stroke="black"/>
</g>
<g filter="url(#filter3_dd_801_173)">
<path d="M171.268 331.992L95.0126 290.219L21 331.992L21 423.441L95.0126 465.214L171.268 423.441L171.268 331.992Z" fill="#F2F2F2"/>
</g>
<g filter="url(#filter4_dd_801_173)">
<path d="M183 327.219L264 283.634L264 188.219" stroke="black"/>
</g>
<g filter="url(#filter5_dd_801_173)">
<path d="M255.268 186.992L179.013 145.219L105 186.992L105 278.441L179.013 320.214L255.268 278.441L255.268 186.992Z" fill="#F2F2F2"/>
</g>
<g filter="url(#filter6_dd_801_173)">
<path d="M92.5 184.219L11 139.007L11 42.2188" stroke="black"/>
</g>
<g filter="url(#filter7_dd_801_173)">
<path d="M171.268 41.9919L95.0126 0.218751L21 41.9919L21 133.441L95.0126 175.214L171.268 133.441L171.268 41.9919Z" fill="#F2F2F2"/>
</g>
<path d="M237.321 232.219C237.321 233.692 238.515 234.885 239.987 234.885C241.46 234.885 242.654 233.692 242.654 232.219C242.654 230.746 241.46 229.552 239.987 229.552C238.515 229.552 237.321 230.746 237.321 232.219ZM291.321 232.219C291.321 233.692 292.515 234.885 293.987 234.885C295.46 234.885 296.654 233.692 296.654 232.219C296.654 230.746 295.46 229.552 293.987 229.552C292.515 229.552 291.321 230.746 291.321 232.219ZM239.987 232.719L293.987 232.719L293.987 231.719L239.987 231.719L239.987 232.719Z" fill="black"/>
<path d="M323.667 144.219C323.667 145.692 322.473 146.885 321 146.885C319.527 146.885 318.333 145.692 318.333 144.219C318.333 142.746 319.527 141.552 321 141.552C322.473 141.552 323.667 142.746 323.667 144.219ZM295.94 87.2188V86.7188H296.266L296.397 87.0175L295.94 87.2188ZM152.667 87.2188C152.667 88.6915 151.473 89.8854 150 89.8854C148.527 89.8854 147.333 88.6915 147.333 87.2188C147.333 85.746 148.527 84.5521 150 84.5521C151.473 84.5521 152.667 85.746 152.667 87.2188ZM320.542 144.42L295.482 87.42L296.397 87.0175L321.458 144.018L320.542 144.42ZM295.94 87.7188H150V86.7188H295.94V87.7188Z" fill="black"/>
<path d="M332.667 320.219C332.667 318.746 331.473 317.552 330 317.552C328.527 317.552 327.333 318.746 327.333 320.219C327.333 321.692 328.527 322.885 330 322.885C331.473 322.885 332.667 321.692 332.667 320.219ZM303.621 373.219V373.719H303.93L304.068 373.442L303.621 373.219ZM152.667 373.219C152.667 371.746 151.473 370.552 150 370.552C148.527 370.552 147.333 371.746 147.333 373.219C147.333 374.692 148.527 375.885 150 375.885C151.473 375.885 152.667 374.692 152.667 373.219ZM329.552 319.996L303.173 372.996L304.068 373.442L330.448 320.442L329.552 319.996ZM303.621 372.719H150V373.719H303.621V372.719Z" fill="black"/>
<circle cx="95.9971" cy="84.2159" r="28.9971" fill="#004AAD"/>
<g clip-path="url(#clip0_801_173)">
<path d="M97.606 68H97.6083V68.0005C99.1453 68.0008 100.631 68.2288 102.033 68.6536C102.257 68.7214 102.483 68.7962 102.711 68.8768C103.864 69.2858 104.954 69.8286 105.964 70.4865C106.035 70.5327 106.056 70.6294 106.011 70.7022C106.007 70.7095 106.001 70.7167 105.996 70.7231L104.879 72.191C104.83 72.2561 104.74 72.27 104.674 72.2244L104.671 72.2228C104.388 72.0431 104.094 71.873 103.793 71.7131C103.49 71.5524 103.182 71.4034 102.869 71.2675L102.868 71.2672C101.252 70.5642 99.4737 70.1755 97.6057 70.1755H97.6042V70.1749C95.7432 70.1749 93.9693 70.5623 92.3563 71.2619C92.0927 71.3761 91.8341 71.4984 91.5815 71.6279C90.2776 72.2965 89.0932 73.1767 88.0711 74.2247L88.0701 74.2258L88.063 74.2324C87.724 74.5806 87.4029 74.9472 87.1016 75.3306C86.7984 75.7164 86.5143 76.1198 86.2521 76.5385C84.9039 78.6904 84.1216 81.2514 84.1216 83.9999V84.0015H84.1211C84.1211 85.9094 84.499 87.7282 85.1813 89.3819C85.2927 89.6524 85.412 89.9172 85.5383 90.1762C86.1904 91.5128 87.049 92.7274 88.0714 93.7753L88.0724 93.7764L88.0781 93.7825C88.4177 94.1304 88.7758 94.4599 89.15 94.7691C89.5263 95.0801 89.9198 95.3711 90.3284 95.64C92.4273 97.0222 94.9255 97.8243 97.606 97.8243H97.6076V97.8251C99.469 97.8248 101.242 97.4377 102.855 96.7381C103.119 96.6239 103.378 96.5016 103.63 96.3721C104.934 95.7035 106.119 94.8233 107.141 93.7753L107.142 93.774L107.15 93.7662C107.488 93.4183 107.809 93.0523 108.11 92.6694C108.414 92.2836 108.697 91.8799 108.96 91.4613C110.308 89.3093 111.09 86.7483 111.09 84.0001V83.9975H111.091C111.091 82.8443 110.952 81.7224 110.692 80.6502C110.648 80.4715 110.603 80.2983 110.555 80.1306C110.305 79.2476 109.97 78.4007 109.562 77.6C109.527 77.5309 109.547 77.447 109.607 77.4022L111.05 76.2325C111.116 76.1791 111.211 76.1906 111.263 76.2581C111.268 76.264 111.272 76.2704 111.275 76.2768H111.276L111.277 76.2789L111.278 76.2821C111.45 76.602 111.613 76.9296 111.764 77.2636C111.916 77.5979 112.056 77.9378 112.185 78.2819C112.848 80.058 113.212 81.9862 113.212 84.0004V84.002H113.211C113.211 86.2103 112.774 88.315 111.984 90.2286C111.857 90.5391 111.718 90.8459 111.571 91.1478C110.815 92.6977 109.822 94.1032 108.641 95.314L108.64 95.3151L108.634 95.3204C108.24 95.7238 107.826 96.1054 107.392 96.4639C106.956 96.8241 106.501 97.1605 106.029 97.4716C103.599 99.0714 100.708 100 97.6057 100H97.6042V99.9997C95.4503 99.9995 93.3974 99.5514 91.531 98.7419C91.2281 98.6108 90.9289 98.4691 90.6341 98.3177C89.1227 97.5429 87.7516 96.5243 86.5706 95.314L86.5695 95.3127L86.5622 95.3049C86.1695 94.9018 85.7979 94.4772 85.449 94.0332C85.0979 93.5865 84.7695 93.1198 84.4664 92.6358C82.906 90.1442 82 87.18 82 84.0001V83.9983H82.0005C82.0008 81.79 82.4378 79.6855 83.2271 77.7717C83.3552 77.4612 83.4932 77.1547 83.6409 76.8522C84.3966 75.3025 85.3901 73.8971 86.5706 72.6863L86.5716 72.6852L86.5784 72.6791C86.9716 72.2762 87.3865 71.8946 87.8195 71.5366C88.2555 71.1767 88.7104 70.84 89.1828 70.5292C91.6133 68.9286 94.5044 68 97.606 68ZM106.236 72.3517L110.603 68.0734L110.894 70.9588L114 71.3569L109.323 76.0029L107.048 76.2031L97.9677 84.8617L97.131 84.123L105.732 74.9117L106.236 72.3517ZM97.606 78.9355H97.6099V78.9361C97.9036 78.9363 98.1896 78.9622 98.4648 79.0119C98.4969 79.0178 98.5422 79.0266 98.5995 79.0386H98.6003C98.8294 79.0866 99.0539 79.1515 99.2719 79.2316C99.351 79.2605 99.3922 79.3496 99.3638 79.4308C99.3583 79.4468 99.35 79.4612 99.3404 79.4741L99.3406 79.4743L98.1216 81.0774C98.0875 81.1225 98.0333 81.1425 97.9815 81.1356V81.1361L97.9745 81.135L97.9203 81.1286L97.9156 81.1278L97.8688 81.1227L97.8648 81.1222C97.7836 81.115 97.6974 81.111 97.606 81.111H97.6044V81.1102C97.2161 81.1105 96.8453 81.1916 96.5083 81.3379C96.4526 81.3622 96.3984 81.3879 96.3466 81.4143C96.0753 81.5534 95.8279 81.7374 95.6135 81.9571L95.6125 81.9582L95.6055 81.9646C95.5367 82.0356 95.4716 82.1106 95.4102 82.1888C95.3469 82.2692 95.2875 82.3539 95.2326 82.4414C94.9513 82.8905 94.7883 83.4258 94.7883 83.9999V84.0015H94.7875C94.7878 84.4001 94.8669 84.78 95.0096 85.1252C95.0333 85.1826 95.0583 85.2382 95.0841 85.291C95.2198 85.5695 95.3995 85.8229 95.6135 86.0424L95.6146 86.0437L95.6208 86.0504C95.6901 86.1209 95.7633 86.1881 95.8396 86.2509C95.918 86.3158 96.0005 86.3769 96.0859 86.4332C96.5242 86.7213 97.0464 86.8887 97.606 86.8887H97.6076V86.8893C97.9964 86.8893 98.3672 86.8081 98.7036 86.6618C98.7596 86.6375 98.8135 86.6119 98.8654 86.5854C99.137 86.4461 99.3841 86.2621 99.5982 86.0424L99.5995 86.041L99.6047 86.036C99.6427 85.9967 99.6797 85.9569 99.7138 85.9177C99.7479 85.8784 99.7836 85.8344 99.8201 85.7869C99.9966 85.5572 100.14 85.2999 100.242 85.023C100.254 84.9907 100.275 84.9645 100.301 84.9472L102.271 83.35C102.337 83.2966 102.432 83.3081 102.484 83.3756C102.503 83.3994 102.513 83.4269 102.516 83.4549H102.517L102.518 83.4669L102.518 83.4752L102.525 83.542V83.5438H102.525L102.531 83.6165V83.6178C102.54 83.746 102.545 83.8733 102.545 83.9999V84.0015H102.545C102.544 84.7002 102.406 85.3661 102.156 85.9716C102.116 86.0691 102.072 86.1663 102.025 86.2626C101.785 86.7536 101.471 87.1987 101.098 87.5811L101.097 87.5821L101.089 87.5893C100.966 87.7148 100.837 87.8342 100.702 87.9455C100.564 88.0592 100.42 88.166 100.271 88.264C99.5016 88.7702 98.587 89.0642 97.6057 89.0642H97.6042V89.0634C96.9227 89.0631 96.2732 88.9214 95.6828 88.6653C95.5878 88.6242 95.4927 88.5791 95.399 88.531C94.9201 88.2851 94.4859 87.9631 94.113 87.5808L94.112 87.5797L94.1034 87.5701C93.9815 87.4444 93.8659 87.3122 93.7576 87.1744C93.6464 87.0329 93.5424 86.8853 93.4466 86.7323C92.9529 85.9438 92.6661 85.0059 92.6661 84.0001V83.9983H92.6667C92.6669 83.2998 92.8055 82.6339 93.0549 82.0287C93.0953 81.9312 93.1391 81.834 93.1859 81.7376C93.4253 81.2474 93.7393 80.8026 94.1128 80.4197L94.113 80.4195L94.1128 80.4192L94.1138 80.4181C94.2375 80.2916 94.3695 80.1701 94.5091 80.0548C94.6471 79.9408 94.7911 79.8342 94.9404 79.736C95.7102 79.2295 96.6253 78.9355 97.606 78.9355ZM97.8646 81.1222C97.7846 81.1121 97.7263 81.0394 97.7313 80.9572L97.8646 81.1222ZM97.606 73.4226H97.6086V73.4232C98.5315 73.4234 99.4255 73.5479 100.275 73.7804C100.413 73.8183 100.551 73.8592 100.687 73.903C101.386 74.1267 102.054 74.4257 102.682 74.7902C102.755 74.8326 102.78 74.928 102.739 75.0027C102.735 75.0091 102.731 75.0158 102.727 75.0217L102.726 75.0225L101.595 76.5102C101.547 76.5721 101.463 76.5876 101.398 76.5494L101.395 76.5475C101.242 76.4656 101.082 76.3863 100.916 76.3115C100.749 76.236 100.582 76.1665 100.413 76.1035C99.5385 75.7762 98.5927 75.5976 97.6057 75.5976H97.6042V75.597C96.4732 75.597 95.3953 75.8328 94.4148 76.2578C94.2602 76.3251 94.1029 76.3996 93.944 76.4808L93.932 76.4864C93.1448 76.892 92.4292 77.4246 91.8107 78.0585L91.8096 78.0595L91.8036 78.0657C91.5987 78.2763 91.4042 78.499 91.2216 78.7313C91.0375 78.9657 90.8648 79.2111 90.7055 79.4655C89.8865 80.7732 89.4112 82.3298 89.4112 83.9999V84.0015H89.4107C89.4107 85.161 89.6406 86.2664 90.0552 87.2713C90.1229 87.4358 90.1956 87.5971 90.2721 87.7541C90.6682 88.566 91.1901 89.304 91.8115 89.941L91.8125 89.9421C92.0214 90.1565 92.2404 90.3583 92.4674 90.5458C92.6961 90.7345 92.9354 90.9115 93.1836 91.0749C94.4591 91.9149 95.9776 92.4019 97.6063 92.4019H97.6078V92.4024C98.7388 92.4024 99.8169 92.1669 100.797 91.7419C100.958 91.6722 101.115 91.598 101.268 91.5192C102.06 91.1131 102.78 90.5783 103.401 89.941L103.402 89.9399C103.611 89.7255 103.808 89.5013 103.991 89.2685C104.175 89.0338 104.348 88.7887 104.507 88.534C105.327 87.226 105.802 85.6694 105.802 83.9999H105.802V83.9959H105.802C105.802 83.4776 105.756 82.9693 105.668 82.4764C105.654 82.4027 105.639 82.3221 105.621 82.2364C105.536 81.8265 105.421 81.429 105.282 81.0466C105.257 80.978 105.282 80.9027 105.338 80.8632L106.813 79.6676C106.879 79.6142 106.974 79.6257 107.026 79.6933C107.034 79.7037 107.04 79.7141 107.045 79.7253L107.046 79.728L107.047 79.7301L107.047 79.7298C107.124 79.9085 107.198 80.0943 107.269 80.2868C107.338 80.4769 107.402 80.6678 107.46 80.859C107.761 81.8519 107.923 82.9068 107.923 83.9996V84.0012H107.922C107.922 85.4609 107.633 86.8522 107.111 88.1169C107.027 88.3217 106.935 88.5246 106.838 88.7249C106.338 89.7496 105.682 90.6787 104.901 91.4786L104.9 91.4797L104.894 91.4853C104.634 91.751 104.361 92.003 104.075 92.2393C103.787 92.4775 103.486 92.6999 103.174 92.9052C101.567 93.963 99.6557 94.5768 97.6057 94.5768H97.6042C96.1805 94.5766 94.8234 94.2805 93.5896 93.7454C93.3898 93.6586 93.1919 93.5649 92.9966 93.4648C91.9974 92.9522 91.0909 92.2793 90.3104 91.4792L90.3094 91.4781L90.3021 91.4701C90.0435 91.2044 89.7984 90.9246 89.5688 90.632C89.3365 90.3367 89.1195 90.0281 88.919 89.7082C87.8872 88.0611 87.2885 86.1014 87.2885 83.9999V83.9983H87.2891C87.2893 82.5386 87.5784 81.1473 88.1003 79.8823C88.1846 79.6775 88.276 79.4746 88.3737 79.2743C88.8732 78.2504 89.5297 77.3216 90.3102 76.5211L90.3104 76.5208L90.3102 76.5206L90.3112 76.5195L90.318 76.5131C90.5773 76.2474 90.8508 75.9959 91.1362 75.7602C91.4245 75.522 91.7253 75.2996 92.0372 75.0943C93.6445 74.0365 95.5563 73.4226 97.606 73.4226Z" fill="white"/>
</g>
<circle cx="179.997" cy="232.216" r="28.9971" fill="#004AAD"/>
<g clip-path="url(#clip1_801_173)">
<path d="M178.111 217C181.997 217 185.521 218.567 188.073 221.087C190.626 223.617 192.196 227.1 192.196 230.961C192.196 233.778 191.349 236.411 189.902 238.603L196 245.189L191.793 249L185.913 242.588C183.681 244.063 180.994 244.923 178.111 244.923C174.225 244.923 170.701 243.356 168.148 240.836C165.65 238.36 164.093 234.971 164.027 231.208C163.991 231.073 163.991 230.932 164.026 230.798C164.07 227.011 165.642 223.582 168.148 221.087C170.701 218.557 174.215 217 178.111 217ZM165.794 228.756C165.959 228.597 166.125 228.442 166.292 228.291C169.544 225.358 173.406 223.79 177.386 223.711C181.358 223.633 185.432 225.038 189.116 228.049C189.589 228.436 190.055 228.847 190.512 229.284C190.135 226.532 188.844 224.064 186.957 222.193C184.694 219.95 181.563 218.557 178.111 218.557C174.659 218.557 171.528 219.95 169.264 222.193C167.499 223.943 166.256 226.217 165.794 228.756ZM190.449 233.045C189.846 233.706 189.202 234.305 188.525 234.841C185.578 237.172 181.998 238.32 178.372 238.337C174.757 238.353 171.099 237.244 167.982 235.061C167.225 234.532 166.501 233.94 165.816 233.285C166.294 235.777 167.527 238.007 169.265 239.73C171.528 241.973 174.659 243.366 178.111 243.366C181.563 243.366 184.694 241.973 186.957 239.73C188.751 237.952 190.005 235.634 190.449 233.045ZM177.938 229.657C178.072 229.657 178.202 229.676 178.325 229.712C178.222 229.825 178.159 229.974 178.159 230.139C178.159 230.49 178.446 230.774 178.8 230.774C178.973 230.774 179.131 230.705 179.246 230.595C179.291 230.729 179.315 230.873 179.315 231.023C179.315 231.777 178.698 232.388 177.937 232.388C177.176 232.388 176.56 231.777 176.56 231.023C176.56 230.268 177.177 229.657 177.938 229.657ZM177.938 226.142C179.297 226.142 180.528 226.688 181.419 227.572C182.311 228.455 182.862 229.675 182.862 231.023C182.862 232.37 182.31 233.59 181.419 234.473C180.528 235.357 179.297 235.903 177.938 235.903C176.578 235.903 175.347 235.357 174.456 234.473C173.565 233.59 173.013 232.37 173.013 231.023C173.013 229.675 173.565 228.455 174.456 227.572C175.347 226.688 176.578 226.142 177.938 226.142ZM180.308 228.673C179.702 228.072 178.863 227.7 177.938 227.7C177.012 227.7 176.173 228.072 175.567 228.673C174.961 229.274 174.586 230.105 174.586 231.023C174.586 231.94 174.961 232.771 175.567 233.372C176.174 233.973 177.012 234.345 177.938 234.345C178.863 234.345 179.702 233.973 180.308 233.372C180.914 232.771 181.289 231.94 181.289 231.023C181.289 230.105 180.914 229.274 180.308 228.673ZM167.377 229.472C166.85 229.948 166.342 230.459 165.857 231.006C166.78 232.067 167.808 232.985 168.908 233.755C171.752 235.746 175.082 236.758 178.365 236.743C181.636 236.728 184.865 235.693 187.522 233.591C188.429 232.873 189.27 232.03 190.024 231.06C189.392 230.407 188.748 229.814 188.094 229.28C184.719 226.522 181.013 225.234 177.418 225.305C173.831 225.376 170.337 226.802 167.377 229.472Z" fill="white"/>
</g>
<circle cx="97.9971" cy="373.216" r="28.9971" fill="#004AAD"/>
<g clip-path="url(#clip2_801_173)">
<path fill-rule="evenodd" clip-rule="evenodd" d="M97.9832 385.451C98.7271 385.451 99.3297 385.918 99.3297 386.493C99.3297 387.069 98.7271 387.535 97.9832 387.535C97.2392 387.535 96.6367 387.069 96.6367 386.493C96.6367 385.918 97.2392 385.451 97.9832 385.451ZM89.2847 374.787C89.2645 374.756 89.2409 374.727 89.214 374.699C89.0962 374.55 88.9783 374.402 88.8605 374.233C88.7427 374.05 88.6249 373.879 88.5205 373.72C88.4162 373.548 88.3152 373.366 88.2276 373.183C88.1536 373.024 88.0661 372.842 87.9785 372.626C87.8473 372.319 87.477 372.126 87.0797 372.126H84.5315C84.4439 372.126 84.3564 372.116 84.2958 372.092C84.2386 372.069 84.1645 372.035 84.1208 371.991C84.0635 371.944 84.0164 371.899 83.9895 371.855C83.9592 371.811 83.9457 371.741 83.9457 371.673V369.188C83.9457 369.121 83.9592 369.063 83.976 369.017C84.0063 368.97 84.0501 368.915 84.1241 368.858C84.1814 368.813 84.242 368.777 84.2992 368.767C84.3598 368.743 84.4473 368.733 84.5348 368.733H86.8744C87.3457 368.733 87.7294 368.47 87.817 368.129C87.8742 367.936 87.9348 367.754 87.992 367.592C88.0661 367.41 88.1401 367.238 88.2276 367.056C88.3152 366.884 88.4027 366.701 88.5205 366.532C88.6249 366.35 88.7427 366.191 88.8437 366.032C89.049 365.735 88.975 365.394 88.6821 365.168L86.8576 363.743C86.8441 363.733 86.8441 363.733 86.8273 363.733C86.77 363.688 86.7229 363.642 86.696 363.597C86.6657 363.553 86.6657 363.506 86.6657 363.438C86.6657 363.371 86.6792 363.313 86.7094 363.267C86.7397 363.209 86.7835 363.165 86.8576 363.108L89.1096 361.376C89.1837 361.319 89.2409 361.285 89.315 361.261C89.3756 361.238 89.4462 361.227 89.5371 361.227C89.6247 361.227 89.6987 361.238 89.7593 361.261C89.8199 361.285 89.8906 361.319 89.9512 361.363H89.9647L91.6276 362.649C91.9508 362.899 92.4658 362.933 92.8361 362.73C93.028 362.639 93.2199 362.548 93.4387 362.457C93.6743 362.366 93.8965 362.274 94.1018 362.194C94.324 362.113 94.5596 362.035 94.7953 361.967C95.0006 361.91 95.2363 361.842 95.5157 361.774C95.9129 361.673 96.162 361.386 96.162 361.079V359.105C96.162 359.037 96.1755 358.97 96.2058 358.923C96.2361 358.879 96.2798 358.832 96.3236 358.787C96.3842 358.743 96.4414 358.707 96.4986 358.696C96.5559 358.673 96.6468 358.662 96.7343 358.662H98.9964H99.0234H99.2556C99.3432 358.662 99.4307 358.673 99.4913 358.696C99.5485 358.707 99.6091 358.743 99.6663 358.787C99.7101 358.832 99.7538 358.879 99.7841 358.923C99.8144 358.967 99.8279 359.037 99.8279 359.105V361.076C99.8279 361.384 100.077 361.668 100.474 361.772C100.754 361.839 100.989 361.907 101.195 361.964C101.43 362.032 101.666 362.113 101.888 362.191C102.093 362.272 102.316 362.363 102.551 362.454C102.773 362.545 102.962 362.636 103.154 362.727C103.521 362.933 104.036 362.899 104.362 362.647L106.025 361.36H106.039C106.096 361.316 106.17 361.28 106.231 361.259C106.288 361.235 106.362 361.225 106.453 361.225C106.54 361.225 106.614 361.235 106.675 361.259C106.749 361.282 106.806 361.316 106.88 361.373L109.132 363.105C109.206 363.162 109.25 363.207 109.28 363.264C109.311 363.308 109.324 363.366 109.324 363.436C109.324 363.504 109.324 363.55 109.294 363.595C109.264 363.642 109.22 363.686 109.163 363.73C109.149 363.73 109.149 363.73 109.132 363.741L107.308 365.165C107.015 365.392 106.941 365.735 107.146 366.03C107.251 366.188 107.368 366.347 107.469 366.53C107.587 366.701 107.675 366.884 107.762 367.053C107.85 367.235 107.924 367.407 107.998 367.589C108.055 367.748 108.116 367.931 108.173 368.126C108.26 368.467 108.644 368.73 109.116 368.73H111.455C111.543 368.73 111.63 368.741 111.691 368.764C111.748 368.774 111.809 368.808 111.866 368.855C111.94 368.912 111.984 368.97 112.014 369.014C112.027 369.058 112.044 369.116 112.044 369.186V371.67C112.044 371.738 112.031 371.806 112 371.852C111.97 371.899 111.926 371.944 111.869 371.988C111.825 372.032 111.751 372.069 111.694 372.089C111.633 372.113 111.546 372.123 111.458 372.123H108.91C108.513 372.123 108.146 372.316 108.011 372.623C107.924 372.839 107.836 373.022 107.762 373.181C107.675 373.363 107.57 373.545 107.469 373.717C107.365 373.876 107.247 374.048 107.129 374.23C107.012 374.402 106.894 374.55 106.776 374.696C106.749 374.725 106.725 374.754 106.705 374.785H108.934C109.028 374.639 109.122 374.483 109.22 374.321C109.338 374.116 109.456 373.912 109.56 373.707C109.573 373.673 109.604 373.626 109.62 373.592H111.506C111.846 373.592 112.169 373.548 112.462 373.457C112.754 373.366 113.037 373.217 113.273 373.035C113.509 372.852 113.7 372.647 113.818 372.407C113.936 372.168 113.993 371.928 113.993 371.668V369.186C113.993 368.936 113.919 368.686 113.801 368.457C113.684 368.23 113.509 368.024 113.273 367.842L113.259 367.832C113.024 367.649 112.758 367.501 112.465 367.41C112.172 367.308 111.846 367.261 111.509 367.261H109.903C109.903 367.227 109.89 367.204 109.873 367.17C109.785 366.954 109.698 366.738 109.594 366.532C109.476 366.316 109.371 366.11 109.254 365.918C109.24 365.894 109.21 365.86 109.196 365.826L110.523 364.79C110.772 364.618 110.95 364.415 111.081 364.186C111.199 363.959 111.273 363.707 111.273 363.446C111.273 363.183 111.216 362.946 111.081 362.707C110.95 362.48 110.772 362.274 110.536 362.092H110.523L108.271 360.36C108.035 360.178 107.769 360.043 107.459 359.938C107.15 359.837 106.84 359.79 106.503 359.79C106.18 359.79 105.857 359.834 105.547 359.938C105.238 360.03 104.972 360.178 104.736 360.36L103.588 361.238L103.501 361.204C103.265 361.102 102.999 361.011 102.72 360.907C102.454 360.816 102.191 360.725 101.925 360.644C101.881 360.634 101.821 360.61 101.777 360.597V359.139C101.777 358.876 101.72 358.626 101.602 358.399C101.484 358.17 101.292 357.954 101.057 357.772C100.807 357.589 100.542 357.441 100.245 357.35C99.939 357.259 99.6293 357.214 99.2893 357.214H98.1279H97.8687H96.7073C96.3673 357.214 96.061 357.259 95.7513 357.35C95.4584 357.441 95.1925 357.589 94.94 357.772C94.7044 357.954 94.5125 358.17 94.3947 358.399C94.2769 358.626 94.2197 358.879 94.2197 359.139V360.597C94.1759 360.608 94.1153 360.631 94.0715 360.644C93.8056 360.725 93.543 360.816 93.2771 360.907C92.9977 361.009 92.7317 361.1 92.4961 361.204L92.4086 361.238L91.2607 360.36C91.025 360.178 90.7591 360.03 90.4494 359.938C90.1397 359.837 89.8165 359.79 89.4934 359.79C89.1534 359.79 88.847 359.834 88.5373 359.938C88.2276 360.04 87.9617 360.178 87.7261 360.36L85.474 362.092H85.4606C85.2249 362.274 85.0499 362.48 84.9152 362.707C84.7839 362.944 84.7233 363.183 84.7233 363.444C84.7233 363.707 84.7974 363.957 84.9152 364.183C85.0465 364.41 85.2249 364.616 85.474 364.787L86.8003 365.824C86.7869 365.858 86.7566 365.892 86.7431 365.915C86.6253 366.108 86.5209 366.313 86.4031 366.53C86.2988 366.735 86.2112 366.951 86.1237 367.168C86.1102 367.201 86.0934 367.225 86.0934 367.259H84.4877C84.1477 367.259 83.8245 367.306 83.5317 367.407C83.2388 367.498 82.9729 367.647 82.7372 367.829L82.7238 367.839C82.4881 368.022 82.3131 368.227 82.1952 368.454C82.0741 368.683 82 368.936 82 369.186V371.668C82 371.931 82.0572 372.168 82.175 372.407C82.2929 372.647 82.4847 372.852 82.7204 373.035C82.956 373.217 83.2354 373.366 83.5317 373.457C83.8245 373.548 84.1511 373.592 84.4877 373.592H86.3728C86.3863 373.626 86.4166 373.673 86.4334 373.707C86.5378 373.912 86.6556 374.116 86.7734 374.321C86.8744 374.485 86.9653 374.642 87.0595 374.785H89.2847V374.787ZM92.9304 372.483C92.651 372.491 92.4355 372.535 92.2908 372.613C92.2066 372.657 92.146 372.712 92.109 372.777C92.0652 372.85 92.045 372.938 92.0484 373.04C92.0585 373.337 92.2605 373.727 92.651 374.178L92.6577 374.183L93.9234 375.743C94.4317 376.368 94.9636 377.006 95.6268 377.472C96.263 377.923 97.0339 378.227 98.0572 378.23C99.1614 378.233 99.9726 377.915 100.629 377.441C101.312 376.946 101.851 376.269 102.38 375.592L103.807 373.774C104.073 373.306 104.17 372.991 104.11 372.806C104.073 372.696 103.918 372.642 103.649 372.631C103.591 372.629 103.534 372.629 103.474 372.629C103.41 372.631 103.342 372.634 103.275 372.639C103.238 372.642 103.201 372.639 103.164 372.634C103.036 372.639 102.905 372.631 102.773 372.618L103.262 370.944C99.636 371.386 96.9228 369.303 93.0886 370.527L93.3646 372.498C93.2131 372.501 93.065 372.498 92.9304 372.483ZM104.137 372.131C104.487 372.214 104.712 372.386 104.807 372.665C104.908 372.975 104.797 373.41 104.46 374.004C104.453 374.014 104.446 374.024 104.44 374.035L102.996 375.873C102.44 376.582 101.875 377.293 101.121 377.839L101.084 377.866C101.154 377.946 101.235 378.035 101.316 378.129C101.565 378.412 101.851 378.738 102.117 378.991C103.686 379.746 107.136 379.949 108.486 380.53C111.92 382.011 110.667 385.61 110.916 388.199C110.842 388.811 110.395 389.162 109.513 389.214H108.56L109.607 383.076C109.688 382.597 109.25 382.207 108.708 382.207H101.346C101.528 381.204 101.659 380.246 101.723 379.522C101.38 379.228 101.013 378.811 100.696 378.451C100.626 378.373 100.558 378.295 100.494 378.225C99.8313 378.569 99.0436 378.782 98.0572 378.78C96.9564 378.777 96.098 378.485 95.3878 378.04C95.1891 378.501 94.8963 379.136 94.6135 379.441C94.5899 379.467 94.5596 379.491 94.526 379.509C94.6472 380.256 94.8155 381.214 95.0141 382.209H87.4736C86.935 382.209 86.494 382.6 86.5748 383.079L87.6217 389.217H86.6657C85.7837 389.165 85.336 388.813 85.2619 388.201C85.3057 385.459 83.9592 382.142 87.6924 380.532C89.0591 379.941 92.5836 379.741 94.122 378.962C94.3577 378.621 94.6169 378.006 94.7751 377.642C94.7919 377.6 94.765 377.668 94.7919 377.608C94.2264 377.139 93.7652 376.584 93.3209 376.037L92.0551 374.48C91.5906 373.946 91.3516 373.457 91.3347 373.056C91.328 372.868 91.3684 372.696 91.4593 372.545C91.5535 372.389 91.6983 372.256 91.8935 372.155C91.9844 372.108 92.0888 372.066 92.1999 372.032C92.1191 371.186 92.0854 370.121 92.1393 369.23C92.1662 369.019 92.2201 368.806 92.2941 368.595C92.7587 367.313 94.1826 366.389 95.8085 365.954C96.5963 365.743 96.2933 365.241 97.0911 365.274C98.983 365.355 101.898 366.298 103.019 367.298C104.595 368.696 104.187 370.42 104.137 372.131ZM95.4786 380.701C94.839 380.139 94.7852 379.55 95.4786 378.928C96.2798 379.084 97.0137 379.353 97.6903 379.714C97.8351 379.665 98.0067 379.644 98.1717 379.655C98.8752 379.269 99.7707 379.113 100.555 378.824C101.491 379.53 101.39 380.178 100.471 380.78C99.9558 380.688 99.4677 380.548 98.9998 380.363C98.9863 380.457 98.956 380.558 98.8988 380.668L99.1378 382.207H97.2291L97.4681 380.668C97.32 380.472 97.2628 380.306 97.2661 380.168C96.7107 380.425 96.1081 380.592 95.4786 380.701Z" fill="white"/>
</g>
<g filter="url(#filter8_dd_801_173)">
<path d="M685 282.219L766 325.804L766 421.219" stroke="black"/>
</g>
<g filter="url(#filter9_dd_801_173)">
<path d="M605.732 331.992L681.988 290.219L756 331.992L756 423.441L681.988 465.214L605.732 423.441L605.732 331.992Z" fill="#F2F2F2"/>
</g>
<g filter="url(#filter10_dd_801_173)">
<path d="M594 327.219L513 283.634L513 188.219" stroke="black"/>
</g>
<g filter="url(#filter11_dd_801_173)">
<path d="M521.732 186.992L597.987 145.219L672 186.992L672 278.441L597.987 320.214L521.732 278.441L521.732 186.992Z" fill="#F2F2F2"/>
</g>
<g filter="url(#filter12_dd_801_173)">
<path d="M684.5 184.219L766 139.007L766 42.2188" stroke="black"/>
</g>
<g filter="url(#filter13_dd_801_173)">
<path d="M605.732 41.9919L681.988 0.218751L756 41.9919L756 133.441L681.988 175.214L605.732 133.441L605.732 41.9919Z" fill="#F2F2F2"/>
</g>
<path d="M489.333 232.219C489.333 233.692 490.527 234.885 492 234.885C493.473 234.885 494.667 233.692 494.667 232.219C494.667 230.746 493.473 229.552 492 229.552C490.527 229.552 489.333 230.746 489.333 232.219ZM543.333 232.219C543.333 233.692 544.527 234.885 546 234.885C547.473 234.885 548.667 233.692 548.667 232.219C548.667 230.746 547.473 229.552 546 229.552C544.527 229.552 543.333 230.746 543.333 232.219ZM492 232.719L546 232.719L546 231.719L492 231.719L492 232.719Z" fill="black"/>
<path d="M449.333 132.219C449.333 133.692 450.527 134.885 452 134.885C453.473 134.885 454.667 133.692 454.667 132.219C454.667 130.746 453.473 129.552 452 129.552C450.527 129.552 449.333 130.746 449.333 132.219ZM477.06 87.2188V86.7188H476.766L476.624 86.9755L477.06 87.2188ZM620.333 87.2188C620.333 88.6915 621.527 89.8854 623 89.8854C624.473 89.8854 625.667 88.6915 625.667 87.2188C625.667 85.746 624.473 84.5521 623 84.5521C621.527 84.5521 620.333 85.746 620.333 87.2188ZM452.437 132.462L477.497 87.462L476.624 86.9755L451.563 131.975L452.437 132.462ZM477.06 87.7188H623V86.7188H477.06V87.7188Z" fill="black"/>
<path d="M449.333 320.219C449.333 318.746 450.527 317.552 452 317.552C453.473 317.552 454.667 318.746 454.667 320.219C454.667 321.692 453.473 322.885 452 322.885C450.527 322.885 449.333 321.692 449.333 320.219ZM477.06 373.219V373.719H476.744L476.608 373.432L477.06 373.219ZM620.333 373.219C620.333 371.746 621.527 370.552 623 370.552C624.473 370.552 625.667 371.746 625.667 373.219C625.667 374.692 624.473 375.885 623 375.885C621.527 375.885 620.333 374.692 620.333 373.219ZM452.452 320.005L477.512 373.005L476.608 373.432L451.548 320.432L452.452 320.005ZM477.06 372.719H623V373.719H477.06V372.719Z" fill="black"/>
<circle cx="680.997" cy="373.216" r="28.9971" fill="#004AAD"/>
<g clip-path="url(#clip3_801_173)">
<path d="M694.029 368.525C693.823 368.026 694.057 367.451 694.555 367.244C695.049 367.037 695.62 367.273 695.826 367.774C696.211 368.703 696.508 369.671 696.706 370.674C696.901 371.653 697.003 372.665 697.003 373.702C697.003 377.627 695.544 381.209 693.143 383.93C690.716 386.68 687.326 388.549 683.503 388.997C682.969 389.058 682.487 388.672 682.424 388.134C682.365 387.596 682.747 387.111 683.281 387.048C686.612 386.657 689.57 385.027 691.69 382.626C693.784 380.254 695.055 377.129 695.055 373.702C695.055 372.797 694.966 371.912 694.797 371.057C694.62 370.173 694.362 369.328 694.029 368.525ZM687.214 370.005C687.208 370.036 687.195 370.068 687.18 370.097C687.159 370.167 687.143 370.249 687.138 370.341C687.138 370.348 687.138 370.359 687.138 370.367L686.734 376.323C686.797 376.515 686.88 376.662 686.984 376.756C687.081 376.846 687.203 376.893 687.357 376.898C687.367 376.898 687.38 376.898 687.391 376.898L689.086 377.016C689.089 377.016 689.094 377.016 689.099 377.016C689.362 377.048 689.557 376.99 689.695 376.851C689.852 376.693 689.953 376.428 690.008 376.069V376.064L690.888 370.726C690.888 370.718 690.888 370.708 690.891 370.7C690.948 370.398 690.893 370.194 690.753 370.068C690.589 369.923 690.31 369.847 689.94 369.821C689.932 369.821 689.924 369.821 689.914 369.821L688.005 369.69V369.687C687.714 369.666 687.495 369.711 687.357 369.821C687.294 369.868 687.25 369.929 687.214 370.005ZM684.898 376.465C684.859 376.423 684.836 376.371 684.826 376.313L682.438 371.185C682.169 370.655 681.898 370.624 681.622 370.763C681.427 370.863 681.219 371.031 681.008 371.199C680.88 371.301 680.755 371.401 680.648 371.479L680.154 371.836L680.151 371.839C679.792 372.091 679.398 372.214 679.031 372.219C678.789 372.225 678.56 372.177 678.354 372.08C678.143 371.983 677.961 371.839 677.831 371.647C677.69 371.443 677.604 371.188 677.599 370.897C677.599 370.897 677.664 370.716 677.677 370.703L679.286 369.023C678.974 368.997 678.693 369.021 678.427 369.084C678.021 369.181 677.635 369.372 677.214 369.624C677.164 369.658 677.104 369.674 677.042 369.671L675.328 369.553L675.107 372.815L674.971 374.901L675.969 374.969C676.065 374.975 676.154 375.032 676.195 375.124L677.286 377.386C677.445 377.717 677.586 378 677.773 378.194C677.948 378.378 678.188 378.499 678.565 378.535C678.706 378.549 678.844 378.535 678.974 378.491C679.055 378.465 679.135 378.425 679.216 378.373L678.516 376.806C678.453 376.667 678.516 376.504 678.654 376.444C678.792 376.381 678.953 376.444 679.013 376.583L679.773 378.289C680.086 378.478 680.378 378.549 680.646 378.512C680.891 378.475 681.128 378.346 681.359 378.123L680.237 376.048C680.167 375.917 680.214 375.749 680.346 375.675C680.477 375.604 680.643 375.652 680.716 375.785L681.898 377.971C682.125 378.084 682.346 378.121 682.563 378.076C682.768 378.034 682.982 377.916 683.198 377.719L682.154 375.36C682.091 375.221 682.154 375.056 682.292 374.996C682.43 374.933 682.594 374.996 682.654 375.137L683.737 377.578C683.893 377.683 684.078 377.719 684.258 377.704C684.417 377.688 684.573 377.63 684.703 377.541C684.828 377.454 684.932 377.336 684.984 377.2C685.044 377.05 685.052 376.872 684.984 376.672L684.898 376.465ZM686.266 376.633L685.539 376.583C685.617 376.88 685.594 377.153 685.5 377.391C685.404 377.635 685.232 377.837 685.021 377.984C684.815 378.126 684.57 378.218 684.315 378.241C684.068 378.265 683.815 378.226 683.583 378.11C683.289 378.381 682.984 378.543 682.677 378.609C682.367 378.672 682.06 378.632 681.755 378.501C681.438 378.811 681.096 378.997 680.729 379.05C680.357 379.105 679.971 379.021 679.57 378.798C679.435 378.89 679.294 378.96 679.148 379.01C678.943 379.081 678.732 379.105 678.513 379.081C677.99 379.029 677.648 378.85 677.385 378.577C677.133 378.318 676.974 377.997 676.794 377.625L675.773 375.507L674.875 375.444C674.805 375.704 674.698 375.757 674.552 375.924C674.224 376.294 673.94 376.489 673.435 376.46C672.701 376.418 671.398 376.515 670.977 375.953C670.763 375.667 670.635 375.221 670.612 374.573C670.612 374.565 670.612 374.557 670.609 374.549L670.549 369.464C670.505 368.913 670.622 368.533 670.857 368.286C671.094 368.034 671.435 367.937 671.841 367.947C671.854 367.947 671.865 367.947 671.875 367.947L673.948 368.092V368.094C674.339 368.115 674.672 368.207 674.917 368.391C675.115 368.538 675.247 368.737 675.307 369L676.997 369.115C677.443 368.855 677.854 368.659 678.302 368.548C678.742 368.443 679.208 368.428 679.755 368.533L680.372 367.892C680.383 367.879 680.393 367.869 680.409 367.858C680.581 367.714 680.771 367.601 680.971 367.512C681.182 367.417 681.406 367.352 681.638 367.307C682.005 367.239 682.388 367.228 682.758 367.26C683.177 367.297 683.581 367.389 683.927 367.504C684.589 367.73 685.143 368.181 685.68 368.619C685.799 368.716 685.919 368.816 686.063 368.924C686.068 368.926 686.073 368.931 686.078 368.934L686.859 369.543C686.904 369.488 686.956 369.438 687.013 369.393C687.263 369.196 687.604 369.115 688.036 369.144V369.141L689.945 369.273C689.953 369.273 689.961 369.273 689.966 369.275C690.456 369.307 690.846 369.425 691.107 369.658C691.396 369.918 691.516 370.291 691.419 370.805C691.419 370.81 691.417 370.813 691.417 370.818L690.536 376.15C690.466 376.628 690.313 376.995 690.07 377.239C689.813 377.502 689.471 377.614 689.036 377.564L687.341 377.446H687.339C687.044 377.441 686.799 377.344 686.602 377.16C686.466 377.029 686.352 376.851 686.266 376.633ZM672.635 373.597C672.839 373.61 672.992 373.789 672.979 373.996C672.966 374.2 672.789 374.358 672.583 374.342C672.38 374.329 672.227 374.151 672.24 373.946C672.253 373.741 672.43 373.581 672.635 373.597ZM688.708 374.704C688.911 374.717 689.065 374.896 689.052 375.101C689.039 375.305 688.862 375.463 688.656 375.447C688.453 375.434 688.297 375.255 688.313 375.051C688.326 374.846 688.503 374.691 688.708 374.704ZM674.607 372.141L674.794 369.401C674.805 369.257 674.714 369.076 674.599 368.989C674.448 368.876 674.214 368.819 673.922 368.803L671.841 368.661C671.651 368.648 671.391 368.685 671.253 368.829C671.125 368.963 671.065 369.207 671.096 369.593C671.096 369.601 671.096 369.608 671.096 369.616L671.156 374.379V374.387C671.174 374.914 671.266 375.258 671.411 375.455C671.542 375.631 673.758 375.99 674.141 375.554C674.292 375.381 674.38 375.103 674.414 374.736H674.411L674.599 372.135L674.607 372.141ZM692.852 363.369L686.544 364.507L687.852 362.639C685.859 360.498 683.643 359.729 680.995 360.524C683.802 357.018 687.534 357.013 690.453 358.908L691.784 357L692.852 363.369ZM675.201 380.991L673.893 382.86C675.885 385.001 678.102 385.77 680.75 384.975C677.94 388.478 674.208 388.483 671.289 386.589L669.956 388.496L668.891 382.13L675.201 380.991ZM668.258 378.396C668.492 378.884 668.289 379.47 667.805 379.703C667.32 379.939 666.74 379.735 666.508 379.246C666.018 378.223 665.638 377.137 665.383 375.998C665.133 374.888 665 373.744 665 372.576C665 368.732 666.401 365.213 668.719 362.513C671.065 359.776 674.352 357.882 678.073 357.336C678.604 357.26 679.096 357.632 679.172 358.168C679.247 358.703 678.878 359.199 678.346 359.275C675.102 359.75 672.234 361.403 670.185 363.791C668.169 366.147 666.948 369.215 666.948 372.576C666.948 373.613 667.063 374.615 667.276 375.57C667.5 376.554 667.831 377.502 668.258 378.396Z" fill="white"/>
</g>
<circle cx="596.997" cy="223.216" r="28.9971" fill="#004AAD"/>
<g clip-path="url(#clip4_801_173)">
<path d="M592.759 209.854C592.908 209.815 593.063 209.794 593.224 209.794C593.445 209.794 593.655 209.833 593.85 209.904C594.051 209.977 594.232 210.083 594.384 210.214C594.536 210.346 594.66 210.503 594.743 210.68C594.824 210.849 594.869 211.036 594.869 211.229V211.898H597.882C598.611 210.943 599.774 209.844 600.572 209.091C600.828 208.849 601.049 208.641 601.198 208.492V208.49C601.201 208.484 601.207 208.479 601.213 208.477C601.511 208.138 601.833 207.917 602.149 207.792C602.513 207.646 602.875 207.628 603.191 207.703C603.317 207.734 603.438 207.779 603.547 207.839C603.659 207.898 603.762 207.971 603.854 208.057C603.946 208.141 604.027 208.237 604.096 208.344C604.162 208.448 604.216 208.562 604.254 208.682C604.343 208.966 604.348 209.286 604.242 209.62C604.15 209.911 603.972 210.211 603.688 210.497L603.679 210.505C603.639 210.547 603.564 210.62 603.467 210.724L603.329 210.867H603.389C603.45 210.867 603.51 210.87 603.57 210.875C603.625 210.88 603.682 210.885 603.737 210.893H610.037C610.238 210.893 610.433 210.935 610.611 211.008C610.792 211.083 610.958 211.195 611.093 211.336C611.228 211.474 611.34 211.638 611.415 211.82C611.487 211.995 611.527 212.187 611.527 212.385C611.527 212.534 611.504 212.68 611.461 212.82C611.441 212.888 611.415 212.953 611.386 213.016H611.444C611.648 213.016 611.84 213.057 612.018 213.13C612.199 213.206 612.366 213.32 612.5 213.458C612.635 213.596 612.745 213.76 612.819 213.943C612.891 214.117 612.931 214.31 612.931 214.508C612.931 214.706 612.891 214.898 612.819 215.073C612.745 215.255 612.635 215.419 612.5 215.557C612.363 215.695 612.199 215.807 612.018 215.885C611.84 215.961 611.648 216 611.444 216H611.392C611.424 216.065 611.45 216.133 611.472 216.201C611.518 216.344 611.541 216.492 611.541 216.643V216.646C611.541 216.844 611.501 217.036 611.429 217.211C611.355 217.393 611.246 217.557 611.111 217.695C610.973 217.833 610.809 217.948 610.628 218.023C610.45 218.099 610.258 218.138 610.054 218.138H609.925C609.953 218.198 609.976 218.263 609.994 218.326C610.034 218.458 610.054 218.602 610.054 218.745V218.75C610.054 218.948 610.014 219.135 609.942 219.31C609.867 219.492 609.758 219.656 609.623 219.794C609.485 219.932 609.322 220.044 609.141 220.122C608.963 220.198 608.77 220.237 608.567 220.237H608.331V224.589C609.385 225.297 610.597 226.427 611.429 227.203C611.694 227.451 611.92 227.661 612.09 227.81L612.096 227.812C612.101 227.818 612.104 227.82 612.11 227.826C612.48 228.115 612.722 228.424 612.859 228.729C613.017 229.081 613.037 229.427 612.954 229.732C612.92 229.852 612.871 229.969 612.808 230.076C612.742 230.185 612.661 230.284 612.569 230.372C612.475 230.464 612.368 230.542 612.254 230.604C612.139 230.667 612.012 230.719 611.877 230.758C611.564 230.844 611.205 230.849 610.838 230.747C610.513 230.656 610.18 230.482 609.862 230.203C609.816 230.164 609.729 230.089 609.62 229.995L609.465 229.862V229.927C609.465 229.984 609.462 230.042 609.457 230.102C609.451 230.154 609.445 230.206 609.437 230.263V236.193C609.437 236.385 609.391 236.573 609.31 236.742C609.227 236.919 609.103 237.076 608.951 237.208C608.799 237.341 608.618 237.448 608.417 237.518C608.222 237.589 608.012 237.628 607.791 237.628C607.625 237.628 607.464 237.604 607.312 237.565C607.237 237.544 607.165 237.521 607.096 237.492V237.557C607.096 237.75 607.05 237.937 606.97 238.107C606.887 238.284 606.763 238.44 606.611 238.573C606.459 238.706 606.278 238.812 606.077 238.883C605.882 238.953 605.672 238.992 605.451 238.992C605.23 238.992 605.02 238.953 604.825 238.883C604.624 238.81 604.443 238.703 604.291 238.573C604.139 238.44 604.015 238.284 603.932 238.107C603.852 237.937 603.806 237.75 603.806 237.557V237.5C603.74 237.529 603.668 237.552 603.599 237.573L603.587 237.578C603.429 237.622 603.263 237.643 603.096 237.643H603.093C602.872 237.643 602.663 237.604 602.467 237.534C602.266 237.461 602.086 237.354 601.933 237.224C601.781 237.091 601.658 236.935 601.574 236.758C601.494 236.589 601.448 236.401 601.448 236.208V236.076C601.382 236.102 601.313 236.125 601.241 236.143C601.092 236.182 600.937 236.203 600.776 236.203C600.555 236.203 600.345 236.164 600.15 236.094C599.949 236.021 599.768 235.914 599.616 235.784C599.464 235.651 599.34 235.495 599.257 235.318C599.177 235.148 599.131 234.961 599.131 234.768V234.099H596.121C595.392 235.055 594.229 236.154 593.431 236.906C593.172 237.148 592.954 237.357 592.805 237.505L592.788 237.523C592.489 237.859 592.17 238.078 591.854 238.206C591.49 238.352 591.128 238.37 590.812 238.294C590.686 238.263 590.565 238.219 590.456 238.159C590.344 238.099 590.241 238.026 590.149 237.94C590.06 237.859 589.982 237.766 589.916 237.661L589.91 237.651C589.844 237.547 589.793 237.432 589.752 237.312C589.663 237.029 589.658 236.708 589.764 236.375C589.856 236.083 590.034 235.784 590.318 235.497L590.327 235.49C590.367 235.448 590.442 235.375 590.539 235.271L590.677 235.128H590.617C590.556 235.128 590.496 235.125 590.436 235.12C590.381 235.115 590.324 235.109 590.269 235.102H583.895C583.694 235.102 583.498 235.06 583.32 234.987C583.139 234.911 582.973 234.797 582.838 234.659C582.703 234.521 582.591 234.357 582.519 234.174C582.447 234 582.407 233.807 582.407 233.609C582.407 233.461 582.43 233.315 582.473 233.174C582.493 233.107 582.519 233.042 582.548 232.979H582.49C582.287 232.979 582.094 232.937 581.916 232.865C581.735 232.789 581.569 232.674 581.434 232.536C581.299 232.398 581.19 232.234 581.115 232.052C581.04 231.88 581 231.687 581 231.49C581 231.292 581.04 231.099 581.112 230.924C581.187 230.742 581.296 230.578 581.431 230.44C581.569 230.302 581.732 230.19 581.913 230.112C582.091 230.036 582.284 229.997 582.488 229.997H582.539C582.508 229.932 582.482 229.865 582.459 229.797C582.413 229.654 582.39 229.505 582.39 229.354V229.352C582.39 229.154 582.43 228.961 582.502 228.786C582.577 228.604 582.686 228.44 582.821 228.302C582.958 228.164 583.122 228.049 583.303 227.974C583.481 227.898 583.673 227.859 583.877 227.859H584.007C583.981 227.799 583.958 227.74 583.938 227.677L583.935 227.672C583.895 227.539 583.874 227.396 583.874 227.253V227.247C583.874 227.049 583.915 226.862 583.986 226.687C584.061 226.505 584.17 226.341 584.305 226.203C584.443 226.065 584.607 225.951 584.788 225.875C584.966 225.799 585.158 225.76 585.362 225.76H585.669V221.409C584.615 220.701 583.404 219.57 582.571 218.794C582.304 218.544 582.077 218.333 581.908 218.185L581.893 218.172C581.523 217.883 581.279 217.573 581.141 217.268C580.983 216.917 580.963 216.57 581.046 216.266C581.081 216.146 581.129 216.029 581.193 215.922C581.259 215.812 581.339 215.714 581.431 215.625C581.526 215.534 581.632 215.456 581.747 215.393C581.862 215.331 581.988 215.279 582.123 215.24C582.436 215.154 582.795 215.148 583.162 215.25C583.487 215.341 583.82 215.516 584.139 215.794C584.185 215.833 584.271 215.909 584.38 216.003L584.535 216.135V216.07C584.535 216.013 584.538 215.956 584.544 215.896C584.549 215.844 584.555 215.792 584.564 215.734V209.802C584.564 209.609 584.61 209.422 584.69 209.253C584.773 209.076 584.897 208.919 585.049 208.786C585.201 208.654 585.382 208.547 585.583 208.477C585.778 208.406 585.988 208.367 586.209 208.367C586.376 208.367 586.536 208.391 586.689 208.43C586.763 208.451 586.835 208.474 586.904 208.503V208.435C586.904 208.242 586.95 208.055 587.03 207.885C587.114 207.708 587.237 207.552 587.389 207.419C587.541 207.286 587.722 207.18 587.923 207.109C588.119 207.039 588.331 207 588.552 207C588.773 207 588.983 207.039 589.178 207.109C589.379 207.182 589.56 207.289 589.712 207.419C589.864 207.552 589.988 207.708 590.071 207.885C590.152 208.055 590.198 208.242 590.198 208.435V208.492C590.269 208.464 590.341 208.437 590.416 208.417C590.574 208.372 590.74 208.349 590.907 208.349H590.91C591.131 208.349 591.34 208.388 591.536 208.458C591.737 208.531 591.918 208.638 592.07 208.768C592.222 208.901 592.345 209.057 592.429 209.234C592.509 209.404 592.555 209.591 592.555 209.784V209.917C592.618 209.896 592.687 209.872 592.759 209.854ZM586.783 221.781V225.76H590.261H590.264C590.287 225.76 590.31 225.763 590.332 225.766C590.344 225.768 590.355 225.768 590.364 225.771C590.399 225.768 590.436 225.766 590.473 225.763C590.522 225.76 590.571 225.758 590.614 225.758H592.541V221.456C592.541 220.784 592.564 220.771 592.785 220.643C592.877 220.591 593.02 220.508 593.244 220.242C593.454 219.997 593.617 219.721 593.732 219.424C593.841 219.138 593.899 218.831 593.899 218.513V216.068C593.899 216.047 593.899 216.029 593.896 216.008V211.232C593.896 211.156 593.879 211.083 593.85 211.018L593.847 211.013C593.813 210.943 593.764 210.878 593.701 210.823C593.64 210.771 593.569 210.727 593.488 210.698L593.483 210.695C593.405 210.667 593.316 210.651 593.224 210.651C593.132 210.651 593.046 210.667 592.966 210.695C592.882 210.724 592.808 210.768 592.747 210.823C592.684 210.878 592.635 210.94 592.601 211.01C592.569 211.078 592.552 211.151 592.552 211.229V213.781V213.794C592.552 213.867 592.486 213.927 592.406 213.927H591.725C591.645 213.927 591.579 213.867 591.579 213.794V209.789C591.579 209.711 591.561 209.638 591.53 209.57C591.495 209.5 591.447 209.435 591.383 209.383C591.32 209.328 591.249 209.284 591.165 209.255C591.088 209.227 590.999 209.211 590.907 209.211C590.815 209.211 590.729 209.227 590.648 209.255C590.565 209.284 590.49 209.328 590.43 209.383C590.367 209.437 590.318 209.5 590.284 209.57C590.252 209.638 590.235 209.711 590.235 209.789V213.794C590.235 213.867 590.169 213.927 590.088 213.927H589.368C589.287 213.927 589.221 213.867 589.221 213.794V208.437C589.221 208.362 589.204 208.289 589.175 208.224L589.172 208.219C589.138 208.148 589.089 208.083 589.026 208.031C588.963 207.977 588.888 207.932 588.808 207.904C588.73 207.875 588.641 207.859 588.549 207.859C588.46 207.859 588.374 207.875 588.299 207.901H588.294C588.21 207.93 588.136 207.974 588.075 208.029C588.012 208.083 587.964 208.146 587.929 208.216C587.897 208.284 587.88 208.357 587.88 208.435V213.794C587.88 213.867 587.814 213.927 587.734 213.927H587.03C586.95 213.927 586.884 213.867 586.884 213.794V209.802C586.884 209.724 586.867 209.651 586.835 209.583C586.801 209.513 586.749 209.448 586.689 209.396C586.625 209.341 586.554 209.297 586.47 209.268C586.393 209.24 586.304 209.224 586.212 209.224C586.12 209.224 586.034 209.24 585.953 209.268C585.873 209.297 585.801 209.339 585.741 209.391L585.735 209.396C585.672 209.451 585.623 209.513 585.589 209.586C585.557 209.654 585.54 209.727 585.54 209.805C585.54 210.773 585.534 211.859 585.531 212.943C585.526 213.898 585.523 214.852 585.523 216.07L585.442 217.247C585.439 217.294 585.408 217.339 585.359 217.359L585.101 217.469C585.078 217.479 585.055 217.487 585.026 217.487C584.98 217.487 584.934 217.482 584.888 217.469C584.842 217.456 584.799 217.44 584.762 217.417C584.676 217.372 584.567 217.302 584.452 217.219C584.331 217.13 584.208 217.034 584.087 216.937C583.831 216.729 583.564 216.497 583.464 216.409C583.274 216.245 583.088 216.141 582.915 216.083C582.732 216.026 582.562 216.021 582.422 216.06C582.373 216.073 582.324 216.094 582.278 216.12C582.232 216.146 582.192 216.174 582.154 216.211C582.117 216.245 582.086 216.286 582.06 216.328C582.034 216.372 582.014 216.419 581.999 216.469C581.956 216.622 581.974 216.802 582.071 216.995C582.16 217.172 582.312 217.354 582.545 217.536L582.556 217.544L582.582 217.565L582.6 217.581C582.694 217.664 582.826 217.784 582.993 217.935C583.763 218.633 585.204 219.937 586.312 220.672C586.324 220.68 586.335 220.687 586.347 220.698C586.424 220.779 586.49 220.865 586.551 220.956C586.611 221.047 586.66 221.143 586.7 221.242C586.732 221.328 586.757 221.414 586.772 221.505C586.786 221.591 586.792 221.682 586.789 221.779L586.783 221.781ZM593.649 221.135V225.792C594.051 225.846 594.433 225.961 594.786 226.128C595.177 226.312 595.533 226.565 595.84 226.865H599.188C599.257 226.51 599.381 226.169 599.556 225.854C599.76 225.484 600.03 225.151 600.354 224.862V220.208C599.952 220.154 599.57 220.039 599.217 219.872C598.824 219.687 598.47 219.435 598.163 219.135H594.812C594.743 219.49 594.62 219.831 594.444 220.146C594.243 220.51 593.971 220.846 593.649 221.135ZM599.131 229.932V227.872H596.162C595.461 227.872 595.45 227.852 595.315 227.648C595.26 227.565 595.177 227.437 594.904 227.232C594.651 227.042 594.37 226.893 594.065 226.792C593.773 226.693 593.457 226.641 593.132 226.641H590.614C590.594 226.641 590.574 226.641 590.551 226.643H585.368C585.29 226.643 585.218 226.659 585.149 226.687C585.078 226.719 585.014 226.763 584.96 226.818C584.905 226.875 584.859 226.943 584.828 227.016C584.799 227.089 584.782 227.167 584.782 227.253C584.782 227.336 584.799 227.417 584.828 227.49C584.859 227.565 584.905 227.633 584.96 227.69C585.014 227.745 585.078 227.789 585.149 227.82C585.215 227.849 585.29 227.865 585.368 227.865H588.259H588.274C588.354 227.865 588.42 227.924 588.42 227.997V228.615C588.42 228.687 588.354 228.747 588.274 228.747H583.88C583.803 228.747 583.731 228.763 583.662 228.792C583.59 228.823 583.524 228.867 583.47 228.922C583.415 228.979 583.369 229.047 583.338 229.12C583.309 229.193 583.292 229.271 583.292 229.357C583.292 229.44 583.309 229.521 583.338 229.594C583.369 229.669 583.415 229.737 583.47 229.794C583.524 229.849 583.587 229.893 583.662 229.924C583.728 229.953 583.803 229.969 583.88 229.969H588.271C588.351 229.969 588.417 230.029 588.417 230.102V230.755C588.417 230.828 588.351 230.888 588.271 230.888H582.488C582.41 230.888 582.338 230.904 582.269 230.932C582.198 230.964 582.131 231.008 582.08 231.062C582.025 231.12 581.979 231.187 581.948 231.263C581.919 231.336 581.902 231.414 581.902 231.5C581.902 231.586 581.919 231.664 581.948 231.737C581.976 231.81 582.02 231.875 582.074 231.93L582.08 231.935C582.134 231.99 582.2 232.034 582.272 232.065C582.338 232.094 582.413 232.109 582.49 232.109H588.274C588.354 232.109 588.42 232.169 588.42 232.242V232.88C588.42 232.953 588.354 233.013 588.274 233.013H583.895C583.817 233.013 583.745 233.029 583.676 233.057C583.607 233.086 583.544 233.128 583.493 233.18L583.487 233.187C583.432 233.245 583.386 233.312 583.355 233.385C583.326 233.458 583.309 233.536 583.309 233.622C583.309 233.706 583.326 233.786 583.355 233.859C583.386 233.935 583.429 234.003 583.487 234.06C583.539 234.115 583.602 234.156 583.671 234.187L583.676 234.19C583.742 234.219 583.817 234.234 583.895 234.234C584.888 234.234 586.074 234.24 587.26 234.242C588.305 234.247 589.35 234.25 590.614 234.25L591.826 234.323C591.877 234.326 591.926 234.354 591.949 234.401L592.064 234.635C592.075 234.654 592.081 234.674 592.081 234.698C592.081 234.74 592.075 234.781 592.064 234.82C592.053 234.857 592.035 234.893 592.012 234.93C591.966 235.01 591.892 235.109 591.806 235.216C591.722 235.315 591.622 235.43 591.513 235.547C591.3 235.776 591.073 236.008 590.979 236.104L590.97 236.115C590.801 236.286 590.691 236.456 590.637 236.612C590.577 236.781 590.574 236.935 590.614 237.065C590.628 237.112 590.648 237.156 590.674 237.195C590.7 237.237 590.732 237.273 590.769 237.307C590.803 237.341 590.844 237.367 590.89 237.391C590.933 237.414 590.981 237.432 591.03 237.443C591.182 237.479 591.366 237.464 591.559 237.38C591.737 237.302 591.926 237.164 592.11 236.956L592.119 236.943L592.142 236.919L592.162 236.898C592.259 236.802 592.377 236.687 592.521 236.547C593.238 235.849 594.582 234.542 595.34 233.536C595.349 233.526 595.358 233.516 595.369 233.505C595.452 233.437 595.541 233.372 595.636 233.318C595.731 233.263 595.829 233.216 595.935 233.182C596.024 233.154 596.113 233.13 596.21 233.117C596.302 233.104 596.397 233.099 596.495 233.102H599.137V230.284V230.281C599.137 230.26 599.139 230.24 599.142 230.219C599.145 230.208 599.148 230.195 599.148 230.185C599.145 230.151 599.139 230.115 599.139 230.076C599.131 230.018 599.131 229.974 599.131 229.932ZM594.872 216.068V218.128H597.841C598.542 218.128 598.554 218.148 598.689 218.352C598.743 218.435 598.826 218.562 599.099 218.768C599.352 218.958 599.633 219.107 599.938 219.208C600.231 219.307 600.546 219.359 600.871 219.359H603.389C603.409 219.359 603.429 219.359 603.452 219.357H608.564C608.641 219.357 608.713 219.341 608.782 219.312C608.854 219.281 608.917 219.237 608.974 219.182C609.029 219.125 609.075 219.057 609.106 218.984C609.135 218.911 609.152 218.833 609.152 218.747C609.152 218.664 609.135 218.583 609.106 218.51C609.075 218.435 609.029 218.367 608.974 218.31C608.92 218.255 608.857 218.211 608.785 218.18C608.719 218.151 608.644 218.135 608.567 218.135H605.747H605.732C605.652 218.135 605.586 218.076 605.586 218.003V217.385C605.586 217.312 605.652 217.253 605.732 217.253H610.054C610.131 217.253 610.203 217.237 610.272 217.208C610.341 217.18 610.404 217.138 610.456 217.086L610.462 217.078C610.516 217.021 610.562 216.953 610.594 216.88C610.623 216.807 610.64 216.729 610.64 216.643C610.64 216.56 610.623 216.479 610.594 216.406C610.562 216.331 610.516 216.263 610.462 216.206C610.407 216.151 610.344 216.107 610.269 216.076C610.203 216.047 610.129 216.031 610.051 216.031H605.729C605.649 216.031 605.583 215.971 605.583 215.898V215.245C605.583 215.172 605.649 215.112 605.729 215.112H611.444C611.521 215.112 611.593 215.096 611.662 215.068C611.734 215.036 611.8 214.992 611.854 214.937C611.909 214.88 611.955 214.812 611.986 214.74C612.015 214.667 612.032 214.589 612.032 214.503C612.032 214.419 612.015 214.339 611.986 214.266C611.958 214.193 611.915 214.128 611.86 214.073L611.854 214.068C611.8 214.013 611.734 213.969 611.665 213.937C611.599 213.909 611.524 213.893 611.447 213.893H605.732C605.652 213.893 605.586 213.833 605.586 213.76V213.122C605.586 213.049 605.652 212.99 605.732 212.99H610.04C610.117 212.99 610.189 212.974 610.258 212.945C610.33 212.914 610.396 212.87 610.45 212.815C610.505 212.758 610.551 212.69 610.582 212.617C610.611 212.544 610.628 212.466 610.628 212.38C610.628 212.297 610.611 212.216 610.582 212.143C610.551 212.068 610.508 212 610.45 211.943C610.396 211.888 610.33 211.844 610.258 211.812C610.192 211.784 610.117 211.768 610.04 211.768C609.046 211.768 607.877 211.763 606.712 211.76C605.684 211.758 604.656 211.753 603.395 211.753L602.177 211.687C602.126 211.685 602.077 211.656 602.054 211.609L601.939 211.375C601.928 211.357 601.922 211.336 601.922 211.312C601.922 211.271 601.928 211.229 601.939 211.19C601.951 211.154 601.968 211.117 601.991 211.081C602.037 211 602.111 210.901 602.198 210.794C602.281 210.695 602.381 210.581 602.49 210.464C602.7 210.237 602.927 210.008 603.025 209.909L603.036 209.896C603.205 209.724 603.315 209.555 603.369 209.398C603.429 209.229 603.432 209.076 603.392 208.945C603.378 208.898 603.358 208.854 603.332 208.815C603.306 208.773 603.274 208.737 603.237 208.703C603.203 208.669 603.162 208.643 603.116 208.62C603.073 208.594 603.025 208.576 602.976 208.562C602.824 208.526 602.64 208.542 602.447 208.625C602.269 208.703 602.08 208.841 601.896 209.049L601.887 209.062L601.864 209.086L601.839 209.109C601.741 209.206 601.623 209.32 601.48 209.461C600.762 210.159 599.418 211.466 598.66 212.471C598.651 212.482 598.643 212.492 598.631 212.503C598.548 212.57 598.459 212.633 598.364 212.69C598.269 212.745 598.172 212.792 598.065 212.826C597.976 212.854 597.887 212.878 597.79 212.891C597.698 212.904 597.603 212.909 597.506 212.906H594.864V215.724V215.727C594.864 215.747 594.861 215.768 594.858 215.789C594.855 215.799 594.852 215.812 594.852 215.823C594.855 215.857 594.861 215.893 594.861 215.932C594.869 215.982 594.872 216.026 594.872 216.068ZM603.386 220.242H601.46V224.547C601.46 225.219 601.437 225.232 601.215 225.359C601.124 225.411 600.98 225.495 600.756 225.76C600.546 226.005 600.383 226.281 600.268 226.578C600.159 226.865 600.101 227.172 600.101 227.49V229.935C600.101 229.956 600.101 229.974 600.104 229.995V234.771C600.104 234.846 600.121 234.917 600.15 234.982L600.153 234.987C600.187 235.057 600.236 235.122 600.299 235.177C600.363 235.232 600.437 235.276 600.518 235.305C600.595 235.333 600.684 235.349 600.776 235.349C600.868 235.349 600.954 235.333 601.035 235.305C601.118 235.276 601.193 235.232 601.253 235.177C601.316 235.122 601.365 235.06 601.399 234.99C601.431 234.922 601.448 234.849 601.448 234.771V232.219V232.206C601.448 232.133 601.514 232.073 601.595 232.073H602.275C602.355 232.073 602.422 232.133 602.422 232.206V236.211C602.422 236.289 602.439 236.362 602.47 236.43C602.502 236.497 602.551 236.56 602.608 236.612L602.617 236.617C602.677 236.669 602.749 236.714 602.829 236.742L602.835 236.745C602.913 236.773 603.002 236.789 603.093 236.789C603.185 236.789 603.271 236.773 603.352 236.745C603.435 236.716 603.507 236.672 603.57 236.617C603.633 236.562 603.682 236.5 603.717 236.43C603.748 236.362 603.765 236.289 603.765 236.211V232.206C603.765 232.133 603.831 232.073 603.912 232.073H604.633C604.713 232.073 604.779 232.133 604.779 232.206V237.565C604.779 237.643 604.796 237.716 604.828 237.784C604.862 237.854 604.911 237.919 604.974 237.971C605.037 238.026 605.112 238.07 605.193 238.099C605.27 238.128 605.359 238.143 605.451 238.143C605.54 238.143 605.626 238.128 605.701 238.102L605.707 238.099C605.79 238.07 605.864 238.026 605.925 237.971C605.988 237.917 606.037 237.854 606.071 237.784C606.103 237.716 606.12 237.643 606.12 237.565V232.206C606.12 232.133 606.186 232.073 606.266 232.073H606.97C607.05 232.073 607.116 232.133 607.116 232.206V236.198C607.116 236.276 607.134 236.349 607.165 236.417C607.2 236.487 607.249 236.552 607.312 236.607C607.375 236.661 607.447 236.706 607.53 236.734C607.607 236.763 607.696 236.779 607.788 236.779C607.88 236.779 607.966 236.763 608.047 236.734C608.13 236.706 608.202 236.661 608.265 236.607C608.328 236.552 608.377 236.49 608.411 236.417C608.443 236.349 608.46 236.276 608.46 236.198C608.46 235.229 608.466 234.143 608.469 233.06C608.475 232.104 608.478 231.151 608.478 229.932L608.558 228.755C608.561 228.708 608.592 228.664 608.641 228.643L608.9 228.534C608.923 228.523 608.946 228.516 608.974 228.516C609.02 228.516 609.066 228.521 609.112 228.534C609.158 228.547 609.201 228.562 609.238 228.586C609.325 228.63 609.434 228.701 609.549 228.784C609.669 228.872 609.793 228.969 609.913 229.065C610.169 229.273 610.436 229.505 610.536 229.594C610.726 229.758 610.913 229.862 611.085 229.919C611.269 229.979 611.438 229.982 611.579 229.943C611.628 229.93 611.676 229.909 611.722 229.883C611.768 229.857 611.808 229.826 611.846 229.792C611.883 229.758 611.915 229.716 611.941 229.674C611.966 229.63 611.986 229.583 612.001 229.534C612.044 229.38 612.027 229.201 611.929 229.008C611.84 228.831 611.688 228.648 611.455 228.466L611.444 228.458L611.418 228.437L611.401 228.422C611.306 228.339 611.174 228.219 611.01 228.07C610.241 227.372 608.799 226.068 607.691 225.331C607.679 225.323 607.668 225.315 607.656 225.305C607.582 225.224 607.513 225.138 607.452 225.047C607.392 224.956 607.343 224.859 607.303 224.76C607.271 224.674 607.246 224.589 607.231 224.497C607.217 224.411 607.211 224.32 607.214 224.224V220.237H603.737H603.734C603.711 220.237 603.688 220.234 603.665 220.232C603.653 220.229 603.642 220.229 603.633 220.227C603.599 220.229 603.564 220.232 603.527 220.234H603.524C603.478 220.24 603.432 220.242 603.386 220.242Z" fill="white"/>
</g>
<circle cx="680.997" cy="80.2159" r="28.9971" fill="#004AAD"/>
<path d="M694.466 85.685C694.152 85.6818 693.84 85.7422 693.55 85.8628L687.657 88.037C687.67 87.8914 687.67 87.7449 687.657 87.5994C687.657 86.9212 687.387 86.2708 686.908 85.7913C686.428 85.3118 685.778 85.0424 685.1 85.0424H680.997C680.887 85.043 680.779 85.0148 680.683 84.9603L677.593 83.2374C676.714 82.7204 675.713 82.4478 674.694 82.4478C673.674 82.4478 672.673 82.7204 671.795 83.2374C671.371 83.4748 670.908 83.6324 670.427 83.7023H664.958C664.787 83.7023 664.624 83.77 664.503 83.8906C664.383 84.0111 664.315 84.1746 664.315 84.345V93.3424C664.315 93.4268 664.332 93.5104 664.364 93.5884C664.396 93.6664 664.444 93.7372 664.503 93.7969C664.563 93.8566 664.634 93.9039 664.712 93.9362C664.79 93.9685 664.874 93.9851 664.958 93.9851H670.427C670.512 93.9851 670.595 93.9685 670.673 93.9362C670.751 93.9039 670.822 93.8566 670.882 93.7969C670.942 93.7372 670.989 93.6664 671.021 93.5884C671.053 93.5104 671.07 93.4268 671.07 93.3424V92.7271C672.754 92.829 674.404 93.2417 675.938 93.9441C677.816 94.8174 679.857 95.2834 681.927 95.3115C683.714 95.2536 685.473 94.8544 687.11 94.1355L687.971 93.7937L691.143 92.4263L691.854 92.1802L692.497 91.9477C693.03 91.7426 693.427 91.5375 693.865 91.3187L695.505 90.553C696.03 90.3044 696.455 89.8847 696.709 89.3628C696.964 88.8409 697.033 88.2479 696.906 87.6814C696.778 87.1149 696.462 86.6086 696.009 86.2458C695.555 85.883 694.992 85.6852 694.411 85.685H694.466Z" fill="#BCBCBC" stroke="#000305" stroke-width="0.185855" stroke-miterlimit="10"/>
<path d="M692.441 68.7303C692.104 67.6906 691.449 66.783 690.568 66.1354C689.687 65.4878 688.626 65.1327 687.533 65.1204C686.68 65.133 685.839 65.3301 685.07 65.6984C684.3 66.0666 683.62 66.5971 683.075 67.2535C682.526 66.5982 681.843 66.0685 681.071 65.7005C680.3 65.3324 679.458 65.1346 678.603 65.1204C677.508 65.1316 676.444 65.4878 675.563 66.1383C674.682 66.7888 674.028 67.7006 673.695 68.7439C673.052 70.9044 673.353 75.4578 682.719 81.6248C682.825 81.6934 682.948 81.7313 683.075 81.7342C683.197 81.7295 683.315 81.6916 683.417 81.6248C692.783 75.4578 693.098 70.9044 692.441 68.7303Z" fill="#3F3F3F" stroke="#000305" stroke-width="0.185855" stroke-miterlimit="10"/>
<path d="M680.505 74.0629H682.461V75.9773C682.461 76.1477 682.529 76.3112 682.649 76.4317C682.77 76.5523 682.933 76.62 683.103 76.62C683.274 76.62 683.437 76.5523 683.558 76.4317C683.679 76.3112 683.746 76.1477 683.746 75.9773V74.0629H685.661C685.813 74.0405 685.953 73.9639 686.053 73.8472C686.154 73.7305 686.21 73.5813 686.21 73.4271C686.21 73.2729 686.154 73.1237 686.053 73.007C685.953 72.8903 685.813 72.8137 685.661 72.7913H683.746V70.8769C683.746 70.7065 683.679 70.543 683.558 70.4225C683.437 70.3019 683.274 70.2343 683.103 70.2343C682.933 70.2343 682.77 70.3019 682.649 70.4225C682.529 70.543 682.461 70.7065 682.461 70.8769V72.8323H680.546C680.394 72.8547 680.254 72.9313 680.154 73.048C680.053 73.1648 679.997 73.3139 679.997 73.4681C679.997 73.6224 680.053 73.7715 680.154 73.8882C680.254 74.0049 680.394 74.0815 680.546 74.104L680.505 74.0629Z" fill="white" stroke="#00070C" stroke-width="0.185855" stroke-miterlimit="10"/>
<path d="M687.766 81.8036H688.724V82.7608C688.722 82.8032 688.728 82.8456 688.743 82.8854C688.758 82.9251 688.781 82.9614 688.811 82.9921C688.84 83.0227 688.875 83.0471 688.914 83.0638C688.954 83.0804 688.996 83.089 689.038 83.089C689.081 83.089 689.124 83.0805 689.164 83.064C689.203 83.0475 689.24 83.0233 689.27 82.9929C689.301 82.9624 689.325 82.9262 689.341 82.8864C689.358 82.8466 689.366 82.8039 689.366 82.7608V81.8036H690.323C690.407 81.8036 690.487 81.7705 690.546 81.7115C690.605 81.6525 690.638 81.5725 690.638 81.4891C690.638 81.4057 690.605 81.3257 690.546 81.2667C690.487 81.2078 690.407 81.1746 690.323 81.1746H689.366V80.2174C689.366 80.1304 689.332 80.047 689.27 79.9854C689.209 79.9239 689.125 79.8893 689.038 79.8893C688.996 79.8892 688.954 79.8978 688.914 79.9144C688.875 79.9311 688.84 79.9555 688.811 79.9862C688.781 80.0168 688.758 80.0532 688.743 80.0929C688.728 80.1327 688.722 80.175 688.724 80.2174V81.1746H687.766C687.683 81.1746 687.603 81.2078 687.544 81.2667C687.485 81.3257 687.452 81.4057 687.452 81.4891C687.452 81.5725 687.485 81.6525 687.544 81.7115C687.603 81.7705 687.683 81.8036 687.766 81.8036Z" fill="#7D7E7E" stroke="black" stroke-width="0.172106" stroke-miterlimit="10"/>
<path d="M669.841 67.4305H670.798V68.3876C670.798 68.4747 670.833 68.5582 670.894 68.6197C670.956 68.6812 671.039 68.7158 671.126 68.7158C671.169 68.7159 671.211 68.7073 671.25 68.6906C671.289 68.674 671.324 68.6496 671.354 68.6189C671.383 68.5883 671.406 68.552 671.421 68.5122C671.436 68.4725 671.443 68.4301 671.441 68.3876V67.4305H672.398C672.481 67.4305 672.561 67.3973 672.62 67.3384C672.679 67.2794 672.712 67.1994 672.712 67.116C672.714 67.0735 672.708 67.0312 672.693 66.9914C672.678 66.9517 672.655 66.9154 672.625 66.8847C672.596 66.854 672.561 66.8296 672.522 66.813C672.483 66.7963 672.44 66.7878 672.398 66.7878H671.441V65.8306C671.441 65.7472 671.408 65.6672 671.349 65.6082C671.29 65.5493 671.21 65.5161 671.126 65.5161C671.042 65.516 670.96 65.5487 670.899 65.6074C670.838 65.666 670.802 65.746 670.798 65.8306V66.7878H669.841C669.798 66.7878 669.756 66.7963 669.717 66.813C669.678 66.8296 669.643 66.854 669.614 66.8847C669.584 66.9154 669.561 66.9517 669.546 66.9914C669.531 67.0312 669.525 67.0735 669.526 67.116C669.526 67.1994 669.56 67.2794 669.619 67.3384C669.678 67.3973 669.758 67.4305 669.841 67.4305Z" fill="#7D7E7E" stroke="black" stroke-width="0.172106" stroke-miterlimit="10"/>
<path d="M690.502 79.956H692.033V81.4465C692.033 81.5783 692.084 81.705 692.176 81.7995C692.268 81.894 692.393 81.9488 692.525 81.9524C692.658 81.9489 692.785 81.8945 692.879 81.8004C692.973 81.7062 693.028 81.5796 693.031 81.4465V79.956H694.522C694.652 79.956 694.777 79.9041 694.87 79.8118C694.962 79.7195 695.014 79.5943 695.014 79.4638C695.014 79.3332 694.962 79.208 694.87 79.1157C694.777 79.0234 694.652 78.9715 694.522 78.9715H692.99V77.481C692.987 77.3479 692.932 77.2213 692.838 77.1271C692.744 77.033 692.617 76.9786 692.484 76.9751C692.352 76.9787 692.227 77.0335 692.135 77.128C692.043 77.2225 691.992 77.3492 691.992 77.481V78.9715H690.502C690.371 78.9715 690.246 79.0234 690.153 79.1157C690.061 79.208 690.009 79.3332 690.009 79.4638C690.009 79.5943 690.061 79.7195 690.153 79.8118C690.246 79.9041 690.371 79.956 690.502 79.956Z" fill="#BCBCBC" stroke="#000305" stroke-width="0.185855" stroke-miterlimit="10"/>
<path d="M666.652 79.9559H668.143V81.4464C668.143 81.5769 668.195 81.7021 668.287 81.7944C668.379 81.8868 668.505 81.9386 668.635 81.9386C668.766 81.9386 668.891 81.8868 668.983 81.7944C669.075 81.7021 669.127 81.5769 669.127 81.4464V79.9559H670.618C670.748 79.9559 670.874 79.904 670.966 79.8117C671.058 79.7194 671.11 79.5942 671.11 79.4636C671.11 79.3331 671.058 79.2079 670.966 79.1156C670.874 79.0232 670.748 78.9714 670.618 78.9714H669.127V77.4809C669.127 77.3504 669.075 77.2252 668.983 77.1328C668.891 77.0405 668.766 76.9886 668.635 76.9886C668.505 76.9886 668.379 77.0405 668.287 77.1328C668.195 77.2252 668.143 77.3504 668.143 77.4809V78.9714H666.652C666.522 78.9714 666.397 79.0232 666.304 79.1156C666.212 79.2079 666.16 79.3331 666.16 79.4636C666.16 79.5942 666.212 79.7194 666.304 79.8117C666.397 79.904 666.522 79.9559 666.652 79.9559Z" fill="#BCBCBC" stroke="#000305" stroke-width="0.185855" stroke-miterlimit="10"/>
<path d="M677.485 88.5979C679.641 89.3646 681.958 89.5624 684.213 89.1722C685.409 88.9587 686.569 88.5766 687.659 88.0372" stroke="#00070C" stroke-width="0.283177" stroke-miterlimit="10"/>
<defs>
<filter id="filter0_iiiii_801_173" x="297" y="121.219" width="199.417" height="203.417" filterUnits="userSpaceOnUse" color-interpolation-filters="sRGB">
<feFlood flood-opacity="0" result="BackgroundImageFix"/>
<feBlend mode="normal" in="SourceGraphic" in2="BackgroundImageFix" result="shape"/>
<feColorMatrix in="SourceAlpha" type="matrix" values="0 0 0 0 0 0 0 0 0 0 0 0 0 0 0 0 0 0 127 0" result="hardAlpha"/>
<feOffset dx="13" dy="4"/>
<feGaussianBlur stdDeviation="2"/>
<feComposite in2="hardAlpha" operator="arithmetic" k2="-1" k3="1"/>
<feColorMatrix type="matrix" values="0 0 0 0 0 0 0 0 0 0 0 0 0 0 0 0 0 0 0.25 0"/>
<feBlend mode="normal" in2="shape" result="effect1_innerShadow_801_173"/>
<feColorMatrix in="SourceAlpha" type="matrix" values="0 0 0 0 0 0 0 0 0 0 0 0 0 0 0 0 0 0 127 0" result="hardAlpha"/>
<feOffset dy="-13"/>
<feGaussianBlur stdDeviation="2"/>
<feComposite in2="hardAlpha" operator="arithmetic" k2="-1" k3="1"/>
<feColorMatrix type="matrix" values="0 0 0 0 0 0 0 0 0 0 0 0 0 0 0 0 0 0 0.25 0"/>
<feBlend mode="normal" in2="effect1_innerShadow_801_173" result="effect2_innerShadow_801_173"/>
<feColorMatrix in="SourceAlpha" type="matrix" values="0 0 0 0 0 0 0 0 0 0 0 0 0 0 0 0 0 0 127 0" result="hardAlpha"/>
<feOffset dy="145"/>
<feGaussianBlur stdDeviation="2"/>
<feComposite in2="hardAlpha" operator="arithmetic" k2="-1" k3="1"/>
<feColorMatrix type="matrix" values="0 0 0 0 0 0 0 0 0 0 0 0 0 0 0 0 0 0 0.25 0"/>
<feBlend mode="normal" in2="effect2_innerShadow_801_173" result="effect3_innerShadow_801_173"/>
<feColorMatrix in="SourceAlpha" type="matrix" values="0 0 0 0 0 0 0 0 0 0 0 0 0 0 0 0 0 0 127 0" result="hardAlpha"/>
<feOffset dx="36"/>
<feGaussianBlur stdDeviation="2"/>
<feComposite in2="hardAlpha" operator="arithmetic" k2="-1" k3="1"/>
<feColorMatrix type="matrix" values="0 0 0 0 0 0 0 0 0 0 0 0 0 0 0 0 0 0 0.25 0"/>
<feBlend mode="normal" in2="effect3_innerShadow_801_173" result="effect4_innerShadow_801_173"/>
<feColorMatrix in="SourceAlpha" type="matrix" values="0 0 0 0 0 0 0 0 0 0 0 0 0 0 0 0 0 0 127 0" result="hardAlpha"/>
<feOffset dy="-141"/>
<feGaussianBlur stdDeviation="2"/>
<feComposite in2="hardAlpha" operator="arithmetic" k2="-1" k3="1"/>
<feColorMatrix type="matrix" values="0 0 0 0 0 0 0 0 0 0 0 0 0 0 0 0 0 0 0.25 0"/>
<feBlend mode="normal" in2="effect4_innerShadow_801_173" result="effect5_innerShadow_801_173"/>
</filter>
<filter id="filter1_d_801_173" x="316.608" y="150.138" width="154.891" height="154.891" filterUnits="userSpaceOnUse" color-interpolation-filters="sRGB">
<feFlood flood-opacity="0" result="BackgroundImageFix"/>
<feColorMatrix in="SourceAlpha" type="matrix" values="0 0 0 0 0 0 0 0 0 0 0 0 0 0 0 0 0 0 127 0" result="hardAlpha"/>
<feOffset dy="4"/>
<feGaussianBlur stdDeviation="2"/>
<feComposite in2="hardAlpha" operator="out"/>
<feColorMatrix type="matrix" values="0 0 0 0 0 0 0 0 0 0 0 0 0 0 0 0 0 0 0.25 0"/>
<feBlend mode="normal" in2="BackgroundImageFix" result="effect1_dropShadow_801_173"/>
<feBlend mode="normal" in="SourceGraphic" in2="effect1_dropShadow_801_173" result="shape"/>
</filter>
<filter id="filter2_dd_801_173" x="0.5" y="281.778" width="95.7369" height="147.44" filterUnits="userSpaceOnUse" color-interpolation-filters="sRGB">
<feFlood flood-opacity="0" result="BackgroundImageFix"/>
<feColorMatrix in="SourceAlpha" type="matrix" values="0 0 0 0 0 0 0 0 0 0 0 0 0 0 0 0 0 0 127 0" result="hardAlpha"/>
<feOffset dy="4"/>
<feGaussianBlur stdDeviation="2"/>
<feComposite in2="hardAlpha" operator="out"/>
<feColorMatrix type="matrix" values="0 0 0 0 0 0 0 0 0 0 0 0 0 0 0 0 0 0 0.25 0"/>
<feBlend mode="normal" in2="BackgroundImageFix" result="effect1_dropShadow_801_173"/>
<feColorMatrix in="SourceAlpha" type="matrix" values="0 0 0 0 0 0 0 0 0 0 0 0 0 0 0 0 0 0 127 0" result="hardAlpha"/>
<feOffset dx="-6" dy="4"/>
<feGaussianBlur stdDeviation="2"/>
<feComposite in2="hardAlpha" operator="out"/>
<feColorMatrix type="matrix" values="0 0 0 0 0 0 0 0 0 0 0 0 0 0 0 0 0 0 0.25 0"/>
<feBlend mode="normal" in2="effect1_dropShadow_801_173" result="effect2_dropShadow_801_173"/>
<feBlend mode="normal" in="SourceGraphic" in2="effect2_dropShadow_801_173" result="shape"/>
</filter>
<filter id="filter3_dd_801_173" x="12" y="290.219" width="163.268" height="182.996" filterUnits="userSpaceOnUse" color-interpolation-filters="sRGB">
<feFlood flood-opacity="0" result="BackgroundImageFix"/>
<feColorMatrix in="SourceAlpha" type="matrix" values="0 0 0 0 0 0 0 0 0 0 0 0 0 0 0 0 0 0 127 0" result="hardAlpha"/>
<feOffset dy="4"/>
<feGaussianBlur stdDeviation="2"/>
<feComposite in2="hardAlpha" operator="out"/>
<feColorMatrix type="matrix" values="0 0 0 0 0 0 0 0 0 0 0 0 0 0 0 0 0 0 0.25 0"/>
<feBlend mode="normal" in2="BackgroundImageFix" result="effect1_dropShadow_801_173"/>
<feColorMatrix in="SourceAlpha" type="matrix" values="0 0 0 0 0 0 0 0 0 0 0 0 0 0 0 0 0 0 127 0" result="hardAlpha"/>
<feOffset dx="-5" dy="4"/>
<feGaussianBlur stdDeviation="2"/>
<feComposite in2="hardAlpha" operator="out"/>
<feColorMatrix type="matrix" values="0 0 0 0 0 0 0 0 0 0 0 0 0 0 0 0 0 0 0.25 0"/>
<feBlend mode="normal" in2="effect1_dropShadow_801_173" result="effect2_dropShadow_801_173"/>
<feBlend mode="normal" in="SourceGraphic" in2="effect2_dropShadow_801_173" result="shape"/>
</filter>
<filter id="filter4_dd_801_173" x="172.763" y="188.219" width="95.7368" height="147.44" filterUnits="userSpaceOnUse" color-interpolation-filters="sRGB">
<feFlood flood-opacity="0" result="BackgroundImageFix"/>
<feColorMatrix in="SourceAlpha" type="matrix" values="0 0 0 0 0 0 0 0 0 0 0 0 0 0 0 0 0 0 127 0" result="hardAlpha"/>
<feOffset dy="4"/>
<feGaussianBlur stdDeviation="2"/>
<feComposite in2="hardAlpha" operator="out"/>
<feColorMatrix type="matrix" values="0 0 0 0 0 0 0 0 0 0 0 0 0 0 0 0 0 0 0.25 0"/>
<feBlend mode="normal" in2="BackgroundImageFix" result="effect1_dropShadow_801_173"/>
<feColorMatrix in="SourceAlpha" type="matrix" values="0 0 0 0 0 0 0 0 0 0 0 0 0 0 0 0 0 0 127 0" result="hardAlpha"/>
<feOffset dx="-6" dy="4"/>
<feGaussianBlur stdDeviation="2"/>
<feComposite in2="hardAlpha" operator="out"/>
<feColorMatrix type="matrix" values="0 0 0 0 0 0 0 0 0 0 0 0 0 0 0 0 0 0 0.25 0"/>
<feBlend mode="normal" in2="effect1_dropShadow_801_173" result="effect2_dropShadow_801_173"/>
<feBlend mode="normal" in="SourceGraphic" in2="effect2_dropShadow_801_173" result="shape"/>
</filter>
<filter id="filter5_dd_801_173" x="101" y="145.219" width="165.268" height="182.996" filterUnits="userSpaceOnUse" color-interpolation-filters="sRGB">
<feFlood flood-opacity="0" result="BackgroundImageFix"/>
<feColorMatrix in="SourceAlpha" type="matrix" values="0 0 0 0 0 0 0 0 0 0 0 0 0 0 0 0 0 0 127 0" result="hardAlpha"/>
<feOffset dy="4"/>
<feGaussianBlur stdDeviation="2"/>
<feComposite in2="hardAlpha" operator="out"/>
<feColorMatrix type="matrix" values="0 0 0 0 0 0 0 0 0 0 0 0 0 0 0 0 0 0 0.25 0"/>
<feBlend mode="normal" in2="BackgroundImageFix" result="effect1_dropShadow_801_173"/>
<feColorMatrix in="SourceAlpha" type="matrix" values="0 0 0 0 0 0 0 0 0 0 0 0 0 0 0 0 0 0 127 0" result="hardAlpha"/>
<feOffset dx="7" dy="4"/>
<feGaussianBlur stdDeviation="2"/>
<feComposite in2="hardAlpha" operator="out"/>
<feColorMatrix type="matrix" values="0 0 0 0 0 0 0 0 0 0 0 0 0 0 0 0 0 0 0.25 0"/>
<feBlend mode="normal" in2="effect1_dropShadow_801_173" result="effect2_dropShadow_801_173"/>
<feBlend mode="normal" in="SourceGraphic" in2="effect2_dropShadow_801_173" result="shape"/>
</filter>
<filter id="filter6_dd_801_173" x="0.5" y="42.2188" width="96.2426" height="150.437" filterUnits="userSpaceOnUse" color-interpolation-filters="sRGB">
<feFlood flood-opacity="0" result="BackgroundImageFix"/>
<feColorMatrix in="SourceAlpha" type="matrix" values="0 0 0 0 0 0 0 0 0 0 0 0 0 0 0 0 0 0 127 0" result="hardAlpha"/>
<feOffset dy="4"/>
<feGaussianBlur stdDeviation="2"/>
<feComposite in2="hardAlpha" operator="out"/>
<feColorMatrix type="matrix" values="0 0 0 0 0 0 0 0 0 0 0 0 0 0 0 0 0 0 0.25 0"/>
<feBlend mode="normal" in2="BackgroundImageFix" result="effect1_dropShadow_801_173"/>
<feColorMatrix in="SourceAlpha" type="matrix" values="0 0 0 0 0 0 0 0 0 0 0 0 0 0 0 0 0 0 127 0" result="hardAlpha"/>
<feOffset dx="-6" dy="4"/>
<feGaussianBlur stdDeviation="2"/>
<feComposite in2="hardAlpha" operator="out"/>
<feColorMatrix type="matrix" values="0 0 0 0 0 0 0 0 0 0 0 0 0 0 0 0 0 0 0.25 0"/>
<feBlend mode="normal" in2="effect1_dropShadow_801_173" result="effect2_dropShadow_801_173"/>
<feBlend mode="normal" in="SourceGraphic" in2="effect2_dropShadow_801_173" result="shape"/>
</filter>
<filter id="filter7_dd_801_173" x="11" y="0.21875" width="164.268" height="182.996" filterUnits="userSpaceOnUse" color-interpolation-filters="sRGB">
<feFlood flood-opacity="0" result="BackgroundImageFix"/>
<feColorMatrix in="SourceAlpha" type="matrix" values="0 0 0 0 0 0 0 0 0 0 0 0 0 0 0 0 0 0 127 0" result="hardAlpha"/>
<feOffset dy="4"/>
<feGaussianBlur stdDeviation="2"/>
<feComposite in2="hardAlpha" operator="out"/>
<feColorMatrix type="matrix" values="0 0 0 0 0 0 0 0 0 0 0 0 0 0 0 0 0 0 0.25 0"/>
<feBlend mode="normal" in2="BackgroundImageFix" result="effect1_dropShadow_801_173"/>
<feColorMatrix in="SourceAlpha" type="matrix" values="0 0 0 0 0 0 0 0 0 0 0 0 0 0 0 0 0 0 127 0" result="hardAlpha"/>
<feOffset dx="-6" dy="4"/>
<feGaussianBlur stdDeviation="2"/>
<feComposite in2="hardAlpha" operator="out"/>
<feColorMatrix type="matrix" values="0 0 0 0 0 0 0 0 0 0 0 0 0 0 0 0 0 0 0.25 0"/>
<feBlend mode="normal" in2="effect1_dropShadow_801_173" result="effect2_dropShadow_801_173"/>
<feBlend mode="normal" in="SourceGraphic" in2="effect2_dropShadow_801_173" result="shape"/>
</filter>
<filter id="filter8_dd_801_173" x="674.763" y="281.778" width="95.7368" height="147.44" filterUnits="userSpaceOnUse" color-interpolation-filters="sRGB">
<feFlood flood-opacity="0" result="BackgroundImageFix"/>
<feColorMatrix in="SourceAlpha" type="matrix" values="0 0 0 0 0 0 0 0 0 0 0 0 0 0 0 0 0 0 127 0" result="hardAlpha"/>
<feOffset dy="4"/>
<feGaussianBlur stdDeviation="2"/>
<feComposite in2="hardAlpha" operator="out"/>
<feColorMatrix type="matrix" values="0 0 0 0 0 0 0 0 0 0 0 0 0 0 0 0 0 0 0.25 0"/>
<feBlend mode="normal" in2="BackgroundImageFix" result="effect1_dropShadow_801_173"/>
<feColorMatrix in="SourceAlpha" type="matrix" values="0 0 0 0 0 0 0 0 0 0 0 0 0 0 0 0 0 0 127 0" result="hardAlpha"/>
<feOffset dx="-6" dy="4"/>
<feGaussianBlur stdDeviation="2"/>
<feComposite in2="hardAlpha" operator="out"/>
<feColorMatrix type="matrix" values="0 0 0 0 0 0 0 0 0 0 0 0 0 0 0 0 0 0 0.25 0"/>
<feBlend mode="normal" in2="effect1_dropShadow_801_173" result="effect2_dropShadow_801_173"/>
<feBlend mode="normal" in="SourceGraphic" in2="effect2_dropShadow_801_173" result="shape"/>
</filter>
<filter id="filter9_dd_801_173" x="596.732" y="290.219" width="163.268" height="182.996" filterUnits="userSpaceOnUse" color-interpolation-filters="sRGB">
<feFlood flood-opacity="0" result="BackgroundImageFix"/>
<feColorMatrix in="SourceAlpha" type="matrix" values="0 0 0 0 0 0 0 0 0 0 0 0 0 0 0 0 0 0 127 0" result="hardAlpha"/>
<feOffset dy="4"/>
<feGaussianBlur stdDeviation="2"/>
<feComposite in2="hardAlpha" operator="out"/>
<feColorMatrix type="matrix" values="0 0 0 0 0 0 0 0 0 0 0 0 0 0 0 0 0 0 0.25 0"/>
<feBlend mode="normal" in2="BackgroundImageFix" result="effect1_dropShadow_801_173"/>
<feColorMatrix in="SourceAlpha" type="matrix" values="0 0 0 0 0 0 0 0 0 0 0 0 0 0 0 0 0 0 127 0" result="hardAlpha"/>
<feOffset dx="-5" dy="4"/>
<feGaussianBlur stdDeviation="2"/>
<feComposite in2="hardAlpha" operator="out"/>
<feColorMatrix type="matrix" values="0 0 0 0 0 0 0 0 0 0 0 0 0 0 0 0 0 0 0.25 0"/>
<feBlend mode="normal" in2="effect1_dropShadow_801_173" result="effect2_dropShadow_801_173"/>
<feBlend mode="normal" in="SourceGraphic" in2="effect2_dropShadow_801_173" result="shape"/>
</filter>
<filter id="filter10_dd_801_173" x="502.5" y="188.219" width="95.7368" height="147.44" filterUnits="userSpaceOnUse" color-interpolation-filters="sRGB">
<feFlood flood-opacity="0" result="BackgroundImageFix"/>
<feColorMatrix in="SourceAlpha" type="matrix" values="0 0 0 0 0 0 0 0 0 0 0 0 0 0 0 0 0 0 127 0" result="hardAlpha"/>
<feOffset dy="4"/>
<feGaussianBlur stdDeviation="2"/>
<feComposite in2="hardAlpha" operator="out"/>
<feColorMatrix type="matrix" values="0 0 0 0 0 0 0 0 0 0 0 0 0 0 0 0 0 0 0.25 0"/>
<feBlend mode="normal" in2="BackgroundImageFix" result="effect1_dropShadow_801_173"/>
<feColorMatrix in="SourceAlpha" type="matrix" values="0 0 0 0 0 0 0 0 0 0 0 0 0 0 0 0 0 0 127 0" result="hardAlpha"/>
<feOffset dx="-6" dy="4"/>
<feGaussianBlur stdDeviation="2"/>
<feComposite in2="hardAlpha" operator="out"/>
<feColorMatrix type="matrix" values="0 0 0 0 0 0 0 0 0 0 0 0 0 0 0 0 0 0 0.25 0"/>
<feBlend mode="normal" in2="effect1_dropShadow_801_173" result="effect2_dropShadow_801_173"/>
<feBlend mode="normal" in="SourceGraphic" in2="effect2_dropShadow_801_173" result="shape"/>
</filter>
<filter id="filter11_dd_801_173" x="517.732" y="145.219" width="165.268" height="182.996" filterUnits="userSpaceOnUse" color-interpolation-filters="sRGB">
<feFlood flood-opacity="0" result="BackgroundImageFix"/>
<feColorMatrix in="SourceAlpha" type="matrix" values="0 0 0 0 0 0 0 0 0 0 0 0 0 0 0 0 0 0 127 0" result="hardAlpha"/>
<feOffset dy="4"/>
<feGaussianBlur stdDeviation="2"/>
<feComposite in2="hardAlpha" operator="out"/>
<feColorMatrix type="matrix" values="0 0 0 0 0 0 0 0 0 0 0 0 0 0 0 0 0 0 0.25 0"/>
<feBlend mode="normal" in2="BackgroundImageFix" result="effect1_dropShadow_801_173"/>
<feColorMatrix in="SourceAlpha" type="matrix" values="0 0 0 0 0 0 0 0 0 0 0 0 0 0 0 0 0 0 127 0" result="hardAlpha"/>
<feOffset dx="7" dy="4"/>
<feGaussianBlur stdDeviation="2"/>
<feComposite in2="hardAlpha" operator="out"/>
<feColorMatrix type="matrix" values="0 0 0 0 0 0 0 0 0 0 0 0 0 0 0 0 0 0 0.25 0"/>
<feBlend mode="normal" in2="effect1_dropShadow_801_173" result="effect2_dropShadow_801_173"/>
<feBlend mode="normal" in="SourceGraphic" in2="effect2_dropShadow_801_173" result="shape"/>
</filter>
<filter id="filter12_dd_801_173" x="674.257" y="42.2188" width="96.2424" height="150.437" filterUnits="userSpaceOnUse" color-interpolation-filters="sRGB">
<feFlood flood-opacity="0" result="BackgroundImageFix"/>
<feColorMatrix in="SourceAlpha" type="matrix" values="0 0 0 0 0 0 0 0 0 0 0 0 0 0 0 0 0 0 127 0" result="hardAlpha"/>
<feOffset dy="4"/>
<feGaussianBlur stdDeviation="2"/>
<feComposite in2="hardAlpha" operator="out"/>
<feColorMatrix type="matrix" values="0 0 0 0 0 0 0 0 0 0 0 0 0 0 0 0 0 0 0.25 0"/>
<feBlend mode="normal" in2="BackgroundImageFix" result="effect1_dropShadow_801_173"/>
<feColorMatrix in="SourceAlpha" type="matrix" values="0 0 0 0 0 0 0 0 0 0 0 0 0 0 0 0 0 0 127 0" result="hardAlpha"/>
<feOffset dx="-6" dy="4"/>
<feGaussianBlur stdDeviation="2"/>
<feComposite in2="hardAlpha" operator="out"/>
<feColorMatrix type="matrix" values="0 0 0 0 0 0 0 0 0 0 0 0 0 0 0 0 0 0 0.25 0"/>
<feBlend mode="normal" in2="effect1_dropShadow_801_173" result="effect2_dropShadow_801_173"/>
<feBlend mode="normal" in="SourceGraphic" in2="effect2_dropShadow_801_173" result="shape"/>
</filter>
<filter id="filter13_dd_801_173" x="595.732" y="0.21875" width="164.268" height="182.996" filterUnits="userSpaceOnUse" color-interpolation-filters="sRGB">
<feFlood flood-opacity="0" result="BackgroundImageFix"/>
<feColorMatrix in="SourceAlpha" type="matrix" values="0 0 0 0 0 0 0 0 0 0 0 0 0 0 0 0 0 0 127 0" result="hardAlpha"/>
<feOffset dy="4"/>
<feGaussianBlur stdDeviation="2"/>
<feComposite in2="hardAlpha" operator="out"/>
<feColorMatrix type="matrix" values="0 0 0 0 0 0 0 0 0 0 0 0 0 0 0 0 0 0 0.25 0"/>
<feBlend mode="normal" in2="BackgroundImageFix" result="effect1_dropShadow_801_173"/>
<feColorMatrix in="SourceAlpha" type="matrix" values="0 0 0 0 0 0 0 0 0 0 0 0 0 0 0 0 0 0 127 0" result="hardAlpha"/>
<feOffset dx="-6" dy="4"/>
<feGaussianBlur stdDeviation="2"/>
<feComposite in2="hardAlpha" operator="out"/>
<feColorMatrix type="matrix" values="0 0 0 0 0 0 0 0 0 0 0 0 0 0 0 0 0 0 0.25 0"/>
<feBlend mode="normal" in2="effect1_dropShadow_801_173" result="effect2_dropShadow_801_173"/>
<feBlend mode="normal" in="SourceGraphic" in2="effect2_dropShadow_801_173" result="shape"/>
</filter>
<clipPath id="clip0_801_173">
<rect width="32" height="32" fill="white" transform="translate(82 68)"/>
</clipPath>
<clipPath id="clip1_801_173">
<rect width="32" height="32" fill="white" transform="translate(164 217)"/>
</clipPath>
<clipPath id="clip2_801_173">
<rect width="32" height="32" fill="white" transform="translate(82 357.214)"/>
</clipPath>
<clipPath id="clip3_801_173">
<rect width="32" height="32" fill="white" transform="translate(665 357)"/>
</clipPath>
<clipPath id="clip4_801_173">
<rect width="32" height="32" fill="white" transform="translate(581 207)"/>
</clipPath>
</defs>
</svg>
