<svg width="1287" height="273" viewBox="0 0 1287 273" fill="none" xmlns="http://www.w3.org/2000/svg">
<g filter="url(#filter0_d_776_1566)">
<rect x="4" width="1279" height="265" rx="8" fill="black" fill-opacity="0.77" shape-rendering="crispEdges"/>
</g>
<path d="M47.6931 106.28C47.0265 106.28 46.5065 106.093 46.1331 105.72C45.7865 105.347 45.6131 104.827 45.6131 104.16V81.28H37.1331C36.5731 81.28 36.1331 81.1333 35.8131 80.84C35.4931 80.52 35.3331 80.08 35.3331 79.52C35.3331 78.96 35.4931 78.5333 35.8131 78.24C36.1331 77.9467 36.5731 77.8 37.1331 77.8H58.2131C58.7998 77.8 59.2531 77.9467 59.5731 78.24C59.8931 78.5333 60.0531 78.96 60.0531 79.52C60.0531 80.08 59.8931 80.52 59.5731 80.84C59.2531 81.1333 58.7998 81.28 58.2131 81.28H49.7331V104.16C49.7331 104.827 49.5598 105.347 49.2131 105.72C48.8931 106.093 48.3865 106.28 47.6931 106.28ZM68.8203 106.36C66.687 106.36 64.847 105.96 63.3003 105.16C61.7803 104.333 60.5936 103.173 59.7403 101.68C58.9136 100.16 58.5003 98.36 58.5003 96.28C58.5003 94.2533 58.9136 92.48 59.7403 90.96C60.567 89.44 61.7003 88.2533 63.1403 87.4C64.5803 86.5467 66.2203 86.12 68.0603 86.12C69.4203 86.12 70.6336 86.3467 71.7003 86.8C72.767 87.2267 73.6736 87.8667 74.4203 88.72C75.1936 89.5467 75.767 90.56 76.1403 91.76C76.5403 92.96 76.7403 94.3067 76.7403 95.8C76.7403 96.2533 76.607 96.6 76.3403 96.84C76.0736 97.0533 75.6736 97.16 75.1403 97.16H61.7003V94.68H74.0203L73.3403 95.24C73.3403 93.9067 73.1403 92.7733 72.7403 91.84C72.367 90.9067 71.7936 90.2 71.0203 89.72C70.2736 89.2133 69.3403 88.96 68.2203 88.96C66.967 88.96 65.9003 89.2533 65.0203 89.84C64.167 90.4267 63.5136 91.24 63.0603 92.28C62.607 93.32 62.3803 94.5333 62.3803 95.92V96.16C62.3803 98.5067 62.927 100.28 64.0203 101.48C65.1403 102.653 66.7536 103.24 68.8603 103.24C69.6603 103.24 70.5003 103.133 71.3803 102.92C72.287 102.707 73.1403 102.347 73.9403 101.84C74.3936 101.573 74.7936 101.453 75.1403 101.48C75.5136 101.507 75.807 101.627 76.0203 101.84C76.2603 102.053 76.407 102.32 76.4603 102.64C76.5136 102.96 76.4603 103.293 76.3003 103.64C76.1403 103.96 75.8603 104.253 75.4603 104.52C74.5536 105.133 73.5003 105.6 72.3003 105.92C71.1003 106.213 69.9403 106.36 68.8203 106.36ZM87.9847 106.36C86.8114 106.36 85.598 106.227 84.3447 105.96C83.118 105.693 81.9847 105.24 80.9447 104.6C80.598 104.36 80.358 104.093 80.2247 103.8C80.0914 103.507 80.038 103.213 80.0647 102.92C80.118 102.6 80.238 102.333 80.4247 102.12C80.638 101.88 80.8914 101.733 81.1847 101.68C81.5047 101.627 81.838 101.693 82.1847 101.88C83.2247 102.467 84.2247 102.88 85.1847 103.12C86.1447 103.333 87.0914 103.44 88.0247 103.44C89.438 103.44 90.5047 103.187 91.2247 102.68C91.9447 102.173 92.3047 101.493 92.3047 100.64C92.3047 99.9467 92.0647 99.4133 91.5847 99.04C91.1047 98.64 90.3847 98.3333 89.4247 98.12L85.6247 97.36C83.9714 97.0133 82.718 96.4 81.8647 95.52C81.0114 94.64 80.5847 93.52 80.5847 92.16C80.5847 90.9333 80.918 89.8667 81.5847 88.96C82.2514 88.0533 83.1847 87.36 84.3847 86.88C85.5847 86.3733 86.9714 86.12 88.5447 86.12C89.718 86.12 90.8247 86.2667 91.8647 86.56C92.9047 86.8533 93.8647 87.2933 94.7447 87.88C95.0914 88.0667 95.318 88.32 95.4247 88.64C95.5314 88.9333 95.5447 89.2267 95.4647 89.52C95.4114 89.8133 95.278 90.08 95.0647 90.32C94.8514 90.5333 94.5847 90.6667 94.2647 90.72C93.9714 90.7467 93.638 90.6667 93.2647 90.48C92.4647 89.9733 91.6647 89.6133 90.8647 89.4C90.0914 89.1867 89.318 89.08 88.5447 89.08C87.1314 89.08 86.0647 89.3467 85.3447 89.88C84.6514 90.3867 84.3047 91.08 84.3047 91.96C84.3047 92.6267 84.518 93.1733 84.9447 93.6C85.3714 94.0267 86.038 94.3333 86.9447 94.52L90.7447 95.28C92.478 95.6267 93.7847 96.2133 94.6647 97.04C95.5714 97.8667 96.0247 98.9867 96.0247 100.4C96.0247 102.24 95.2914 103.693 93.8247 104.76C92.358 105.827 90.4114 106.36 87.9847 106.36ZM108.644 106.36C107.044 106.36 105.698 106.08 104.604 105.52C103.511 104.96 102.698 104.133 102.164 103.04C101.631 101.947 101.364 100.613 101.364 99.04V89.6H98.9644C98.431 89.6 98.0177 89.4667 97.7244 89.2C97.431 88.9067 97.2844 88.52 97.2844 88.04C97.2844 87.5333 97.431 87.1467 97.7244 86.88C98.0177 86.6133 98.431 86.48 98.9644 86.48H101.364V82.36C101.364 81.6933 101.538 81.1867 101.884 80.84C102.258 80.4933 102.764 80.32 103.404 80.32C104.044 80.32 104.538 80.4933 104.884 80.84C105.231 81.1867 105.404 81.6933 105.404 82.36V86.48H110.084C110.618 86.48 111.031 86.6133 111.324 86.88C111.618 87.1467 111.764 87.5333 111.764 88.04C111.764 88.52 111.618 88.9067 111.324 89.2C111.031 89.4667 110.618 89.6 110.084 89.6H105.404V98.72C105.404 100.133 105.698 101.2 106.284 101.92C106.898 102.64 107.884 103 109.244 103C109.724 103 110.138 102.96 110.484 102.88C110.858 102.773 111.164 102.707 111.404 102.68C111.698 102.68 111.938 102.787 112.124 103C112.311 103.187 112.404 103.56 112.404 104.12C112.404 104.52 112.324 104.893 112.164 105.24C112.031 105.587 111.778 105.813 111.404 105.92C111.084 106.027 110.644 106.12 110.084 106.2C109.551 106.307 109.071 106.36 108.644 106.36ZM117.285 106.24C116.645 106.24 116.152 106.053 115.805 105.68C115.459 105.28 115.285 104.733 115.285 104.04V88.44C115.285 87.7467 115.459 87.2133 115.805 86.84C116.152 86.4667 116.645 86.28 117.285 86.28C117.925 86.28 118.419 86.4667 118.765 86.84C119.139 87.2133 119.325 87.7467 119.325 88.44V104.04C119.325 104.733 119.152 105.28 118.805 105.68C118.459 106.053 117.952 106.24 117.285 106.24ZM117.285 82.12C116.485 82.12 115.859 81.92 115.405 81.52C114.979 81.12 114.765 80.56 114.765 79.84C114.765 79.0933 114.979 78.5333 115.405 78.16C115.859 77.76 116.485 77.56 117.285 77.56C118.085 77.56 118.699 77.76 119.125 78.16C119.579 78.5333 119.805 79.0933 119.805 79.84C119.805 80.56 119.579 81.12 119.125 81.52C118.699 81.92 118.085 82.12 117.285 82.12ZM127.012 106.28C126.372 106.28 125.879 106.107 125.532 105.76C125.185 105.387 125.012 104.88 125.012 104.24V88.24C125.012 87.5733 125.185 87.0667 125.532 86.72C125.879 86.3733 126.359 86.2 126.972 86.2C127.612 86.2 128.092 86.3733 128.412 86.72C128.759 87.0667 128.932 87.5733 128.932 88.24V91.36L128.492 90.64C129.079 89.1467 129.999 88.0267 131.252 87.28C132.505 86.5067 133.945 86.12 135.572 86.12C137.119 86.12 138.399 86.4133 139.412 87C140.452 87.56 141.225 88.4267 141.732 89.6C142.239 90.7467 142.492 92.2 142.492 93.96V104.24C142.492 104.88 142.319 105.387 141.972 105.76C141.625 106.107 141.132 106.28 140.492 106.28C139.825 106.28 139.319 106.107 138.972 105.76C138.625 105.387 138.452 104.88 138.452 104.24V94.2C138.452 92.52 138.119 91.2933 137.452 90.52C136.812 89.7467 135.799 89.36 134.412 89.36C132.785 89.36 131.479 89.8667 130.492 90.88C129.532 91.8933 129.052 93.2533 129.052 94.96V104.24C129.052 105.6 128.372 106.28 127.012 106.28ZM156.899 113.56C155.459 113.56 154.059 113.413 152.699 113.12C151.365 112.827 150.152 112.347 149.059 111.68C148.659 111.467 148.392 111.2 148.259 110.88C148.125 110.587 148.085 110.28 148.139 109.96C148.219 109.64 148.365 109.36 148.579 109.12C148.792 108.88 149.045 108.72 149.339 108.64C149.659 108.56 149.992 108.613 150.339 108.8C151.512 109.44 152.619 109.867 153.659 110.08C154.725 110.32 155.712 110.44 156.619 110.44C158.485 110.44 159.885 109.96 160.819 109C161.752 108.067 162.219 106.68 162.219 104.84V100.76H162.579C162.179 102.227 161.339 103.387 160.059 104.24C158.779 105.093 157.299 105.52 155.619 105.52C153.859 105.52 152.325 105.12 151.019 104.32C149.712 103.493 148.699 102.36 147.979 100.92C147.259 99.4533 146.899 97.7467 146.899 95.8C146.899 94.3333 147.099 93.0133 147.499 91.84C147.925 90.6667 148.512 89.6533 149.259 88.8C150.032 87.9467 150.952 87.2933 152.019 86.84C153.112 86.36 154.312 86.12 155.619 86.12C157.325 86.12 158.805 86.5467 160.059 87.4C161.339 88.2533 162.165 89.4133 162.539 90.88L162.139 91.56V88.24C162.139 87.5733 162.312 87.0667 162.659 86.72C163.032 86.3733 163.525 86.2 164.139 86.2C164.779 86.2 165.272 86.3733 165.619 86.72C165.965 87.0667 166.139 87.5733 166.139 88.24V104.36C166.139 107.4 165.352 109.693 163.779 111.24C162.205 112.787 159.912 113.56 156.899 113.56ZM156.579 102.36C157.752 102.36 158.752 102.093 159.579 101.56C160.405 101.027 161.045 100.267 161.499 99.28C161.952 98.2933 162.179 97.1333 162.179 95.8C162.179 93.8 161.672 92.2133 160.659 91.04C159.672 89.8667 158.312 89.28 156.579 89.28C155.432 89.28 154.445 89.5467 153.619 90.08C152.792 90.6133 152.139 91.3733 151.659 92.36C151.205 93.32 150.979 94.4667 150.979 95.8C150.979 97.8267 151.485 99.4267 152.499 100.6C153.512 101.773 154.872 102.36 156.579 102.36ZM191.236 106.36C189.316 106.36 187.649 106.053 186.236 105.44C184.849 104.827 183.782 103.973 183.036 102.88C182.289 101.787 181.916 100.507 181.916 99.04C181.916 98.1333 182.036 97.2933 182.276 96.52C182.516 95.7467 182.876 95.0267 183.356 94.36C183.862 93.6667 184.476 93.0133 185.196 92.4C185.942 91.76 186.782 91.1467 187.716 90.56L189.036 89.72L188.476 90.6C187.249 89.2933 186.369 88.12 185.836 87.08C185.329 86.04 185.076 84.9733 185.076 83.88C185.076 82.6 185.369 81.48 185.956 80.52C186.569 79.5333 187.422 78.7733 188.516 78.24C189.636 77.7067 190.929 77.44 192.396 77.44C194.396 77.44 196.009 77.9733 197.236 79.04C198.462 80.08 199.076 81.52 199.076 83.36C199.076 84.32 198.876 85.24 198.476 86.12C198.102 87 197.476 87.8533 196.596 88.68C195.716 89.5067 194.516 90.36 192.996 91.24L193.036 90.24L200.236 98.12H199.356C199.702 97.5067 200.009 96.8133 200.276 96.04C200.569 95.2667 200.809 94.4267 200.996 93.52C201.209 92.6133 201.356 91.6667 201.436 90.68C201.516 90.12 201.702 89.7067 201.996 89.44C202.289 89.1467 202.702 89 203.236 89C203.796 89 204.222 89.16 204.516 89.48C204.809 89.8 204.916 90.2667 204.836 90.88C204.729 92.1867 204.529 93.4267 204.236 94.6C203.942 95.7467 203.582 96.8267 203.156 97.84C202.729 98.8267 202.236 99.7467 201.676 100.6L201.636 99.52L205.556 103.64C205.956 104.04 206.142 104.453 206.116 104.88C206.116 105.28 205.956 105.613 205.636 105.88C205.342 106.147 204.929 106.28 204.396 106.28C203.916 106.28 203.516 106.187 203.196 106C202.902 105.84 202.582 105.573 202.236 105.2L199.436 102.16H200.396C199.276 103.467 197.916 104.493 196.316 105.24C194.742 105.987 193.049 106.36 191.236 106.36ZM191.436 103.12C192.876 103.12 194.142 102.84 195.236 102.28C196.329 101.693 197.316 100.84 198.196 99.72L198.076 100.84L189.716 91.92L191.356 92.04L190.156 92.8C189.142 93.4667 188.316 94.0933 187.676 94.68C187.062 95.2667 186.609 95.8933 186.316 96.56C186.049 97.2 185.916 97.92 185.916 98.72C185.916 100.08 186.382 101.16 187.316 101.96C188.276 102.733 189.649 103.12 191.436 103.12ZM192.396 80.4C191.329 80.4 190.462 80.7067 189.796 81.32C189.156 81.9333 188.836 82.76 188.836 83.8C188.836 84.3333 188.916 84.84 189.076 85.32C189.236 85.7733 189.529 86.2933 189.956 86.88C190.409 87.44 191.009 88.1333 191.756 88.96H190.756C191.982 88.2133 192.942 87.56 193.636 87C194.329 86.44 194.836 85.88 195.156 85.32C195.476 84.76 195.636 84.16 195.636 83.52C195.636 82.5333 195.329 81.7733 194.716 81.24C194.129 80.68 193.356 80.4 192.396 80.4ZM244.103 110.96C244.423 111.44 244.556 111.88 244.503 112.28C244.449 112.68 244.276 113.013 243.983 113.28C243.716 113.573 243.369 113.747 242.943 113.8C242.543 113.88 242.129 113.84 241.703 113.68C241.303 113.52 240.956 113.2 240.663 112.72L238.023 108.44C237.623 107.773 237.076 107.253 236.383 106.88C235.689 106.533 234.849 106.36 233.863 106.36L237.143 105.04C238.396 105.04 239.383 105.267 240.103 105.72C240.849 106.147 241.583 106.933 242.303 108.08L244.103 110.96ZM233.903 106.36C231.236 106.36 228.903 105.773 226.903 104.6C224.929 103.4 223.396 101.72 222.303 99.56C221.236 97.3733 220.703 94.8133 220.703 91.88C220.703 89.6667 221.009 87.68 221.623 85.92C222.236 84.1333 223.116 82.6133 224.263 81.36C225.409 80.08 226.796 79.1067 228.423 78.44C230.049 77.7733 231.876 77.44 233.903 77.44C236.596 77.44 238.929 78.0267 240.903 79.2C242.876 80.3733 244.396 82.04 245.463 84.2C246.556 86.36 247.103 88.9067 247.103 91.84C247.103 94.0533 246.796 96.0533 246.183 97.84C245.569 99.6267 244.676 101.16 243.503 102.44C242.356 103.72 240.969 104.693 239.343 105.36C237.716 106.027 235.903 106.36 233.903 106.36ZM233.903 102.76C235.769 102.76 237.356 102.333 238.663 101.48C239.996 100.627 241.009 99.3867 241.703 97.76C242.423 96.1333 242.783 94.1733 242.783 91.88C242.783 88.44 242.009 85.7733 240.463 83.88C238.916 81.9867 236.729 81.04 233.903 81.04C232.036 81.04 230.436 81.4667 229.103 82.32C227.796 83.1467 226.783 84.3733 226.063 86C225.369 87.6267 225.023 89.5867 225.023 91.88C225.023 95.2933 225.796 97.96 227.343 99.88C228.916 101.8 231.103 102.76 233.903 102.76ZM259.198 106.36C257.625 106.36 256.305 106.067 255.238 105.48C254.198 104.893 253.412 104.027 252.878 102.88C252.372 101.707 252.118 100.24 252.118 98.48V88.24C252.118 87.5467 252.292 87.04 252.638 86.72C252.985 86.3733 253.478 86.2 254.118 86.2C254.758 86.2 255.252 86.3733 255.598 86.72C255.972 87.04 256.158 87.5467 256.158 88.24V98.52C256.158 100.093 256.478 101.253 257.118 102C257.758 102.747 258.772 103.12 260.158 103.12C261.678 103.12 262.905 102.613 263.838 101.6C264.798 100.56 265.278 99.2 265.278 97.52V88.24C265.278 87.5467 265.452 87.04 265.798 86.72C266.145 86.3733 266.652 86.2 267.318 86.2C267.958 86.2 268.452 86.3733 268.798 86.72C269.145 87.04 269.318 87.5467 269.318 88.24V104.24C269.318 105.6 268.665 106.28 267.358 106.28C266.745 106.28 266.265 106.107 265.918 105.76C265.572 105.387 265.398 104.88 265.398 104.24V100.84L265.918 101.72C265.385 103.213 264.532 104.36 263.358 105.16C262.185 105.96 260.798 106.36 259.198 106.36ZM281.252 106.36C279.892 106.36 278.665 106.093 277.572 105.56C276.505 105.027 275.665 104.307 275.052 103.4C274.439 102.493 274.132 101.467 274.132 100.32C274.132 98.88 274.492 97.7467 275.212 96.92C275.959 96.0667 277.172 95.4667 278.852 95.12C280.559 94.7467 282.852 94.56 285.732 94.56H287.612V97.04H285.772C283.852 97.04 282.332 97.1333 281.212 97.32C280.092 97.5067 279.292 97.8267 278.812 98.28C278.359 98.7067 278.132 99.3067 278.132 100.08C278.132 101.093 278.479 101.92 279.172 102.56C279.865 103.173 280.825 103.48 282.052 103.48C283.039 103.48 283.905 103.253 284.652 102.8C285.399 102.32 285.985 101.68 286.412 100.88C286.865 100.08 287.092 99.16 287.092 98.12V93.52C287.092 92 286.772 90.9067 286.132 90.24C285.492 89.5733 284.439 89.24 282.972 89.24C282.119 89.24 281.225 89.3467 280.292 89.56C279.385 89.7733 278.439 90.1333 277.452 90.64C276.999 90.8533 276.612 90.92 276.292 90.84C275.972 90.76 275.719 90.5867 275.532 90.32C275.345 90.0267 275.239 89.72 275.212 89.4C275.212 89.0533 275.292 88.72 275.452 88.4C275.639 88.08 275.945 87.84 276.372 87.68C277.545 87.12 278.705 86.72 279.852 86.48C280.999 86.24 282.079 86.12 283.092 86.12C284.879 86.12 286.345 86.4 287.492 86.96C288.665 87.52 289.532 88.3733 290.092 89.52C290.652 90.6667 290.932 92.1467 290.932 93.96V104.24C290.932 104.88 290.772 105.387 290.452 105.76C290.132 106.107 289.665 106.28 289.052 106.28C288.465 106.28 287.999 106.107 287.652 105.76C287.305 105.387 287.132 104.88 287.132 104.24V101.64H287.492C287.279 102.627 286.879 103.48 286.292 104.2C285.732 104.893 285.025 105.427 284.172 105.8C283.319 106.173 282.345 106.36 281.252 106.36ZM302.776 106.36C300.696 106.36 299.123 105.76 298.056 104.56C297.016 103.333 296.496 101.573 296.496 99.28V79.56C296.496 78.8933 296.67 78.3867 297.016 78.04C297.363 77.6933 297.856 77.52 298.496 77.52C299.136 77.52 299.63 77.6933 299.976 78.04C300.35 78.3867 300.536 78.8933 300.536 79.56V99.04C300.536 100.373 300.803 101.373 301.336 102.04C301.896 102.68 302.696 103 303.736 103C303.976 103 304.19 103 304.376 103C304.563 102.973 304.75 102.947 304.936 102.92C305.256 102.893 305.483 102.987 305.616 103.2C305.75 103.387 305.816 103.787 305.816 104.4C305.816 104.96 305.696 105.4 305.456 105.72C305.216 106.013 304.83 106.2 304.296 106.28C304.056 106.307 303.803 106.32 303.536 106.32C303.27 106.347 303.016 106.36 302.776 106.36ZM310.723 106.24C310.083 106.24 309.589 106.053 309.243 105.68C308.896 105.28 308.723 104.733 308.723 104.04V88.44C308.723 87.7467 308.896 87.2133 309.243 86.84C309.589 86.4667 310.083 86.28 310.723 86.28C311.363 86.28 311.856 86.4667 312.203 86.84C312.576 87.2133 312.763 87.7467 312.763 88.44V104.04C312.763 104.733 312.589 105.28 312.243 105.68C311.896 106.053 311.389 106.24 310.723 106.24ZM310.723 82.12C309.923 82.12 309.296 81.92 308.843 81.52C308.416 81.12 308.203 80.56 308.203 79.84C308.203 79.0933 308.416 78.5333 308.843 78.16C309.296 77.76 309.923 77.56 310.723 77.56C311.523 77.56 312.136 77.76 312.563 78.16C313.016 78.5333 313.243 79.0933 313.243 79.84C313.243 80.56 313.016 81.12 312.563 81.52C312.136 81.92 311.523 82.12 310.723 82.12ZM326.769 106.36C325.169 106.36 323.823 106.08 322.729 105.52C321.636 104.96 320.823 104.133 320.289 103.04C319.756 101.947 319.489 100.613 319.489 99.04V89.6H317.089C316.556 89.6 316.143 89.4667 315.849 89.2C315.556 88.9067 315.409 88.52 315.409 88.04C315.409 87.5333 315.556 87.1467 315.849 86.88C316.143 86.6133 316.556 86.48 317.089 86.48H319.489V82.36C319.489 81.6933 319.663 81.1867 320.009 80.84C320.383 80.4933 320.889 80.32 321.529 80.32C322.169 80.32 322.663 80.4933 323.009 80.84C323.356 81.1867 323.529 81.6933 323.529 82.36V86.48H328.209C328.743 86.48 329.156 86.6133 329.449 86.88C329.743 87.1467 329.889 87.5333 329.889 88.04C329.889 88.52 329.743 88.9067 329.449 89.2C329.156 89.4667 328.743 89.6 328.209 89.6H323.529V98.72C323.529 100.133 323.823 101.2 324.409 101.92C325.023 102.64 326.009 103 327.369 103C327.849 103 328.263 102.96 328.609 102.88C328.983 102.773 329.289 102.707 329.529 102.68C329.823 102.68 330.063 102.787 330.249 103C330.436 103.187 330.529 103.56 330.529 104.12C330.529 104.52 330.449 104.893 330.289 105.24C330.156 105.587 329.903 105.813 329.529 105.92C329.209 106.027 328.769 106.12 328.209 106.2C327.676 106.307 327.196 106.36 326.769 106.36ZM337.932 113.48C337.452 113.48 337.052 113.347 336.732 113.08C336.439 112.84 336.266 112.507 336.212 112.08C336.186 111.68 336.266 111.24 336.452 110.76L339.172 104.64V106.36L331.692 88.96C331.506 88.48 331.439 88.0267 331.492 87.6C331.546 87.1733 331.746 86.84 332.092 86.6C332.439 86.3333 332.906 86.2 333.492 86.2C333.999 86.2 334.399 86.32 334.692 86.56C334.986 86.8 335.252 87.2133 335.492 87.8L341.532 102.72H340.412L346.532 87.8C346.772 87.1867 347.052 86.7733 347.372 86.56C347.692 86.32 348.132 86.2 348.692 86.2C349.172 86.2 349.546 86.3333 349.812 86.6C350.106 86.84 350.279 87.1733 350.332 87.6C350.412 88 350.346 88.44 350.132 88.92L340.132 111.92C339.866 112.533 339.559 112.947 339.212 113.16C338.892 113.373 338.466 113.48 337.932 113.48ZM364.94 106.28C364.407 106.28 363.98 106.16 363.66 105.92C363.34 105.68 363.154 105.36 363.1 104.96C363.047 104.56 363.127 104.107 363.34 103.6L374.18 79.28C374.447 78.64 374.78 78.1867 375.18 77.92C375.607 77.6533 376.074 77.52 376.58 77.52C377.06 77.52 377.5 77.6533 377.9 77.92C378.327 78.1867 378.674 78.64 378.94 79.28L389.78 103.6C390.02 104.107 390.114 104.573 390.06 105C390.007 105.4 389.834 105.72 389.54 105.96C389.247 106.173 388.834 106.28 388.3 106.28C387.714 106.28 387.247 106.133 386.9 105.84C386.554 105.547 386.247 105.093 385.98 104.48L383.18 98L385.06 99.12H368.02L369.86 98L367.1 104.48C366.834 105.12 366.54 105.587 366.22 105.88C365.9 106.147 365.474 106.28 364.94 106.28ZM376.5 82.4L370.46 96.72L369.46 95.76H383.58L382.66 96.72L376.58 82.4H376.5ZM400.68 106.36C399.507 106.36 398.293 106.227 397.04 105.96C395.813 105.693 394.68 105.24 393.64 104.6C393.293 104.36 393.053 104.093 392.92 103.8C392.787 103.507 392.733 103.213 392.76 102.92C392.813 102.6 392.933 102.333 393.12 102.12C393.333 101.88 393.587 101.733 393.88 101.68C394.2 101.627 394.533 101.693 394.88 101.88C395.92 102.467 396.92 102.88 397.88 103.12C398.84 103.333 399.787 103.44 400.72 103.44C402.133 103.44 403.2 103.187 403.92 102.68C404.64 102.173 405 101.493 405 100.64C405 99.9467 404.76 99.4133 404.28 99.04C403.8 98.64 403.08 98.3333 402.12 98.12L398.32 97.36C396.667 97.0133 395.413 96.4 394.56 95.52C393.707 94.64 393.28 93.52 393.28 92.16C393.28 90.9333 393.613 89.8667 394.28 88.96C394.947 88.0533 395.88 87.36 397.08 86.88C398.28 86.3733 399.667 86.12 401.24 86.12C402.413 86.12 403.52 86.2667 404.56 86.56C405.6 86.8533 406.56 87.2933 407.44 87.88C407.787 88.0667 408.013 88.32 408.12 88.64C408.227 88.9333 408.24 89.2267 408.16 89.52C408.107 89.8133 407.973 90.08 407.76 90.32C407.547 90.5333 407.28 90.6667 406.96 90.72C406.667 90.7467 406.333 90.6667 405.96 90.48C405.16 89.9733 404.36 89.6133 403.56 89.4C402.787 89.1867 402.013 89.08 401.24 89.08C399.827 89.08 398.76 89.3467 398.04 89.88C397.347 90.3867 397 91.08 397 91.96C397 92.6267 397.213 93.1733 397.64 93.6C398.067 94.0267 398.733 94.3333 399.64 94.52L403.44 95.28C405.173 95.6267 406.48 96.2133 407.36 97.04C408.267 97.8667 408.72 98.9867 408.72 100.4C408.72 102.24 407.987 103.693 406.52 104.76C405.053 105.827 403.107 106.36 400.68 106.36ZM420.055 106.36C418.882 106.36 417.668 106.227 416.415 105.96C415.188 105.693 414.055 105.24 413.015 104.6C412.668 104.36 412.428 104.093 412.295 103.8C412.162 103.507 412.108 103.213 412.135 102.92C412.188 102.6 412.308 102.333 412.495 102.12C412.708 101.88 412.962 101.733 413.255 101.68C413.575 101.627 413.908 101.693 414.255 101.88C415.295 102.467 416.295 102.88 417.255 103.12C418.215 103.333 419.162 103.44 420.095 103.44C421.508 103.44 422.575 103.187 423.295 102.68C424.015 102.173 424.375 101.493 424.375 100.64C424.375 99.9467 424.135 99.4133 423.655 99.04C423.175 98.64 422.455 98.3333 421.495 98.12L417.695 97.36C416.042 97.0133 414.788 96.4 413.935 95.52C413.082 94.64 412.655 93.52 412.655 92.16C412.655 90.9333 412.988 89.8667 413.655 88.96C414.322 88.0533 415.255 87.36 416.455 86.88C417.655 86.3733 419.042 86.12 420.615 86.12C421.788 86.12 422.895 86.2667 423.935 86.56C424.975 86.8533 425.935 87.2933 426.815 87.88C427.162 88.0667 427.388 88.32 427.495 88.64C427.602 88.9333 427.615 89.2267 427.535 89.52C427.482 89.8133 427.348 90.08 427.135 90.32C426.922 90.5333 426.655 90.6667 426.335 90.72C426.042 90.7467 425.708 90.6667 425.335 90.48C424.535 89.9733 423.735 89.6133 422.935 89.4C422.162 89.1867 421.388 89.08 420.615 89.08C419.202 89.08 418.135 89.3467 417.415 89.88C416.722 90.3867 416.375 91.08 416.375 91.96C416.375 92.6267 416.588 93.1733 417.015 93.6C417.442 94.0267 418.108 94.3333 419.015 94.52L422.815 95.28C424.548 95.6267 425.855 96.2133 426.735 97.04C427.642 97.8667 428.095 98.9867 428.095 100.4C428.095 102.24 427.362 103.693 425.895 104.76C424.428 105.827 422.482 106.36 420.055 106.36ZM439.55 106.36C437.977 106.36 436.657 106.067 435.59 105.48C434.55 104.893 433.763 104.027 433.23 102.88C432.723 101.707 432.47 100.24 432.47 98.48V88.24C432.47 87.5467 432.643 87.04 432.99 86.72C433.337 86.3733 433.83 86.2 434.47 86.2C435.11 86.2 435.603 86.3733 435.95 86.72C436.323 87.04 436.51 87.5467 436.51 88.24V98.52C436.51 100.093 436.83 101.253 437.47 102C438.11 102.747 439.123 103.12 440.51 103.12C442.03 103.12 443.257 102.613 444.19 101.6C445.15 100.56 445.63 99.2 445.63 97.52V88.24C445.63 87.5467 445.803 87.04 446.15 86.72C446.497 86.3733 447.003 86.2 447.67 86.2C448.31 86.2 448.803 86.3733 449.15 86.72C449.497 87.04 449.67 87.5467 449.67 88.24V104.24C449.67 105.6 449.017 106.28 447.71 106.28C447.097 106.28 446.617 106.107 446.27 105.76C445.923 105.387 445.75 104.88 445.75 104.24V100.84L446.27 101.72C445.737 103.213 444.883 104.36 443.71 105.16C442.537 105.96 441.15 106.36 439.55 106.36ZM457.403 106.28C456.737 106.28 456.23 106.107 455.883 105.76C455.537 105.387 455.363 104.88 455.363 104.24V88.24C455.363 87.5733 455.537 87.0667 455.883 86.72C456.23 86.3733 456.71 86.2 457.323 86.2C457.963 86.2 458.443 86.3733 458.763 86.72C459.11 87.0667 459.283 87.5733 459.283 88.24V91.16H458.883C459.31 89.56 460.097 88.3467 461.243 87.52C462.39 86.6933 463.857 86.2133 465.643 86.08C466.123 86.0533 466.497 86.1733 466.763 86.44C467.057 86.7067 467.217 87.12 467.243 87.68C467.297 88.24 467.177 88.6933 466.883 89.04C466.59 89.36 466.137 89.5467 465.523 89.6L464.763 89.68C463.03 89.84 461.71 90.3867 460.803 91.32C459.897 92.2533 459.443 93.5333 459.443 95.16V104.24C459.443 104.88 459.27 105.387 458.923 105.76C458.603 106.107 458.097 106.28 457.403 106.28ZM476.33 106.36C474.97 106.36 473.743 106.093 472.65 105.56C471.583 105.027 470.743 104.307 470.13 103.4C469.517 102.493 469.21 101.467 469.21 100.32C469.21 98.88 469.57 97.7467 470.29 96.92C471.037 96.0667 472.25 95.4667 473.93 95.12C475.637 94.7467 477.93 94.56 480.81 94.56H482.69V97.04H480.85C478.93 97.04 477.41 97.1333 476.29 97.32C475.17 97.5067 474.37 97.8267 473.89 98.28C473.437 98.7067 473.21 99.3067 473.21 100.08C473.21 101.093 473.557 101.92 474.25 102.56C474.943 103.173 475.903 103.48 477.13 103.48C478.117 103.48 478.983 103.253 479.73 102.8C480.477 102.32 481.063 101.68 481.49 100.88C481.943 100.08 482.17 99.16 482.17 98.12V93.52C482.17 92 481.85 90.9067 481.21 90.24C480.57 89.5733 479.517 89.24 478.05 89.24C477.197 89.24 476.303 89.3467 475.37 89.56C474.463 89.7733 473.517 90.1333 472.53 90.64C472.077 90.8533 471.69 90.92 471.37 90.84C471.05 90.76 470.797 90.5867 470.61 90.32C470.423 90.0267 470.317 89.72 470.29 89.4C470.29 89.0533 470.37 88.72 470.53 88.4C470.717 88.08 471.023 87.84 471.45 87.68C472.623 87.12 473.783 86.72 474.93 86.48C476.077 86.24 477.157 86.12 478.17 86.12C479.957 86.12 481.423 86.4 482.57 86.96C483.743 87.52 484.61 88.3733 485.17 89.52C485.73 90.6667 486.01 92.1467 486.01 93.96V104.24C486.01 104.88 485.85 105.387 485.53 105.76C485.21 106.107 484.743 106.28 484.13 106.28C483.543 106.28 483.077 106.107 482.73 105.76C482.383 105.387 482.21 104.88 482.21 104.24V101.64H482.57C482.357 102.627 481.957 103.48 481.37 104.2C480.81 104.893 480.103 105.427 479.25 105.8C478.397 106.173 477.423 106.36 476.33 106.36ZM493.574 106.28C492.934 106.28 492.441 106.107 492.094 105.76C491.748 105.387 491.574 104.88 491.574 104.24V88.24C491.574 87.5733 491.748 87.0667 492.094 86.72C492.441 86.3733 492.921 86.2 493.534 86.2C494.174 86.2 494.654 86.3733 494.974 86.72C495.321 87.0667 495.494 87.5733 495.494 88.24V91.36L495.054 90.64C495.641 89.1467 496.561 88.0267 497.814 87.28C499.068 86.5067 500.508 86.12 502.134 86.12C503.681 86.12 504.961 86.4133 505.974 87C507.014 87.56 507.788 88.4267 508.294 89.6C508.801 90.7467 509.054 92.2 509.054 93.96V104.24C509.054 104.88 508.881 105.387 508.534 105.76C508.188 106.107 507.694 106.28 507.054 106.28C506.388 106.28 505.881 106.107 505.534 105.76C505.188 105.387 505.014 104.88 505.014 104.24V94.2C505.014 92.52 504.681 91.2933 504.014 90.52C503.374 89.7467 502.361 89.36 500.974 89.36C499.348 89.36 498.041 89.8667 497.054 90.88C496.094 91.8933 495.614 93.2533 495.614 94.96V104.24C495.614 105.6 494.934 106.28 493.574 106.28ZM523.221 106.36C521.221 106.36 519.488 105.947 518.021 105.12C516.581 104.267 515.461 103.08 514.661 101.56C513.861 100.013 513.461 98.2 513.461 96.12C513.461 94.5733 513.688 93.1867 514.141 91.96C514.595 90.7067 515.235 89.6533 516.061 88.8C516.915 87.9467 517.941 87.2933 519.141 86.84C520.368 86.36 521.728 86.12 523.221 86.12C524.155 86.12 525.128 86.2667 526.141 86.56C527.181 86.8267 528.141 87.28 529.021 87.92C529.368 88.1333 529.581 88.4 529.661 88.72C529.768 89.0133 529.781 89.32 529.701 89.64C529.648 89.96 529.501 90.24 529.261 90.48C529.048 90.6933 528.781 90.8267 528.461 90.88C528.141 90.9067 527.795 90.8133 527.421 90.6C526.781 90.1467 526.128 89.8267 525.461 89.64C524.795 89.4267 524.155 89.32 523.541 89.32C522.581 89.32 521.728 89.48 520.981 89.8C520.261 90.0933 519.648 90.5333 519.141 91.12C518.635 91.68 518.248 92.3867 517.981 93.24C517.741 94.0933 517.621 95.0667 517.621 96.16C517.621 98.3467 518.128 100.067 519.141 101.32C520.181 102.547 521.648 103.16 523.541 103.16C524.155 103.16 524.795 103.067 525.461 102.88C526.128 102.693 526.781 102.373 527.421 101.92C527.795 101.707 528.141 101.627 528.461 101.68C528.781 101.733 529.035 101.88 529.221 102.12C529.435 102.333 529.568 102.6 529.621 102.92C529.701 103.213 529.688 103.52 529.581 103.84C529.475 104.16 529.248 104.427 528.901 104.64C528.048 105.253 527.115 105.693 526.101 105.96C525.115 106.227 524.155 106.36 523.221 106.36ZM542.063 106.36C539.929 106.36 538.089 105.96 536.543 105.16C535.023 104.333 533.836 103.173 532.983 101.68C532.156 100.16 531.743 98.36 531.743 96.28C531.743 94.2533 532.156 92.48 532.983 90.96C533.809 89.44 534.943 88.2533 536.383 87.4C537.823 86.5467 539.463 86.12 541.303 86.12C542.663 86.12 543.876 86.3467 544.943 86.8C546.009 87.2267 546.916 87.8667 547.663 88.72C548.436 89.5467 549.009 90.56 549.383 91.76C549.783 92.96 549.983 94.3067 549.983 95.8C549.983 96.2533 549.849 96.6 549.583 96.84C549.316 97.0533 548.916 97.16 548.383 97.16H534.943V94.68H547.263L546.583 95.24C546.583 93.9067 546.383 92.7733 545.983 91.84C545.609 90.9067 545.036 90.2 544.263 89.72C543.516 89.2133 542.583 88.96 541.463 88.96C540.209 88.96 539.143 89.2533 538.263 89.84C537.409 90.4267 536.756 91.24 536.303 92.28C535.849 93.32 535.623 94.5333 535.623 95.92V96.16C535.623 98.5067 536.169 100.28 537.263 101.48C538.383 102.653 539.996 103.24 542.103 103.24C542.903 103.24 543.743 103.133 544.623 102.92C545.529 102.707 546.383 102.347 547.183 101.84C547.636 101.573 548.036 101.453 548.383 101.48C548.756 101.507 549.049 101.627 549.263 101.84C549.503 102.053 549.649 102.32 549.703 102.64C549.756 102.96 549.703 103.293 549.543 103.64C549.383 103.96 549.103 104.253 548.703 104.52C547.796 105.133 546.743 105.6 545.543 105.92C544.343 106.213 543.183 106.36 542.063 106.36Z" fill="white"/>
<path d="M37.7 163C37.38 163 37.1333 162.913 36.96 162.74C36.7867 162.567 36.7 162.32 36.7 162V149.9C36.7 149.58 36.7867 149.333 36.96 149.16C37.1333 148.987 37.38 148.9 37.7 148.9H45.06C45.3133 148.9 45.5067 148.967 45.64 149.1C45.7867 149.22 45.86 149.4 45.86 149.64C45.86 149.893 45.7867 150.087 45.64 150.22C45.5067 150.353 45.3133 150.42 45.06 150.42H38.5V155.08H44.64C44.8933 155.08 45.0867 155.147 45.22 155.28C45.3533 155.413 45.42 155.6 45.42 155.84C45.42 156.093 45.3533 156.287 45.22 156.42C45.0867 156.54 44.8933 156.6 44.64 156.6H38.5V161.48H45.06C45.3133 161.48 45.5067 161.547 45.64 161.68C45.7867 161.8 45.86 161.987 45.86 162.24C45.86 162.493 45.7867 162.687 45.64 162.82C45.5067 162.94 45.3133 163 45.06 163H37.7ZM49.0788 163.14C48.7988 163.14 48.5788 163.06 48.4188 162.9C48.2588 162.74 48.1788 162.507 48.1788 162.2V154.04C48.1788 153.733 48.2588 153.507 48.4188 153.36C48.5788 153.2 48.7988 153.12 49.0788 153.12C49.3588 153.12 49.5721 153.2 49.7188 153.36C49.8788 153.507 49.9588 153.733 49.9588 154.04V155.68L49.7388 155.38C50.0188 154.62 50.4721 154.047 51.0988 153.66C51.7388 153.273 52.4654 153.08 53.2788 153.08C54.0654 153.08 54.7121 153.22 55.2188 153.5C55.7254 153.78 56.1054 154.207 56.3588 154.78C56.6121 155.353 56.7388 156.08 56.7388 156.96V162.2C56.7388 162.507 56.6588 162.74 56.4988 162.9C56.3521 163.06 56.1321 163.14 55.8388 163.14C55.5454 163.14 55.3188 163.06 55.1588 162.9C54.9988 162.74 54.9188 162.507 54.9188 162.2V157.06C54.9188 156.193 54.7521 155.56 54.4188 155.16C54.0854 154.76 53.5521 154.56 52.8188 154.56C51.9654 154.56 51.2788 154.827 50.7588 155.36C50.2521 155.88 49.9988 156.587 49.9988 157.48V162.2C49.9988 162.827 49.6921 163.14 49.0788 163.14ZM62.9841 163.18C62.3841 163.18 61.7774 163.113 61.1641 162.98C60.5641 162.833 59.9974 162.587 59.4641 162.24C59.3174 162.147 59.2107 162.033 59.1441 161.9C59.0907 161.753 59.0707 161.613 59.0841 161.48C59.1107 161.333 59.1707 161.207 59.2641 161.1C59.3574 160.993 59.4707 160.933 59.6041 160.92C59.7507 160.893 59.9041 160.927 60.0641 161.02C60.5841 161.313 61.0841 161.52 61.5641 161.64C62.0574 161.76 62.5441 161.82 63.0241 161.82C63.7574 161.82 64.3107 161.687 64.6841 161.42C65.0574 161.153 65.2441 160.8 65.2441 160.36C65.2441 159.987 65.1174 159.7 64.8641 159.5C64.6241 159.287 64.2441 159.127 63.7241 159.02L61.8641 158.64C61.0374 158.453 60.4107 158.147 59.9841 157.72C59.5707 157.28 59.3641 156.72 59.3641 156.04C59.3641 155.44 59.5241 154.92 59.8441 154.48C60.1774 154.027 60.6374 153.68 61.2241 153.44C61.8107 153.2 62.4841 153.08 63.2441 153.08C63.8307 153.08 64.3841 153.16 64.9041 153.32C65.4374 153.467 65.9174 153.693 66.3441 154C66.5041 154.093 66.6041 154.213 66.6441 154.36C66.6974 154.493 66.7041 154.633 66.6641 154.78C66.6374 154.913 66.5774 155.027 66.4841 155.12C66.3907 155.213 66.2707 155.273 66.1241 155.3C65.9774 155.313 65.8174 155.273 65.6441 155.18C65.2574 154.913 64.8574 154.727 64.4441 154.62C64.0441 154.5 63.6441 154.44 63.2441 154.44C62.5241 154.44 61.9774 154.58 61.6041 154.86C61.2441 155.14 61.0641 155.507 61.0641 155.96C61.0641 156.307 61.1707 156.593 61.3841 156.82C61.6107 157.047 61.9641 157.213 62.4441 157.32L64.3041 157.7C65.1707 157.887 65.8241 158.187 66.2641 158.6C66.7041 159 66.9241 159.547 66.9241 160.24C66.9241 161.147 66.5641 161.867 65.8441 162.4C65.1374 162.92 64.1841 163.18 62.9841 163.18ZM72.772 163.18C71.9854 163.18 71.3254 163.033 70.792 162.74C70.272 162.447 69.8854 162.013 69.632 161.44C69.3787 160.867 69.252 160.147 69.252 159.28V154.04C69.252 153.733 69.3254 153.507 69.472 153.36C69.632 153.2 69.8587 153.12 70.152 153.12C70.4454 153.12 70.672 153.2 70.832 153.36C70.992 153.507 71.072 153.733 71.072 154.04V159.28C71.072 160.107 71.2387 160.72 71.572 161.12C71.9054 161.507 72.432 161.7 73.152 161.7C73.952 161.7 74.5987 161.433 75.092 160.9C75.5987 160.367 75.852 159.66 75.852 158.78V154.04C75.852 153.733 75.9254 153.507 76.072 153.36C76.232 153.2 76.4587 153.12 76.752 153.12C77.0454 153.12 77.272 153.2 77.432 153.36C77.592 153.507 77.672 153.733 77.672 154.04V162.2C77.672 162.827 77.3787 163.14 76.792 163.14C76.4987 163.14 76.272 163.06 76.112 162.9C75.9654 162.74 75.892 162.507 75.892 162.2V160.46L76.152 160.8C75.8854 161.573 75.452 162.167 74.852 162.58C74.2654 162.98 73.572 163.18 72.772 163.18ZM81.5406 163.14C81.234 163.14 81.0006 163.06 80.8406 162.9C80.6806 162.74 80.6006 162.507 80.6006 162.2V154.04C80.6006 153.733 80.6806 153.507 80.8406 153.36C81.0006 153.2 81.2206 153.12 81.5006 153.12C81.7806 153.12 81.994 153.2 82.1406 153.36C82.3006 153.507 82.3806 153.733 82.3806 154.04V155.58H82.1806C82.394 154.78 82.794 154.173 83.3806 153.76C83.9673 153.347 84.7073 153.113 85.6006 153.06C85.814 153.047 85.9873 153.1 86.1206 153.22C86.254 153.327 86.3273 153.513 86.3406 153.78C86.354 154.033 86.294 154.24 86.1606 154.4C86.0273 154.547 85.8206 154.633 85.5406 154.66L85.1806 154.68C84.3006 154.773 83.6206 155.06 83.1406 155.54C82.674 156.02 82.4406 156.68 82.4406 157.52V162.2C82.4406 162.507 82.3606 162.74 82.2006 162.9C82.054 163.06 81.834 163.14 81.5406 163.14ZM92.2686 163.18C91.2153 163.18 90.3086 162.98 89.5486 162.58C88.8019 162.167 88.2219 161.587 87.8086 160.84C87.3953 160.08 87.1886 159.187 87.1886 158.16C87.1886 157.147 87.3886 156.26 87.7886 155.5C88.2019 154.74 88.7619 154.147 89.4686 153.72C90.1886 153.293 91.0086 153.08 91.9286 153.08C92.5819 153.08 93.1686 153.193 93.6886 153.42C94.2219 153.633 94.6753 153.947 95.0486 154.36C95.4219 154.773 95.7019 155.28 95.8886 155.88C96.0886 156.467 96.1886 157.133 96.1886 157.88C96.1886 158.093 96.1219 158.26 95.9886 158.38C95.8686 158.487 95.6886 158.54 95.4486 158.54H88.6086V157.38H94.9886L94.6486 157.66C94.6486 156.967 94.5419 156.38 94.3286 155.9C94.1286 155.407 93.8286 155.033 93.4286 154.78C93.0419 154.527 92.5553 154.4 91.9686 154.4C91.3286 154.4 90.7819 154.553 90.3286 154.86C89.8753 155.153 89.5286 155.573 89.2886 156.12C89.0486 156.653 88.9286 157.273 88.9286 157.98V158.1C88.9286 159.3 89.2153 160.207 89.7886 160.82C90.3619 161.433 91.1886 161.74 92.2686 161.74C92.6953 161.74 93.1286 161.687 93.5686 161.58C94.0219 161.473 94.4553 161.28 94.8686 161C95.0686 160.88 95.2486 160.827 95.4086 160.84C95.5819 160.84 95.7219 160.893 95.8286 161C95.9353 161.093 96.0019 161.213 96.0286 161.36C96.0553 161.493 96.0353 161.64 95.9686 161.8C95.9019 161.96 95.7753 162.1 95.5886 162.22C95.1486 162.527 94.6219 162.767 94.0086 162.94C93.4086 163.1 92.8286 163.18 92.2686 163.18ZM107.707 163.18C106.92 163.18 106.26 163.04 105.727 162.76C105.207 162.48 104.814 162.073 104.547 161.54C104.294 161.007 104.167 160.353 104.167 159.58V154.66H102.887C102.647 154.66 102.46 154.6 102.327 154.48C102.194 154.347 102.127 154.173 102.127 153.96C102.127 153.733 102.194 153.56 102.327 153.44C102.46 153.32 102.647 153.26 102.887 153.26H104.167V151.08C104.167 150.773 104.247 150.547 104.407 150.4C104.567 150.24 104.794 150.16 105.087 150.16C105.38 150.16 105.6 150.24 105.747 150.4C105.907 150.547 105.987 150.773 105.987 151.08V153.26H108.407C108.66 153.26 108.854 153.32 108.987 153.44C109.12 153.56 109.187 153.733 109.187 153.96C109.187 154.173 109.12 154.347 108.987 154.48C108.854 154.6 108.66 154.66 108.407 154.66H105.987V159.42C105.987 160.153 106.14 160.707 106.447 161.08C106.754 161.453 107.26 161.64 107.967 161.64C108.22 161.64 108.434 161.62 108.607 161.58C108.78 161.527 108.934 161.5 109.067 161.5C109.187 161.487 109.287 161.527 109.367 161.62C109.46 161.713 109.507 161.887 109.507 162.14C109.507 162.327 109.474 162.5 109.407 162.66C109.354 162.807 109.24 162.907 109.067 162.96C108.907 163.013 108.694 163.06 108.427 163.1C108.16 163.153 107.92 163.18 107.707 163.18ZM111.891 163.14C111.611 163.14 111.391 163.06 111.231 162.9C111.071 162.74 110.991 162.507 110.991 162.2V149.68C110.991 149.373 111.071 149.147 111.231 149C111.391 148.84 111.611 148.76 111.891 148.76C112.185 148.76 112.411 148.84 112.571 149C112.731 149.147 112.811 149.373 112.811 149.68V155.38H112.551C112.831 154.62 113.285 154.047 113.911 153.66C114.551 153.273 115.278 153.08 116.091 153.08C116.878 153.08 117.525 153.227 118.031 153.52C118.538 153.8 118.918 154.227 119.171 154.8C119.425 155.373 119.551 156.093 119.551 156.96V162.2C119.551 162.507 119.471 162.74 119.311 162.9C119.165 163.06 118.945 163.14 118.651 163.14C118.358 163.14 118.131 163.06 117.971 162.9C117.811 162.74 117.731 162.507 117.731 162.2V157.06C117.731 156.193 117.565 155.56 117.231 155.16C116.898 154.76 116.365 154.56 115.631 154.56C114.778 154.56 114.091 154.827 113.571 155.36C113.065 155.88 112.811 156.587 112.811 157.48V162.2C112.811 162.827 112.505 163.14 111.891 163.14ZM126.937 163.18C125.883 163.18 124.977 162.98 124.217 162.58C123.47 162.167 122.89 161.587 122.477 160.84C122.063 160.08 121.857 159.187 121.857 158.16C121.857 157.147 122.057 156.26 122.457 155.5C122.87 154.74 123.43 154.147 124.137 153.72C124.857 153.293 125.677 153.08 126.597 153.08C127.25 153.08 127.837 153.193 128.357 153.42C128.89 153.633 129.343 153.947 129.717 154.36C130.09 154.773 130.37 155.28 130.557 155.88C130.757 156.467 130.857 157.133 130.857 157.88C130.857 158.093 130.79 158.26 130.657 158.38C130.537 158.487 130.357 158.54 130.117 158.54H123.277V157.38H129.657L129.317 157.66C129.317 156.967 129.21 156.38 128.997 155.9C128.797 155.407 128.497 155.033 128.097 154.78C127.71 154.527 127.223 154.4 126.637 154.4C125.997 154.4 125.45 154.553 124.997 154.86C124.543 155.153 124.197 155.573 123.957 156.12C123.717 156.653 123.597 157.273 123.597 157.98V158.1C123.597 159.3 123.883 160.207 124.457 160.82C125.03 161.433 125.857 161.74 126.937 161.74C127.363 161.74 127.797 161.687 128.237 161.58C128.69 161.473 129.123 161.28 129.537 161C129.737 160.88 129.917 160.827 130.077 160.84C130.25 160.84 130.39 160.893 130.497 161C130.603 161.093 130.67 161.213 130.697 161.36C130.723 161.493 130.703 161.64 130.637 161.8C130.57 161.96 130.443 162.1 130.257 162.22C129.817 162.527 129.29 162.767 128.677 162.94C128.077 163.1 127.497 163.18 126.937 163.18ZM141.695 163.18C141.095 163.18 140.488 163.113 139.875 162.98C139.275 162.833 138.708 162.587 138.175 162.24C138.028 162.147 137.922 162.033 137.855 161.9C137.802 161.753 137.782 161.613 137.795 161.48C137.822 161.333 137.882 161.207 137.975 161.1C138.068 160.993 138.182 160.933 138.315 160.92C138.462 160.893 138.615 160.927 138.775 161.02C139.295 161.313 139.795 161.52 140.275 161.64C140.768 161.76 141.255 161.82 141.735 161.82C142.468 161.82 143.022 161.687 143.395 161.42C143.768 161.153 143.955 160.8 143.955 160.36C143.955 159.987 143.828 159.7 143.575 159.5C143.335 159.287 142.955 159.127 142.435 159.02L140.575 158.64C139.748 158.453 139.122 158.147 138.695 157.72C138.282 157.28 138.075 156.72 138.075 156.04C138.075 155.44 138.235 154.92 138.555 154.48C138.888 154.027 139.348 153.68 139.935 153.44C140.522 153.2 141.195 153.08 141.955 153.08C142.542 153.08 143.095 153.16 143.615 153.32C144.148 153.467 144.628 153.693 145.055 154C145.215 154.093 145.315 154.213 145.355 154.36C145.408 154.493 145.415 154.633 145.375 154.78C145.348 154.913 145.288 155.027 145.195 155.12C145.102 155.213 144.982 155.273 144.835 155.3C144.688 155.313 144.528 155.273 144.355 155.18C143.968 154.913 143.568 154.727 143.155 154.62C142.755 154.5 142.355 154.44 141.955 154.44C141.235 154.44 140.688 154.58 140.315 154.86C139.955 155.14 139.775 155.507 139.775 155.96C139.775 156.307 139.882 156.593 140.095 156.82C140.322 157.047 140.675 157.213 141.155 157.32L143.015 157.7C143.882 157.887 144.535 158.187 144.975 158.6C145.415 159 145.635 159.547 145.635 160.24C145.635 161.147 145.275 161.867 144.555 162.4C143.848 162.92 142.895 163.18 141.695 163.18ZM152.143 163.18C151.183 163.18 150.35 162.973 149.643 162.56C148.936 162.147 148.39 161.56 148.003 160.8C147.616 160.04 147.423 159.147 147.423 158.12C147.423 157.347 147.53 156.653 147.743 156.04C147.97 155.413 148.29 154.88 148.703 154.44C149.116 154 149.61 153.667 150.183 153.44C150.77 153.2 151.423 153.08 152.143 153.08C153.103 153.08 153.936 153.287 154.643 153.7C155.35 154.113 155.896 154.7 156.283 155.46C156.67 156.207 156.863 157.093 156.863 158.12C156.863 158.893 156.75 159.593 156.523 160.22C156.31 160.847 155.996 161.38 155.583 161.82C155.17 162.26 154.67 162.6 154.083 162.84C153.51 163.067 152.863 163.18 152.143 163.18ZM152.143 161.74C152.73 161.74 153.236 161.6 153.663 161.32C154.103 161.04 154.436 160.633 154.663 160.1C154.903 159.567 155.023 158.907 155.023 158.12C155.023 156.947 154.763 156.053 154.243 155.44C153.723 154.827 153.023 154.52 152.143 154.52C151.57 154.52 151.063 154.66 150.623 154.94C150.196 155.207 149.863 155.607 149.623 156.14C149.383 156.673 149.263 157.333 149.263 158.12C149.263 159.293 149.523 160.193 150.043 160.82C150.576 161.433 151.276 161.74 152.143 161.74ZM160.577 163.14C160.283 163.14 160.057 163.06 159.897 162.9C159.737 162.74 159.657 162.507 159.657 162.2V154.66H158.457C158.217 154.66 158.03 154.6 157.897 154.48C157.763 154.347 157.697 154.173 157.697 153.96C157.697 153.733 157.763 153.56 157.897 153.44C158.03 153.32 158.217 153.26 158.457 153.26H160.157L159.657 153.74V153C159.657 151.707 159.97 150.727 160.597 150.06C161.237 149.38 162.17 148.987 163.397 148.88L164.017 148.84C164.217 148.813 164.377 148.847 164.497 148.94C164.617 149.02 164.697 149.127 164.737 149.26C164.777 149.393 164.777 149.533 164.737 149.68C164.71 149.813 164.65 149.933 164.557 150.04C164.463 150.147 164.343 150.207 164.197 150.22L163.757 150.24C162.957 150.307 162.377 150.547 162.017 150.96C161.657 151.36 161.477 151.96 161.477 152.76V153.56L161.217 153.26H163.517C163.77 153.26 163.963 153.32 164.097 153.44C164.23 153.56 164.297 153.733 164.297 153.96C164.297 154.173 164.23 154.347 164.097 154.48C163.963 154.6 163.77 154.66 163.517 154.66H161.477V162.2C161.477 162.827 161.177 163.14 160.577 163.14ZM169.445 163.18C168.659 163.18 167.999 163.04 167.465 162.76C166.945 162.48 166.552 162.073 166.285 161.54C166.032 161.007 165.905 160.353 165.905 159.58V154.66H164.625C164.385 154.66 164.199 154.6 164.065 154.48C163.932 154.347 163.865 154.173 163.865 153.96C163.865 153.733 163.932 153.56 164.065 153.44C164.199 153.32 164.385 153.26 164.625 153.26H165.905V151.08C165.905 150.773 165.985 150.547 166.145 150.4C166.305 150.24 166.532 150.16 166.825 150.16C167.119 150.16 167.339 150.24 167.485 150.4C167.645 150.547 167.725 150.773 167.725 151.08V153.26H170.145C170.399 153.26 170.592 153.32 170.725 153.44C170.859 153.56 170.925 153.733 170.925 153.96C170.925 154.173 170.859 154.347 170.725 154.48C170.592 154.6 170.399 154.66 170.145 154.66H167.725V159.42C167.725 160.153 167.879 160.707 168.185 161.08C168.492 161.453 168.999 161.64 169.705 161.64C169.959 161.64 170.172 161.62 170.345 161.58C170.519 161.527 170.672 161.5 170.805 161.5C170.925 161.487 171.025 161.527 171.105 161.62C171.199 161.713 171.245 161.887 171.245 162.14C171.245 162.327 171.212 162.5 171.145 162.66C171.092 162.807 170.979 162.907 170.805 162.96C170.645 163.013 170.432 163.06 170.165 163.1C169.899 163.153 169.659 163.18 169.445 163.18ZM176.17 163.14C175.917 163.14 175.697 163.08 175.51 162.96C175.323 162.827 175.177 162.613 175.07 162.32L172.09 154.38C171.997 154.127 171.97 153.907 172.01 153.72C172.05 153.533 172.143 153.387 172.29 153.28C172.437 153.173 172.63 153.12 172.87 153.12C173.097 153.12 173.277 153.173 173.41 153.28C173.543 153.387 173.657 153.58 173.75 153.86L176.47 161.54H175.99L178.79 153.82C178.883 153.58 179.003 153.407 179.15 153.3C179.31 153.18 179.503 153.12 179.73 153.12C179.97 153.12 180.17 153.18 180.33 153.3C180.49 153.407 180.603 153.58 180.67 153.82L183.43 161.54H182.97L185.73 153.82C185.823 153.553 185.943 153.373 186.09 153.28C186.237 153.173 186.417 153.12 186.63 153.12C186.87 153.12 187.05 153.18 187.17 153.3C187.29 153.42 187.357 153.58 187.37 153.78C187.397 153.967 187.37 154.167 187.29 154.38L184.31 162.32C184.217 162.6 184.07 162.807 183.87 162.94C183.683 163.073 183.463 163.14 183.21 163.14C182.957 163.14 182.73 163.073 182.53 162.94C182.343 162.807 182.197 162.6 182.09 162.32L179.23 154.48H180.15L177.29 162.32C177.183 162.6 177.037 162.807 176.85 162.94C176.663 163.073 176.437 163.14 176.17 163.14ZM192.49 163.18C191.823 163.18 191.216 163.047 190.67 162.78C190.136 162.513 189.716 162.153 189.41 161.7C189.116 161.247 188.97 160.74 188.97 160.18C188.97 159.46 189.15 158.893 189.51 158.48C189.87 158.067 190.476 157.773 191.33 157.6C192.183 157.413 193.33 157.32 194.77 157.32H195.71V158.48H194.81C193.783 158.48 192.97 158.527 192.37 158.62C191.783 158.713 191.37 158.88 191.13 159.12C190.89 159.347 190.77 159.667 190.77 160.08C190.77 160.6 190.95 161.027 191.31 161.36C191.683 161.693 192.19 161.86 192.83 161.86C193.336 161.86 193.783 161.74 194.17 161.5C194.556 161.247 194.863 160.913 195.09 160.5C195.316 160.073 195.43 159.587 195.43 159.04V156.74C195.43 155.953 195.27 155.387 194.95 155.04C194.63 154.68 194.09 154.5 193.33 154.5C192.89 154.5 192.436 154.56 191.97 154.68C191.503 154.8 191.016 154.987 190.51 155.24C190.31 155.333 190.136 155.367 189.99 155.34C189.843 155.3 189.723 155.22 189.63 155.1C189.55 154.967 189.503 154.827 189.49 154.68C189.49 154.52 189.523 154.367 189.59 154.22C189.67 154.073 189.803 153.967 189.99 153.9C190.576 153.607 191.156 153.4 191.73 153.28C192.316 153.147 192.863 153.08 193.37 153.08C194.236 153.08 194.95 153.22 195.51 153.5C196.07 153.767 196.49 154.187 196.77 154.76C197.05 155.32 197.19 156.04 197.19 156.92V162.2C197.19 162.507 197.116 162.74 196.97 162.9C196.823 163.06 196.61 163.14 196.33 163.14C196.063 163.14 195.85 163.06 195.69 162.9C195.543 162.74 195.47 162.507 195.47 162.2V160.78H195.65C195.543 161.273 195.343 161.7 195.05 162.06C194.756 162.42 194.39 162.7 193.95 162.9C193.523 163.087 193.036 163.18 192.49 163.18ZM200.994 163.14C200.687 163.14 200.454 163.06 200.294 162.9C200.134 162.74 200.054 162.507 200.054 162.2V154.04C200.054 153.733 200.134 153.507 200.294 153.36C200.454 153.2 200.674 153.12 200.954 153.12C201.234 153.12 201.447 153.2 201.594 153.36C201.754 153.507 201.834 153.733 201.834 154.04V155.58H201.634C201.847 154.78 202.247 154.173 202.834 153.76C203.42 153.347 204.16 153.113 205.054 153.06C205.267 153.047 205.44 153.1 205.574 153.22C205.707 153.327 205.78 153.513 205.794 153.78C205.807 154.033 205.747 154.24 205.614 154.4C205.48 154.547 205.274 154.633 204.994 154.66L204.634 154.68C203.754 154.773 203.074 155.06 202.594 155.54C202.127 156.02 201.894 156.68 201.894 157.52V162.2C201.894 162.507 201.814 162.74 201.654 162.9C201.507 163.06 201.287 163.14 200.994 163.14ZM211.722 163.18C210.668 163.18 209.762 162.98 209.002 162.58C208.255 162.167 207.675 161.587 207.262 160.84C206.848 160.08 206.642 159.187 206.642 158.16C206.642 157.147 206.842 156.26 207.242 155.5C207.655 154.74 208.215 154.147 208.922 153.72C209.642 153.293 210.462 153.08 211.382 153.08C212.035 153.08 212.622 153.193 213.142 153.42C213.675 153.633 214.128 153.947 214.502 154.36C214.875 154.773 215.155 155.28 215.342 155.88C215.542 156.467 215.642 157.133 215.642 157.88C215.642 158.093 215.575 158.26 215.442 158.38C215.322 158.487 215.142 158.54 214.902 158.54H208.062V157.38H214.442L214.102 157.66C214.102 156.967 213.995 156.38 213.782 155.9C213.582 155.407 213.282 155.033 212.882 154.78C212.495 154.527 212.008 154.4 211.422 154.4C210.782 154.4 210.235 154.553 209.782 154.86C209.328 155.153 208.982 155.573 208.742 156.12C208.502 156.653 208.382 157.273 208.382 157.98V158.1C208.382 159.3 208.668 160.207 209.242 160.82C209.815 161.433 210.642 161.74 211.722 161.74C212.148 161.74 212.582 161.687 213.022 161.58C213.475 161.473 213.908 161.28 214.322 161C214.522 160.88 214.702 160.827 214.862 160.84C215.035 160.84 215.175 160.893 215.282 161C215.388 161.093 215.455 161.213 215.482 161.36C215.508 161.493 215.488 161.64 215.422 161.8C215.355 161.96 215.228 162.1 215.042 162.22C214.602 162.527 214.075 162.767 213.462 162.94C212.862 163.1 212.282 163.18 211.722 163.18ZM224.02 163.1C223.74 163.1 223.52 163.013 223.36 162.84C223.2 162.667 223.12 162.427 223.12 162.12V154.14C223.12 153.82 223.2 153.58 223.36 153.42C223.52 153.247 223.74 153.16 224.02 153.16C224.313 153.16 224.54 153.247 224.7 153.42C224.86 153.58 224.94 153.82 224.94 154.14V162.12C224.94 162.427 224.86 162.667 224.7 162.84C224.553 163.013 224.327 163.1 224.02 163.1ZM224.02 151C223.66 151 223.373 150.907 223.16 150.72C222.96 150.52 222.86 150.26 222.86 149.94C222.86 149.593 222.96 149.333 223.16 149.16C223.373 148.973 223.66 148.88 224.02 148.88C224.407 148.88 224.693 148.973 224.88 149.16C225.08 149.333 225.18 149.593 225.18 149.94C225.18 150.26 225.08 150.52 224.88 150.72C224.693 150.907 224.407 151 224.02 151ZM231.226 163.18C230.626 163.18 230.02 163.113 229.406 162.98C228.806 162.833 228.24 162.587 227.706 162.24C227.56 162.147 227.453 162.033 227.386 161.9C227.333 161.753 227.313 161.613 227.326 161.48C227.353 161.333 227.413 161.207 227.506 161.1C227.6 160.993 227.713 160.933 227.846 160.92C227.993 160.893 228.146 160.927 228.306 161.02C228.826 161.313 229.326 161.52 229.806 161.64C230.3 161.76 230.786 161.82 231.266 161.82C232 161.82 232.553 161.687 232.926 161.42C233.3 161.153 233.486 160.8 233.486 160.36C233.486 159.987 233.36 159.7 233.106 159.5C232.866 159.287 232.486 159.127 231.966 159.02L230.106 158.64C229.28 158.453 228.653 158.147 228.226 157.72C227.813 157.28 227.606 156.72 227.606 156.04C227.606 155.44 227.766 154.92 228.086 154.48C228.42 154.027 228.88 153.68 229.466 153.44C230.053 153.2 230.726 153.08 231.486 153.08C232.073 153.08 232.626 153.16 233.146 153.32C233.68 153.467 234.16 153.693 234.586 154C234.746 154.093 234.846 154.213 234.886 154.36C234.94 154.493 234.946 154.633 234.906 154.78C234.88 154.913 234.82 155.027 234.726 155.12C234.633 155.213 234.513 155.273 234.366 155.3C234.22 155.313 234.06 155.273 233.886 155.18C233.5 154.913 233.1 154.727 232.686 154.62C232.286 154.5 231.886 154.44 231.486 154.44C230.766 154.44 230.22 154.58 229.846 154.86C229.486 155.14 229.306 155.507 229.306 155.96C229.306 156.307 229.413 156.593 229.626 156.82C229.853 157.047 230.206 157.213 230.686 157.32L232.546 157.7C233.413 157.887 234.066 158.187 234.506 158.6C234.946 159 235.166 159.547 235.166 160.24C235.166 161.147 234.806 161.867 234.086 162.4C233.38 162.92 232.426 163.18 231.226 163.18ZM243.689 163.14C243.382 163.14 243.149 163.06 242.989 162.9C242.829 162.74 242.749 162.507 242.749 162.2V154.04C242.749 153.733 242.829 153.507 242.989 153.36C243.149 153.2 243.369 153.12 243.649 153.12C243.929 153.12 244.142 153.2 244.289 153.36C244.449 153.507 244.529 153.733 244.529 154.04V155.58H244.329C244.542 154.78 244.942 154.173 245.529 153.76C246.116 153.347 246.856 153.113 247.749 153.06C247.962 153.047 248.136 153.1 248.269 153.22C248.402 153.327 248.476 153.513 248.489 153.78C248.502 154.033 248.442 154.24 248.309 154.4C248.176 154.547 247.969 154.633 247.689 154.66L247.329 154.68C246.449 154.773 245.769 155.06 245.289 155.54C244.822 156.02 244.589 156.68 244.589 157.52V162.2C244.589 162.507 244.509 162.74 244.349 162.9C244.202 163.06 243.982 163.14 243.689 163.14ZM254.417 163.18C253.364 163.18 252.457 162.98 251.697 162.58C250.95 162.167 250.37 161.587 249.957 160.84C249.544 160.08 249.337 159.187 249.337 158.16C249.337 157.147 249.537 156.26 249.937 155.5C250.35 154.74 250.91 154.147 251.617 153.72C252.337 153.293 253.157 153.08 254.077 153.08C254.73 153.08 255.317 153.193 255.837 153.42C256.37 153.633 256.824 153.947 257.197 154.36C257.57 154.773 257.85 155.28 258.037 155.88C258.237 156.467 258.337 157.133 258.337 157.88C258.337 158.093 258.27 158.26 258.137 158.38C258.017 158.487 257.837 158.54 257.597 158.54H250.757V157.38H257.137L256.797 157.66C256.797 156.967 256.69 156.38 256.477 155.9C256.277 155.407 255.977 155.033 255.577 154.78C255.19 154.527 254.704 154.4 254.117 154.4C253.477 154.4 252.93 154.553 252.477 154.86C252.024 155.153 251.677 155.573 251.437 156.12C251.197 156.653 251.077 157.273 251.077 157.98V158.1C251.077 159.3 251.364 160.207 251.937 160.82C252.51 161.433 253.337 161.74 254.417 161.74C254.844 161.74 255.277 161.687 255.717 161.58C256.17 161.473 256.604 161.28 257.017 161C257.217 160.88 257.397 160.827 257.557 160.84C257.73 160.84 257.87 160.893 257.977 161C258.084 161.093 258.15 161.213 258.177 161.36C258.204 161.493 258.184 161.64 258.117 161.8C258.05 161.96 257.924 162.1 257.737 162.22C257.297 162.527 256.77 162.767 256.157 162.94C255.557 163.1 254.977 163.18 254.417 163.18ZM263.661 163.18C262.661 163.18 261.901 162.887 261.381 162.3C260.861 161.7 260.601 160.84 260.601 159.72V149.68C260.601 149.373 260.681 149.147 260.841 149C261.001 148.84 261.221 148.76 261.501 148.76C261.794 148.76 262.021 148.84 262.181 149C262.341 149.147 262.421 149.373 262.421 149.68V159.58C262.421 160.273 262.561 160.793 262.841 161.14C263.134 161.473 263.547 161.64 264.081 161.64C264.201 161.64 264.307 161.64 264.401 161.64C264.494 161.627 264.587 161.613 264.681 161.6C264.827 161.587 264.934 161.627 265.001 161.72C265.067 161.813 265.101 162 265.101 162.28C265.101 162.533 265.041 162.733 264.921 162.88C264.814 163.013 264.634 163.1 264.381 163.14C264.261 163.153 264.141 163.16 264.021 163.16C263.901 163.173 263.781 163.18 263.661 163.18ZM267.516 163.1C267.236 163.1 267.016 163.013 266.856 162.84C266.696 162.667 266.616 162.427 266.616 162.12V154.14C266.616 153.82 266.696 153.58 266.856 153.42C267.016 153.247 267.236 153.16 267.516 153.16C267.81 153.16 268.036 153.247 268.196 153.42C268.356 153.58 268.436 153.82 268.436 154.14V162.12C268.436 162.427 268.356 162.667 268.196 162.84C268.05 163.013 267.823 163.1 267.516 163.1ZM267.516 151C267.156 151 266.87 150.907 266.656 150.72C266.456 150.52 266.356 150.26 266.356 149.94C266.356 149.593 266.456 149.333 266.656 149.16C266.87 148.973 267.156 148.88 267.516 148.88C267.903 148.88 268.19 148.973 268.376 149.16C268.576 149.333 268.676 149.593 268.676 149.94C268.676 150.26 268.576 150.52 268.376 150.72C268.19 150.907 267.903 151 267.516 151ZM274.462 163.18C273.796 163.18 273.189 163.047 272.642 162.78C272.109 162.513 271.689 162.153 271.382 161.7C271.089 161.247 270.942 160.74 270.942 160.18C270.942 159.46 271.122 158.893 271.482 158.48C271.842 158.067 272.449 157.773 273.302 157.6C274.156 157.413 275.302 157.32 276.742 157.32H277.682V158.48H276.782C275.756 158.48 274.942 158.527 274.342 158.62C273.756 158.713 273.342 158.88 273.102 159.12C272.862 159.347 272.742 159.667 272.742 160.08C272.742 160.6 272.922 161.027 273.282 161.36C273.656 161.693 274.162 161.86 274.802 161.86C275.309 161.86 275.756 161.74 276.142 161.5C276.529 161.247 276.836 160.913 277.062 160.5C277.289 160.073 277.402 159.587 277.402 159.04V156.74C277.402 155.953 277.242 155.387 276.922 155.04C276.602 154.68 276.062 154.5 275.302 154.5C274.862 154.5 274.409 154.56 273.942 154.68C273.476 154.8 272.989 154.987 272.482 155.24C272.282 155.333 272.109 155.367 271.962 155.34C271.816 155.3 271.696 155.22 271.602 155.1C271.522 154.967 271.476 154.827 271.462 154.68C271.462 154.52 271.496 154.367 271.562 154.22C271.642 154.073 271.776 153.967 271.962 153.9C272.549 153.607 273.129 153.4 273.702 153.28C274.289 153.147 274.836 153.08 275.342 153.08C276.209 153.08 276.922 153.22 277.482 153.5C278.042 153.767 278.462 154.187 278.742 154.76C279.022 155.32 279.162 156.04 279.162 156.92V162.2C279.162 162.507 279.089 162.74 278.942 162.9C278.796 163.06 278.582 163.14 278.302 163.14C278.036 163.14 277.822 163.06 277.662 162.9C277.516 162.74 277.442 162.507 277.442 162.2V160.78H277.622C277.516 161.273 277.316 161.7 277.022 162.06C276.729 162.42 276.362 162.7 275.922 162.9C275.496 163.087 275.009 163.18 274.462 163.18ZM287.126 163.18C286.246 163.18 285.493 162.96 284.866 162.52C284.24 162.08 283.82 161.487 283.606 160.74L283.826 160.44V162.2C283.826 162.507 283.746 162.74 283.586 162.9C283.44 163.06 283.22 163.14 282.926 163.14C282.646 163.14 282.426 163.06 282.266 162.9C282.106 162.74 282.026 162.507 282.026 162.2V149.68C282.026 149.373 282.106 149.147 282.266 149C282.426 148.84 282.646 148.76 282.926 148.76C283.22 148.76 283.446 148.84 283.606 149C283.766 149.147 283.846 149.373 283.846 149.68V155.46H283.626C283.84 154.74 284.26 154.167 284.886 153.74C285.513 153.3 286.26 153.08 287.126 153.08C287.993 153.08 288.746 153.287 289.386 153.7C290.04 154.1 290.54 154.68 290.886 155.44C291.246 156.187 291.426 157.08 291.426 158.12C291.426 159.147 291.246 160.047 290.886 160.82C290.526 161.58 290.026 162.167 289.386 162.58C288.746 162.98 287.993 163.18 287.126 163.18ZM286.706 161.74C287.28 161.74 287.78 161.6 288.206 161.32C288.646 161.04 288.986 160.633 289.226 160.1C289.466 159.567 289.586 158.907 289.586 158.12C289.586 156.947 289.326 156.053 288.806 155.44C288.286 154.827 287.586 154.52 286.706 154.52C286.12 154.52 285.606 154.66 285.166 154.94C284.74 155.207 284.406 155.607 284.166 156.14C283.94 156.673 283.826 157.333 283.826 158.12C283.826 159.293 284.086 160.193 284.606 160.82C285.126 161.433 285.826 161.74 286.706 161.74ZM296.825 163.18C295.825 163.18 295.065 162.887 294.545 162.3C294.025 161.7 293.765 160.84 293.765 159.72V149.68C293.765 149.373 293.845 149.147 294.005 149C294.165 148.84 294.385 148.76 294.665 148.76C294.958 148.76 295.185 148.84 295.345 149C295.505 149.147 295.585 149.373 295.585 149.68V159.58C295.585 160.273 295.725 160.793 296.005 161.14C296.298 161.473 296.711 161.64 297.245 161.64C297.365 161.64 297.471 161.64 297.565 161.64C297.658 161.627 297.751 161.613 297.845 161.6C297.991 161.587 298.098 161.627 298.165 161.72C298.231 161.813 298.265 162 298.265 162.28C298.265 162.533 298.205 162.733 298.085 162.88C297.978 163.013 297.798 163.1 297.545 163.14C297.425 163.153 297.305 163.16 297.185 163.16C297.065 163.173 296.945 163.18 296.825 163.18ZM304.183 163.18C303.129 163.18 302.223 162.98 301.463 162.58C300.716 162.167 300.136 161.587 299.723 160.84C299.309 160.08 299.103 159.187 299.103 158.16C299.103 157.147 299.303 156.26 299.703 155.5C300.116 154.74 300.676 154.147 301.383 153.72C302.103 153.293 302.923 153.08 303.843 153.08C304.496 153.08 305.083 153.193 305.603 153.42C306.136 153.633 306.589 153.947 306.963 154.36C307.336 154.773 307.616 155.28 307.803 155.88C308.003 156.467 308.103 157.133 308.103 157.88C308.103 158.093 308.036 158.26 307.903 158.38C307.783 158.487 307.603 158.54 307.363 158.54H300.523V157.38H306.903L306.563 157.66C306.563 156.967 306.456 156.38 306.243 155.9C306.043 155.407 305.743 155.033 305.343 154.78C304.956 154.527 304.469 154.4 303.883 154.4C303.243 154.4 302.696 154.553 302.243 154.86C301.789 155.153 301.443 155.573 301.203 156.12C300.963 156.653 300.843 157.273 300.843 157.98V158.1C300.843 159.3 301.129 160.207 301.703 160.82C302.276 161.433 303.103 161.74 304.183 161.74C304.609 161.74 305.043 161.687 305.483 161.58C305.936 161.473 306.369 161.28 306.783 161C306.983 160.88 307.163 160.827 307.323 160.84C307.496 160.84 307.636 160.893 307.743 161C307.849 161.093 307.916 161.213 307.943 161.36C307.969 161.493 307.949 161.64 307.883 161.8C307.816 161.96 307.689 162.1 307.503 162.22C307.063 162.527 306.536 162.767 305.923 162.94C305.323 163.1 304.743 163.18 304.183 163.18ZM311.446 164.96C311.313 165.133 311.166 165.233 311.006 165.26C310.86 165.287 310.726 165.26 310.606 165.18C310.5 165.1 310.44 164.98 310.426 164.82C310.413 164.66 310.48 164.487 310.626 164.3C310.853 164.007 311.006 163.713 311.086 163.42C311.18 163.127 311.226 162.853 311.226 162.6L311.306 163.08C310.933 163.08 310.626 162.973 310.386 162.76C310.16 162.533 310.046 162.24 310.046 161.88C310.046 161.533 310.153 161.253 310.366 161.04C310.58 160.827 310.866 160.72 311.226 160.72C311.586 160.72 311.873 160.847 312.086 161.1C312.313 161.34 312.426 161.7 312.426 162.18C312.426 162.46 312.393 162.753 312.326 163.06C312.273 163.38 312.18 163.7 312.046 164.02C311.913 164.34 311.713 164.653 311.446 164.96ZM325.349 163.18C324.469 163.18 323.716 162.96 323.089 162.52C322.462 162.08 322.042 161.487 321.829 160.74L322.049 160.44V162.2C322.049 162.507 321.969 162.74 321.809 162.9C321.662 163.06 321.442 163.14 321.149 163.14C320.869 163.14 320.649 163.06 320.489 162.9C320.329 162.74 320.249 162.507 320.249 162.2V149.68C320.249 149.373 320.329 149.147 320.489 149C320.649 148.84 320.869 148.76 321.149 148.76C321.442 148.76 321.669 148.84 321.829 149C321.989 149.147 322.069 149.373 322.069 149.68V155.46H321.849C322.062 154.74 322.482 154.167 323.109 153.74C323.736 153.3 324.482 153.08 325.349 153.08C326.216 153.08 326.969 153.287 327.609 153.7C328.262 154.1 328.762 154.68 329.109 155.44C329.469 156.187 329.649 157.08 329.649 158.12C329.649 159.147 329.469 160.047 329.109 160.82C328.749 161.58 328.249 162.167 327.609 162.58C326.969 162.98 326.216 163.18 325.349 163.18ZM324.929 161.74C325.502 161.74 326.002 161.6 326.429 161.32C326.869 161.04 327.209 160.633 327.449 160.1C327.689 159.567 327.809 158.907 327.809 158.12C327.809 156.947 327.549 156.053 327.029 155.44C326.509 154.827 325.809 154.52 324.929 154.52C324.342 154.52 323.829 154.66 323.389 154.94C322.962 155.207 322.629 155.607 322.389 156.14C322.162 156.673 322.049 157.333 322.049 158.12C322.049 159.293 322.309 160.193 322.829 160.82C323.349 161.433 324.049 161.74 324.929 161.74ZM335.467 163.18C334.681 163.18 334.021 163.033 333.487 162.74C332.967 162.447 332.581 162.013 332.327 161.44C332.074 160.867 331.947 160.147 331.947 159.28V154.04C331.947 153.733 332.021 153.507 332.167 153.36C332.327 153.2 332.554 153.12 332.847 153.12C333.141 153.12 333.367 153.2 333.527 153.36C333.687 153.507 333.767 153.733 333.767 154.04V159.28C333.767 160.107 333.934 160.72 334.267 161.12C334.601 161.507 335.127 161.7 335.847 161.7C336.647 161.7 337.294 161.433 337.787 160.9C338.294 160.367 338.547 159.66 338.547 158.78V154.04C338.547 153.733 338.621 153.507 338.767 153.36C338.927 153.2 339.154 153.12 339.447 153.12C339.741 153.12 339.967 153.2 340.127 153.36C340.287 153.507 340.367 153.733 340.367 154.04V162.2C340.367 162.827 340.074 163.14 339.487 163.14C339.194 163.14 338.967 163.06 338.807 162.9C338.661 162.74 338.587 162.507 338.587 162.2V160.46L338.847 160.8C338.581 161.573 338.147 162.167 337.547 162.58C336.961 162.98 336.267 163.18 335.467 163.18ZM347.676 166.78C346.956 166.78 346.256 166.7 345.576 166.54C344.909 166.38 344.303 166.133 343.756 165.8C343.583 165.693 343.463 165.567 343.396 165.42C343.343 165.287 343.329 165.147 343.356 165C343.396 164.853 343.463 164.72 343.556 164.6C343.663 164.493 343.783 164.42 343.916 164.38C344.063 164.353 344.209 164.387 344.356 164.48C344.943 164.813 345.503 165.04 346.036 165.16C346.569 165.28 347.076 165.34 347.556 165.34C348.503 165.34 349.209 165.093 349.676 164.6C350.156 164.12 350.396 163.413 350.396 162.48V160.32H350.576C350.389 161.067 349.969 161.66 349.316 162.1C348.676 162.54 347.929 162.76 347.076 162.76C346.196 162.76 345.429 162.56 344.776 162.16C344.123 161.747 343.616 161.18 343.256 160.46C342.896 159.727 342.716 158.88 342.716 157.92C342.716 157.187 342.816 156.527 343.016 155.94C343.229 155.34 343.523 154.833 343.896 154.42C344.283 153.993 344.743 153.667 345.276 153.44C345.809 153.2 346.409 153.08 347.076 153.08C347.943 153.08 348.696 153.3 349.336 153.74C349.976 154.18 350.389 154.773 350.576 155.52L350.356 155.8V154.04C350.356 153.733 350.436 153.507 350.596 153.36C350.756 153.2 350.983 153.12 351.276 153.12C351.556 153.12 351.776 153.2 351.936 153.36C352.096 153.507 352.176 153.733 352.176 154.04V162.24C352.176 163.747 351.789 164.88 351.016 165.64C350.256 166.4 349.143 166.78 347.676 166.78ZM347.476 161.32C348.076 161.32 348.589 161.187 349.016 160.92C349.456 160.64 349.789 160.247 350.016 159.74C350.256 159.22 350.376 158.613 350.376 157.92C350.376 156.867 350.116 156.04 349.596 155.44C349.076 154.827 348.369 154.52 347.476 154.52C346.876 154.52 346.356 154.66 345.916 154.94C345.489 155.207 345.156 155.593 344.916 156.1C344.676 156.607 344.556 157.213 344.556 157.92C344.556 158.96 344.816 159.787 345.336 160.4C345.869 161.013 346.583 161.32 347.476 161.32ZM355.673 158.42C355.459 158.42 355.279 158.347 355.133 158.2C354.986 158.053 354.913 157.873 354.913 157.66C354.913 157.447 354.986 157.273 355.133 157.14C355.279 156.993 355.459 156.92 355.673 156.92H360.133C360.333 156.92 360.506 156.993 360.653 157.14C360.813 157.273 360.893 157.447 360.893 157.66C360.893 157.873 360.813 158.053 360.653 158.2C360.506 158.347 360.333 158.42 360.133 158.42H355.673ZM365.108 163.14C364.815 163.14 364.588 163.06 364.428 162.9C364.268 162.74 364.188 162.507 364.188 162.2V154.66H362.988C362.748 154.66 362.561 154.6 362.428 154.48C362.295 154.347 362.228 154.173 362.228 153.96C362.228 153.733 362.295 153.56 362.428 153.44C362.561 153.32 362.748 153.26 362.988 153.26H364.688L364.188 153.74V153C364.188 151.707 364.501 150.727 365.128 150.06C365.768 149.38 366.701 148.987 367.928 148.88L368.548 148.84C368.748 148.813 368.908 148.847 369.028 148.94C369.148 149.02 369.228 149.127 369.268 149.26C369.308 149.393 369.308 149.533 369.268 149.68C369.241 149.813 369.181 149.933 369.088 150.04C368.995 150.147 368.875 150.207 368.728 150.22L368.288 150.24C367.488 150.307 366.908 150.547 366.548 150.96C366.188 151.36 366.008 151.96 366.008 152.76V153.56L365.748 153.26H368.048C368.301 153.26 368.495 153.32 368.628 153.44C368.761 153.56 368.828 153.733 368.828 153.96C368.828 154.173 368.761 154.347 368.628 154.48C368.495 154.6 368.301 154.66 368.048 154.66H366.008V162.2C366.008 162.827 365.708 163.14 365.108 163.14ZM371.365 163.14C371.058 163.14 370.825 163.06 370.665 162.9C370.505 162.74 370.425 162.507 370.425 162.2V154.04C370.425 153.733 370.505 153.507 370.665 153.36C370.825 153.2 371.045 153.12 371.325 153.12C371.605 153.12 371.818 153.2 371.965 153.36C372.125 153.507 372.205 153.733 372.205 154.04V155.58H372.005C372.218 154.78 372.618 154.173 373.205 153.76C373.792 153.347 374.532 153.113 375.425 153.06C375.638 153.047 375.812 153.1 375.945 153.22C376.078 153.327 376.152 153.513 376.165 153.78C376.178 154.033 376.118 154.24 375.985 154.4C375.852 154.547 375.645 154.633 375.365 154.66L375.005 154.68C374.125 154.773 373.445 155.06 372.965 155.54C372.498 156.02 372.265 156.68 372.265 157.52V162.2C372.265 162.507 372.185 162.74 372.025 162.9C371.878 163.06 371.658 163.14 371.365 163.14ZM382.093 163.18C381.039 163.18 380.133 162.98 379.373 162.58C378.626 162.167 378.046 161.587 377.633 160.84C377.219 160.08 377.013 159.187 377.013 158.16C377.013 157.147 377.213 156.26 377.613 155.5C378.026 154.74 378.586 154.147 379.293 153.72C380.013 153.293 380.833 153.08 381.753 153.08C382.406 153.08 382.993 153.193 383.513 153.42C384.046 153.633 384.499 153.947 384.873 154.36C385.246 154.773 385.526 155.28 385.713 155.88C385.913 156.467 386.013 157.133 386.013 157.88C386.013 158.093 385.946 158.26 385.813 158.38C385.693 158.487 385.513 158.54 385.273 158.54H378.433V157.38H384.813L384.473 157.66C384.473 156.967 384.366 156.38 384.153 155.9C383.953 155.407 383.653 155.033 383.253 154.78C382.866 154.527 382.379 154.4 381.793 154.4C381.153 154.4 380.606 154.553 380.153 154.86C379.699 155.153 379.353 155.573 379.113 156.12C378.873 156.653 378.753 157.273 378.753 157.98V158.1C378.753 159.3 379.039 160.207 379.613 160.82C380.186 161.433 381.013 161.74 382.093 161.74C382.519 161.74 382.953 161.687 383.393 161.58C383.846 161.473 384.279 161.28 384.693 161C384.893 160.88 385.073 160.827 385.233 160.84C385.406 160.84 385.546 160.893 385.653 161C385.759 161.093 385.826 161.213 385.853 161.36C385.879 161.493 385.859 161.64 385.793 161.8C385.726 161.96 385.599 162.1 385.413 162.22C384.973 162.527 384.446 162.767 383.833 162.94C383.233 163.1 382.653 163.18 382.093 163.18ZM392.776 163.18C391.723 163.18 390.816 162.98 390.056 162.58C389.31 162.167 388.73 161.587 388.316 160.84C387.903 160.08 387.696 159.187 387.696 158.16C387.696 157.147 387.896 156.26 388.296 155.5C388.71 154.74 389.27 154.147 389.976 153.72C390.696 153.293 391.516 153.08 392.436 153.08C393.09 153.08 393.676 153.193 394.196 153.42C394.73 153.633 395.183 153.947 395.556 154.36C395.93 154.773 396.21 155.28 396.396 155.88C396.596 156.467 396.696 157.133 396.696 157.88C396.696 158.093 396.63 158.26 396.496 158.38C396.376 158.487 396.196 158.54 395.956 158.54H389.116V157.38H395.496L395.156 157.66C395.156 156.967 395.05 156.38 394.836 155.9C394.636 155.407 394.336 155.033 393.936 154.78C393.55 154.527 393.063 154.4 392.476 154.4C391.836 154.4 391.29 154.553 390.836 154.86C390.383 155.153 390.036 155.573 389.796 156.12C389.556 156.653 389.436 157.273 389.436 157.98V158.1C389.436 159.3 389.723 160.207 390.296 160.82C390.87 161.433 391.696 161.74 392.776 161.74C393.203 161.74 393.636 161.687 394.076 161.58C394.53 161.473 394.963 161.28 395.376 161C395.576 160.88 395.756 160.827 395.916 160.84C396.09 160.84 396.23 160.893 396.336 161C396.443 161.093 396.51 161.213 396.536 161.36C396.563 161.493 396.543 161.64 396.476 161.8C396.41 161.96 396.283 162.1 396.096 162.22C395.656 162.527 395.13 162.767 394.516 162.94C393.916 163.1 393.336 163.18 392.776 163.18ZM400.04 164.96C399.907 165.133 399.76 165.233 399.6 165.26C399.453 165.287 399.32 165.26 399.2 165.18C399.093 165.1 399.033 164.98 399.02 164.82C399.007 164.66 399.073 164.487 399.22 164.3C399.447 164.007 399.6 163.713 399.68 163.42C399.773 163.127 399.82 162.853 399.82 162.6L399.9 163.08C399.527 163.08 399.22 162.973 398.98 162.76C398.753 162.533 398.64 162.24 398.64 161.88C398.64 161.533 398.747 161.253 398.96 161.04C399.173 160.827 399.46 160.72 399.82 160.72C400.18 160.72 400.467 160.847 400.68 161.1C400.907 161.34 401.02 161.7 401.02 162.18C401.02 162.46 400.987 162.753 400.92 163.06C400.867 163.38 400.773 163.7 400.64 164.02C400.507 164.34 400.307 164.653 400.04 164.96ZM411.943 163.18C411.276 163.18 410.669 163.047 410.123 162.78C409.589 162.513 409.169 162.153 408.863 161.7C408.569 161.247 408.423 160.74 408.423 160.18C408.423 159.46 408.603 158.893 408.963 158.48C409.323 158.067 409.929 157.773 410.783 157.6C411.636 157.413 412.783 157.32 414.223 157.32H415.163V158.48H414.263C413.236 158.48 412.423 158.527 411.823 158.62C411.236 158.713 410.823 158.88 410.583 159.12C410.343 159.347 410.223 159.667 410.223 160.08C410.223 160.6 410.403 161.027 410.763 161.36C411.136 161.693 411.643 161.86 412.283 161.86C412.789 161.86 413.236 161.74 413.623 161.5C414.009 161.247 414.316 160.913 414.543 160.5C414.769 160.073 414.883 159.587 414.883 159.04V156.74C414.883 155.953 414.723 155.387 414.403 155.04C414.083 154.68 413.543 154.5 412.783 154.5C412.343 154.5 411.889 154.56 411.423 154.68C410.956 154.8 410.469 154.987 409.963 155.24C409.763 155.333 409.589 155.367 409.443 155.34C409.296 155.3 409.176 155.22 409.083 155.1C409.003 154.967 408.956 154.827 408.943 154.68C408.943 154.52 408.976 154.367 409.043 154.22C409.123 154.073 409.256 153.967 409.443 153.9C410.029 153.607 410.609 153.4 411.183 153.28C411.769 153.147 412.316 153.08 412.823 153.08C413.689 153.08 414.403 153.22 414.963 153.5C415.523 153.767 415.943 154.187 416.223 154.76C416.503 155.32 416.643 156.04 416.643 156.92V162.2C416.643 162.507 416.569 162.74 416.423 162.9C416.276 163.06 416.063 163.14 415.783 163.14C415.516 163.14 415.303 163.06 415.143 162.9C414.996 162.74 414.923 162.507 414.923 162.2V160.78H415.103C414.996 161.273 414.796 161.7 414.503 162.06C414.209 162.42 413.843 162.7 413.403 162.9C412.976 163.087 412.489 163.18 411.943 163.18ZM420.407 163.14C420.127 163.14 419.907 163.06 419.747 162.9C419.587 162.74 419.507 162.507 419.507 162.2V154.04C419.507 153.733 419.587 153.507 419.747 153.36C419.907 153.2 420.127 153.12 420.407 153.12C420.687 153.12 420.9 153.2 421.047 153.36C421.207 153.507 421.287 153.733 421.287 154.04V155.68L421.067 155.38C421.347 154.62 421.8 154.047 422.427 153.66C423.067 153.273 423.794 153.08 424.607 153.08C425.394 153.08 426.04 153.22 426.547 153.5C427.054 153.78 427.434 154.207 427.687 154.78C427.94 155.353 428.067 156.08 428.067 156.96V162.2C428.067 162.507 427.987 162.74 427.827 162.9C427.68 163.06 427.46 163.14 427.167 163.14C426.874 163.14 426.647 163.06 426.487 162.9C426.327 162.74 426.247 162.507 426.247 162.2V157.06C426.247 156.193 426.08 155.56 425.747 155.16C425.414 154.76 424.88 154.56 424.147 154.56C423.294 154.56 422.607 154.827 422.087 155.36C421.58 155.88 421.327 156.587 421.327 157.48V162.2C421.327 162.827 421.02 163.14 420.407 163.14ZM434.672 163.18C433.819 163.18 433.066 162.98 432.412 162.58C431.772 162.167 431.272 161.58 430.912 160.82C430.552 160.047 430.372 159.147 430.372 158.12C430.372 157.08 430.546 156.187 430.892 155.44C431.252 154.68 431.752 154.1 432.392 153.7C433.046 153.287 433.806 153.08 434.672 153.08C435.539 153.08 436.286 153.3 436.912 153.74C437.539 154.167 437.959 154.74 438.172 155.46H437.952V149.68C437.952 149.373 438.026 149.147 438.172 149C438.332 148.84 438.559 148.76 438.852 148.76C439.146 148.76 439.372 148.84 439.532 149C439.692 149.147 439.772 149.373 439.772 149.68V162.2C439.772 162.507 439.692 162.74 439.532 162.9C439.372 163.06 439.146 163.14 438.852 163.14C438.572 163.14 438.352 163.06 438.192 162.9C438.032 162.74 437.952 162.507 437.952 162.2V160.38L438.172 160.74C437.972 161.487 437.552 162.08 436.912 162.52C436.286 162.96 435.539 163.18 434.672 163.18ZM435.092 161.74C435.679 161.74 436.186 161.6 436.612 161.32C437.052 161.04 437.386 160.633 437.612 160.1C437.852 159.567 437.972 158.907 437.972 158.12C437.972 156.947 437.712 156.053 437.192 155.44C436.672 154.827 435.972 154.52 435.092 154.52C434.519 154.52 434.012 154.66 433.572 154.94C433.146 155.207 432.812 155.607 432.572 156.14C432.332 156.673 432.212 157.333 432.212 158.12C432.212 159.293 432.472 160.193 432.992 160.82C433.526 161.433 434.226 161.74 435.092 161.74ZM39.82 187.18C39.22 187.18 38.6133 187.113 38 186.98C37.4 186.833 36.8333 186.587 36.3 186.24C36.1533 186.147 36.0467 186.033 35.98 185.9C35.9267 185.753 35.9067 185.613 35.92 185.48C35.9467 185.333 36.0067 185.207 36.1 185.1C36.1933 184.993 36.3067 184.933 36.44 184.92C36.5867 184.893 36.74 184.927 36.9 185.02C37.42 185.313 37.92 185.52 38.4 185.64C38.8933 185.76 39.38 185.82 39.86 185.82C40.5933 185.82 41.1467 185.687 41.52 185.42C41.8933 185.153 42.08 184.8 42.08 184.36C42.08 183.987 41.9533 183.7 41.7 183.5C41.46 183.287 41.08 183.127 40.56 183.02L38.7 182.64C37.8733 182.453 37.2467 182.147 36.82 181.72C36.4067 181.28 36.2 180.72 36.2 180.04C36.2 179.44 36.36 178.92 36.68 178.48C37.0133 178.027 37.4733 177.68 38.06 177.44C38.6467 177.2 39.32 177.08 40.08 177.08C40.6667 177.08 41.22 177.16 41.74 177.32C42.2733 177.467 42.7533 177.693 43.18 178C43.34 178.093 43.44 178.213 43.48 178.36C43.5333 178.493 43.54 178.633 43.5 178.78C43.4733 178.913 43.4133 179.027 43.32 179.12C43.2267 179.213 43.1067 179.273 42.96 179.3C42.8133 179.313 42.6533 179.273 42.48 179.18C42.0933 178.913 41.6933 178.727 41.28 178.62C40.88 178.5 40.48 178.44 40.08 178.44C39.36 178.44 38.8133 178.58 38.44 178.86C38.08 179.14 37.9 179.507 37.9 179.96C37.9 180.307 38.0067 180.593 38.22 180.82C38.4467 181.047 38.8 181.213 39.28 181.32L41.14 181.7C42.0067 181.887 42.66 182.187 43.1 182.6C43.54 183 43.76 183.547 43.76 184.24C43.76 185.147 43.4 185.867 42.68 186.4C41.9733 186.92 41.02 187.18 39.82 187.18ZM50.628 187.18C49.5746 187.18 48.668 186.98 47.908 186.58C47.1613 186.167 46.5813 185.587 46.168 184.84C45.7546 184.08 45.548 183.187 45.548 182.16C45.548 181.147 45.748 180.26 46.148 179.5C46.5613 178.74 47.1213 178.147 47.828 177.72C48.548 177.293 49.368 177.08 50.288 177.08C50.9413 177.08 51.528 177.193 52.048 177.42C52.5813 177.633 53.0346 177.947 53.408 178.36C53.7813 178.773 54.0613 179.28 54.248 179.88C54.448 180.467 54.548 181.133 54.548 181.88C54.548 182.093 54.4813 182.26 54.348 182.38C54.228 182.487 54.048 182.54 53.808 182.54H46.968V181.38H53.348L53.008 181.66C53.008 180.967 52.9013 180.38 52.688 179.9C52.488 179.407 52.188 179.033 51.788 178.78C51.4013 178.527 50.9146 178.4 50.328 178.4C49.688 178.4 49.1413 178.553 48.688 178.86C48.2346 179.153 47.888 179.573 47.648 180.12C47.408 180.653 47.288 181.273 47.288 181.98V182.1C47.288 183.3 47.5746 184.207 48.148 184.82C48.7213 185.433 49.548 185.74 50.628 185.74C51.0546 185.74 51.488 185.687 51.928 185.58C52.3813 185.473 52.8146 185.28 53.228 185C53.428 184.88 53.608 184.827 53.768 184.84C53.9413 184.84 54.0813 184.893 54.188 185C54.2946 185.093 54.3613 185.213 54.388 185.36C54.4146 185.493 54.3946 185.64 54.328 185.8C54.2613 185.96 54.1346 186.1 53.948 186.22C53.508 186.527 52.9813 186.767 52.368 186.94C51.768 187.1 51.188 187.18 50.628 187.18ZM61.0316 187.18C60.0449 187.18 59.1916 186.973 58.4716 186.56C57.7516 186.133 57.1982 185.54 56.8116 184.78C56.4249 184.007 56.2316 183.1 56.2316 182.06C56.2316 181.287 56.3382 180.593 56.5516 179.98C56.7782 179.367 57.0982 178.847 57.5116 178.42C57.9249 177.98 58.4249 177.647 59.0116 177.42C59.6116 177.193 60.2849 177.08 61.0316 177.08C61.4982 177.08 61.9916 177.153 62.5116 177.3C63.0316 177.447 63.5116 177.687 63.9516 178.02C64.0982 178.127 64.1916 178.253 64.2316 178.4C64.2716 178.533 64.2716 178.673 64.2316 178.82C64.2049 178.967 64.1382 179.093 64.0316 179.2C63.9382 179.293 63.8116 179.347 63.6516 179.36C63.5049 179.373 63.3449 179.327 63.1716 179.22C62.8516 178.98 62.5116 178.807 62.1516 178.7C61.8049 178.593 61.4716 178.54 61.1516 178.54C60.6582 178.54 60.2182 178.62 59.8316 178.78C59.4582 178.94 59.1382 179.173 58.8716 179.48C58.6182 179.773 58.4249 180.14 58.2916 180.58C58.1582 181.007 58.0916 181.507 58.0916 182.08C58.0916 183.213 58.3582 184.107 58.8916 184.76C59.4249 185.4 60.1782 185.72 61.1516 185.72C61.4716 185.72 61.8049 185.673 62.1516 185.58C62.4982 185.473 62.8382 185.3 63.1716 185.06C63.3449 184.953 63.5049 184.913 63.6516 184.94C63.7982 184.953 63.9182 185.013 64.0116 185.12C64.1182 185.213 64.1849 185.333 64.2116 185.48C64.2382 185.613 64.2249 185.753 64.1716 185.9C64.1316 186.047 64.0382 186.167 63.8916 186.26C63.4649 186.58 62.9982 186.813 62.4916 186.96C61.9849 187.107 61.4982 187.18 61.0316 187.18ZM69.5884 187.18C68.8018 187.18 68.1418 187.033 67.6084 186.74C67.0884 186.447 66.7018 186.013 66.4484 185.44C66.1951 184.867 66.0684 184.147 66.0684 183.28V178.04C66.0684 177.733 66.1418 177.507 66.2884 177.36C66.4484 177.2 66.6751 177.12 66.9684 177.12C67.2618 177.12 67.4884 177.2 67.6484 177.36C67.8084 177.507 67.8884 177.733 67.8884 178.04V183.28C67.8884 184.107 68.0551 184.72 68.3884 185.12C68.7218 185.507 69.2484 185.7 69.9684 185.7C70.7684 185.7 71.4151 185.433 71.9084 184.9C72.4151 184.367 72.6684 183.66 72.6684 182.78V178.04C72.6684 177.733 72.7418 177.507 72.8884 177.36C73.0484 177.2 73.2751 177.12 73.5684 177.12C73.8618 177.12 74.0884 177.2 74.2484 177.36C74.4084 177.507 74.4884 177.733 74.4884 178.04V186.2C74.4884 186.827 74.1951 187.14 73.6084 187.14C73.3151 187.14 73.0884 187.06 72.9284 186.9C72.7818 186.74 72.7084 186.507 72.7084 186.2V184.46L72.9684 184.8C72.7018 185.573 72.2684 186.167 71.6684 186.58C71.0818 186.98 70.3884 187.18 69.5884 187.18ZM78.357 187.14C78.0504 187.14 77.817 187.06 77.657 186.9C77.497 186.74 77.417 186.507 77.417 186.2V178.04C77.417 177.733 77.497 177.507 77.657 177.36C77.817 177.2 78.037 177.12 78.317 177.12C78.597 177.12 78.8104 177.2 78.957 177.36C79.117 177.507 79.197 177.733 79.197 178.04V179.58H78.997C79.2104 178.78 79.6104 178.173 80.197 177.76C80.7837 177.347 81.5237 177.113 82.417 177.06C82.6304 177.047 82.8037 177.1 82.937 177.22C83.0704 177.327 83.1437 177.513 83.157 177.78C83.1704 178.033 83.1104 178.24 82.977 178.4C82.8437 178.547 82.637 178.633 82.357 178.66L81.997 178.68C81.117 178.773 80.437 179.06 79.957 179.54C79.4904 180.02 79.257 180.68 79.257 181.52V186.2C79.257 186.507 79.177 186.74 79.017 186.9C78.8704 187.06 78.6504 187.14 78.357 187.14ZM89.085 187.18C88.0317 187.18 87.125 186.98 86.365 186.58C85.6183 186.167 85.0383 185.587 84.625 184.84C84.2117 184.08 84.005 183.187 84.005 182.16C84.005 181.147 84.205 180.26 84.605 179.5C85.0183 178.74 85.5783 178.147 86.285 177.72C87.005 177.293 87.825 177.08 88.745 177.08C89.3983 177.08 89.985 177.193 90.505 177.42C91.0383 177.633 91.4917 177.947 91.865 178.36C92.2383 178.773 92.5183 179.28 92.705 179.88C92.905 180.467 93.005 181.133 93.005 181.88C93.005 182.093 92.9383 182.26 92.805 182.38C92.685 182.487 92.505 182.54 92.265 182.54H85.425V181.38H91.805L91.465 181.66C91.465 180.967 91.3583 180.38 91.145 179.9C90.945 179.407 90.645 179.033 90.245 178.78C89.8583 178.527 89.3717 178.4 88.785 178.4C88.145 178.4 87.5983 178.553 87.145 178.86C86.6917 179.153 86.345 179.573 86.105 180.12C85.865 180.653 85.745 181.273 85.745 181.98V182.1C85.745 183.3 86.0317 184.207 86.605 184.82C87.1783 185.433 88.005 185.74 89.085 185.74C89.5117 185.74 89.945 185.687 90.385 185.58C90.8383 185.473 91.2717 185.28 91.685 185C91.885 184.88 92.065 184.827 92.225 184.84C92.3983 184.84 92.5383 184.893 92.645 185C92.7517 185.093 92.8183 185.213 92.845 185.36C92.8717 185.493 92.8517 185.64 92.785 185.8C92.7183 185.96 92.5917 186.1 92.405 186.22C91.965 186.527 91.4383 186.767 90.825 186.94C90.225 187.1 89.645 187.18 89.085 187.18ZM105.583 187.18C104.703 187.18 103.95 186.96 103.323 186.52C102.697 186.08 102.277 185.487 102.063 184.74L102.283 184.44V186.2C102.283 186.507 102.203 186.74 102.043 186.9C101.897 187.06 101.677 187.14 101.383 187.14C101.103 187.14 100.883 187.06 100.723 186.9C100.563 186.74 100.483 186.507 100.483 186.2V173.68C100.483 173.373 100.563 173.147 100.723 173C100.883 172.84 101.103 172.76 101.383 172.76C101.677 172.76 101.903 172.84 102.063 173C102.223 173.147 102.303 173.373 102.303 173.68V179.46H102.083C102.297 178.74 102.717 178.167 103.343 177.74C103.97 177.3 104.717 177.08 105.583 177.08C106.45 177.08 107.203 177.287 107.843 177.7C108.497 178.1 108.997 178.68 109.343 179.44C109.703 180.187 109.883 181.08 109.883 182.12C109.883 183.147 109.703 184.047 109.343 184.82C108.983 185.58 108.483 186.167 107.843 186.58C107.203 186.98 106.45 187.18 105.583 187.18ZM105.163 185.74C105.737 185.74 106.237 185.6 106.663 185.32C107.103 185.04 107.443 184.633 107.683 184.1C107.923 183.567 108.043 182.907 108.043 182.12C108.043 180.947 107.783 180.053 107.263 179.44C106.743 178.827 106.043 178.52 105.163 178.52C104.577 178.52 104.063 178.66 103.623 178.94C103.197 179.207 102.863 179.607 102.623 180.14C102.397 180.673 102.283 181.333 102.283 182.12C102.283 183.293 102.543 184.193 103.063 184.82C103.583 185.433 104.283 185.74 105.163 185.74ZM116.722 187.18C115.668 187.18 114.762 186.98 114.002 186.58C113.255 186.167 112.675 185.587 112.262 184.84C111.848 184.08 111.642 183.187 111.642 182.16C111.642 181.147 111.842 180.26 112.242 179.5C112.655 178.74 113.215 178.147 113.922 177.72C114.642 177.293 115.462 177.08 116.382 177.08C117.035 177.08 117.622 177.193 118.142 177.42C118.675 177.633 119.128 177.947 119.502 178.36C119.875 178.773 120.155 179.28 120.342 179.88C120.542 180.467 120.642 181.133 120.642 181.88C120.642 182.093 120.575 182.26 120.442 182.38C120.322 182.487 120.142 182.54 119.902 182.54H113.062V181.38H119.442L119.102 181.66C119.102 180.967 118.995 180.38 118.782 179.9C118.582 179.407 118.282 179.033 117.882 178.78C117.495 178.527 117.008 178.4 116.422 178.4C115.782 178.4 115.235 178.553 114.782 178.86C114.328 179.153 113.982 179.573 113.742 180.12C113.502 180.653 113.382 181.273 113.382 181.98V182.1C113.382 183.3 113.668 184.207 114.242 184.82C114.815 185.433 115.642 185.74 116.722 185.74C117.148 185.74 117.582 185.687 118.022 185.58C118.475 185.473 118.908 185.28 119.322 185C119.522 184.88 119.702 184.827 119.862 184.84C120.035 184.84 120.175 184.893 120.282 185C120.388 185.093 120.455 185.213 120.482 185.36C120.508 185.493 120.488 185.64 120.422 185.8C120.355 185.96 120.228 186.1 120.042 186.22C119.602 186.527 119.075 186.767 118.462 186.94C117.862 187.1 117.282 187.18 116.722 187.18ZM124.366 187.14C124.072 187.14 123.846 187.06 123.686 186.9C123.526 186.74 123.446 186.507 123.446 186.2V178.66H122.246C122.006 178.66 121.819 178.6 121.686 178.48C121.552 178.347 121.486 178.173 121.486 177.96C121.486 177.733 121.552 177.56 121.686 177.44C121.819 177.32 122.006 177.26 122.246 177.26H123.946L123.446 177.74V177C123.446 175.707 123.759 174.727 124.386 174.06C125.026 173.38 125.959 172.987 127.186 172.88L127.806 172.84C128.006 172.813 128.166 172.847 128.286 172.94C128.406 173.02 128.486 173.127 128.526 173.26C128.566 173.393 128.566 173.533 128.526 173.68C128.499 173.813 128.439 173.933 128.346 174.04C128.252 174.147 128.132 174.207 127.986 174.22L127.546 174.24C126.746 174.307 126.166 174.547 125.806 174.96C125.446 175.36 125.266 175.96 125.266 176.76V177.56L125.006 177.26H127.306C127.559 177.26 127.752 177.32 127.886 177.44C128.019 177.56 128.086 177.733 128.086 177.96C128.086 178.173 128.019 178.347 127.886 178.48C127.752 178.6 127.559 178.66 127.306 178.66H125.266V186.2C125.266 186.827 124.966 187.14 124.366 187.14ZM133.549 187.18C132.589 187.18 131.756 186.973 131.049 186.56C130.343 186.147 129.796 185.56 129.409 184.8C129.023 184.04 128.829 183.147 128.829 182.12C128.829 181.347 128.936 180.653 129.149 180.04C129.376 179.413 129.696 178.88 130.109 178.44C130.523 178 131.016 177.667 131.589 177.44C132.176 177.2 132.829 177.08 133.549 177.08C134.509 177.08 135.343 177.287 136.049 177.7C136.756 178.113 137.303 178.7 137.689 179.46C138.076 180.207 138.269 181.093 138.269 182.12C138.269 182.893 138.156 183.593 137.929 184.22C137.716 184.847 137.403 185.38 136.989 185.82C136.576 186.26 136.076 186.6 135.489 186.84C134.916 187.067 134.269 187.18 133.549 187.18ZM133.549 185.74C134.136 185.74 134.643 185.6 135.069 185.32C135.509 185.04 135.843 184.633 136.069 184.1C136.309 183.567 136.429 182.907 136.429 182.12C136.429 180.947 136.169 180.053 135.649 179.44C135.129 178.827 134.429 178.52 133.549 178.52C132.976 178.52 132.469 178.66 132.029 178.94C131.603 179.207 131.269 179.607 131.029 180.14C130.789 180.673 130.669 181.333 130.669 182.12C130.669 183.293 130.929 184.193 131.449 184.82C131.983 185.433 132.683 185.74 133.549 185.74ZM141.541 187.14C141.234 187.14 141.001 187.06 140.841 186.9C140.681 186.74 140.601 186.507 140.601 186.2V178.04C140.601 177.733 140.681 177.507 140.841 177.36C141.001 177.2 141.221 177.12 141.501 177.12C141.781 177.12 141.994 177.2 142.141 177.36C142.301 177.507 142.381 177.733 142.381 178.04V179.58H142.181C142.394 178.78 142.794 178.173 143.381 177.76C143.967 177.347 144.707 177.113 145.601 177.06C145.814 177.047 145.987 177.1 146.121 177.22C146.254 177.327 146.327 177.513 146.341 177.78C146.354 178.033 146.294 178.24 146.161 178.4C146.027 178.547 145.821 178.633 145.541 178.66L145.181 178.68C144.301 178.773 143.621 179.06 143.141 179.54C142.674 180.02 142.441 180.68 142.441 181.52V186.2C142.441 186.507 142.361 186.74 142.201 186.9C142.054 187.06 141.834 187.14 141.541 187.14ZM152.269 187.18C151.215 187.18 150.309 186.98 149.549 186.58C148.802 186.167 148.222 185.587 147.809 184.84C147.395 184.08 147.189 183.187 147.189 182.16C147.189 181.147 147.389 180.26 147.789 179.5C148.202 178.74 148.762 178.147 149.469 177.72C150.189 177.293 151.009 177.08 151.929 177.08C152.582 177.08 153.169 177.193 153.689 177.42C154.222 177.633 154.675 177.947 155.049 178.36C155.422 178.773 155.702 179.28 155.889 179.88C156.089 180.467 156.189 181.133 156.189 181.88C156.189 182.093 156.122 182.26 155.989 182.38C155.869 182.487 155.689 182.54 155.449 182.54H148.609V181.38H154.989L154.649 181.66C154.649 180.967 154.542 180.38 154.329 179.9C154.129 179.407 153.829 179.033 153.429 178.78C153.042 178.527 152.555 178.4 151.969 178.4C151.329 178.4 150.782 178.553 150.329 178.86C149.875 179.153 149.529 179.573 149.289 180.12C149.049 180.653 148.929 181.273 148.929 181.98V182.1C148.929 183.3 149.215 184.207 149.789 184.82C150.362 185.433 151.189 185.74 152.269 185.74C152.695 185.74 153.129 185.687 153.569 185.58C154.022 185.473 154.455 185.28 154.869 185C155.069 184.88 155.249 184.827 155.409 184.84C155.582 184.84 155.722 184.893 155.829 185C155.935 185.093 156.002 185.213 156.029 185.36C156.055 185.493 156.035 185.64 155.969 185.8C155.902 185.96 155.775 186.1 155.589 186.22C155.149 186.527 154.622 186.767 154.009 186.94C153.409 187.1 152.829 187.18 152.269 187.18ZM166.727 187.18C165.727 187.18 164.967 186.887 164.447 186.3C163.927 185.7 163.667 184.84 163.667 183.72V173.68C163.667 173.373 163.747 173.147 163.907 173C164.067 172.84 164.287 172.76 164.567 172.76C164.86 172.76 165.087 172.84 165.247 173C165.407 173.147 165.487 173.373 165.487 173.68V183.58C165.487 184.273 165.627 184.793 165.907 185.14C166.2 185.473 166.614 185.64 167.147 185.64C167.267 185.64 167.374 185.64 167.467 185.64C167.56 185.627 167.654 185.613 167.747 185.6C167.894 185.587 168 185.627 168.067 185.72C168.134 185.813 168.167 186 168.167 186.28C168.167 186.533 168.107 186.733 167.987 186.88C167.88 187.013 167.7 187.1 167.447 187.14C167.327 187.153 167.207 187.16 167.087 187.16C166.967 187.173 166.847 187.18 166.727 187.18ZM172.783 187.18C172.116 187.18 171.509 187.047 170.963 186.78C170.429 186.513 170.009 186.153 169.703 185.7C169.409 185.247 169.263 184.74 169.263 184.18C169.263 183.46 169.443 182.893 169.803 182.48C170.163 182.067 170.769 181.773 171.623 181.6C172.476 181.413 173.623 181.32 175.063 181.32H176.003V182.48H175.103C174.076 182.48 173.263 182.527 172.663 182.62C172.076 182.713 171.663 182.88 171.423 183.12C171.183 183.347 171.063 183.667 171.063 184.08C171.063 184.6 171.243 185.027 171.603 185.36C171.976 185.693 172.483 185.86 173.123 185.86C173.629 185.86 174.076 185.74 174.463 185.5C174.849 185.247 175.156 184.913 175.383 184.5C175.609 184.073 175.723 183.587 175.723 183.04V180.74C175.723 179.953 175.563 179.387 175.243 179.04C174.923 178.68 174.383 178.5 173.623 178.5C173.183 178.5 172.729 178.56 172.263 178.68C171.796 178.8 171.309 178.987 170.803 179.24C170.603 179.333 170.429 179.367 170.283 179.34C170.136 179.3 170.016 179.22 169.923 179.1C169.843 178.967 169.796 178.827 169.783 178.68C169.783 178.52 169.816 178.367 169.883 178.22C169.963 178.073 170.096 177.967 170.283 177.9C170.869 177.607 171.449 177.4 172.023 177.28C172.609 177.147 173.156 177.08 173.663 177.08C174.529 177.08 175.243 177.22 175.803 177.5C176.363 177.767 176.783 178.187 177.063 178.76C177.343 179.32 177.483 180.04 177.483 180.92V186.2C177.483 186.507 177.409 186.74 177.263 186.9C177.116 187.06 176.903 187.14 176.623 187.14C176.356 187.14 176.143 187.06 175.983 186.9C175.836 186.74 175.763 186.507 175.763 186.2V184.78H175.943C175.836 185.273 175.636 185.7 175.343 186.06C175.049 186.42 174.683 186.7 174.243 186.9C173.816 187.087 173.329 187.18 172.783 187.18ZM183.827 187.18C183.04 187.18 182.38 187.033 181.847 186.74C181.327 186.447 180.94 186.013 180.687 185.44C180.433 184.867 180.307 184.147 180.307 183.28V178.04C180.307 177.733 180.38 177.507 180.527 177.36C180.687 177.2 180.913 177.12 181.207 177.12C181.5 177.12 181.727 177.2 181.887 177.36C182.047 177.507 182.127 177.733 182.127 178.04V183.28C182.127 184.107 182.293 184.72 182.627 185.12C182.96 185.507 183.487 185.7 184.207 185.7C185.007 185.7 185.653 185.433 186.147 184.9C186.653 184.367 186.907 183.66 186.907 182.78V178.04C186.907 177.733 186.98 177.507 187.127 177.36C187.287 177.2 187.513 177.12 187.807 177.12C188.1 177.12 188.327 177.2 188.487 177.36C188.647 177.507 188.727 177.733 188.727 178.04V186.2C188.727 186.827 188.433 187.14 187.847 187.14C187.553 187.14 187.327 187.06 187.167 186.9C187.02 186.74 186.947 186.507 186.947 186.2V184.46L187.207 184.8C186.94 185.573 186.507 186.167 185.907 186.58C185.32 186.98 184.627 187.18 183.827 187.18ZM192.555 187.14C192.275 187.14 192.055 187.06 191.895 186.9C191.735 186.74 191.655 186.507 191.655 186.2V178.04C191.655 177.733 191.735 177.507 191.895 177.36C192.055 177.2 192.275 177.12 192.555 177.12C192.835 177.12 193.049 177.2 193.195 177.36C193.355 177.507 193.435 177.733 193.435 178.04V179.68L193.215 179.38C193.495 178.62 193.949 178.047 194.575 177.66C195.215 177.273 195.942 177.08 196.755 177.08C197.542 177.08 198.189 177.22 198.695 177.5C199.202 177.78 199.582 178.207 199.835 178.78C200.089 179.353 200.215 180.08 200.215 180.96V186.2C200.215 186.507 200.135 186.74 199.975 186.9C199.829 187.06 199.609 187.14 199.315 187.14C199.022 187.14 198.795 187.06 198.635 186.9C198.475 186.74 198.395 186.507 198.395 186.2V181.06C198.395 180.193 198.229 179.56 197.895 179.16C197.562 178.76 197.029 178.56 196.295 178.56C195.442 178.56 194.755 178.827 194.235 179.36C193.729 179.88 193.475 180.587 193.475 181.48V186.2C193.475 186.827 193.169 187.14 192.555 187.14ZM207.321 187.18C206.334 187.18 205.481 186.973 204.761 186.56C204.041 186.133 203.487 185.54 203.101 184.78C202.714 184.007 202.521 183.1 202.521 182.06C202.521 181.287 202.627 180.593 202.841 179.98C203.067 179.367 203.387 178.847 203.801 178.42C204.214 177.98 204.714 177.647 205.301 177.42C205.901 177.193 206.574 177.08 207.321 177.08C207.787 177.08 208.281 177.153 208.801 177.3C209.321 177.447 209.801 177.687 210.241 178.02C210.387 178.127 210.481 178.253 210.521 178.4C210.561 178.533 210.561 178.673 210.521 178.82C210.494 178.967 210.427 179.093 210.321 179.2C210.227 179.293 210.101 179.347 209.941 179.36C209.794 179.373 209.634 179.327 209.461 179.22C209.141 178.98 208.801 178.807 208.441 178.7C208.094 178.593 207.761 178.54 207.441 178.54C206.947 178.54 206.507 178.62 206.121 178.78C205.747 178.94 205.427 179.173 205.161 179.48C204.907 179.773 204.714 180.14 204.581 180.58C204.447 181.007 204.381 181.507 204.381 182.08C204.381 183.213 204.647 184.107 205.181 184.76C205.714 185.4 206.467 185.72 207.441 185.72C207.761 185.72 208.094 185.673 208.441 185.58C208.787 185.473 209.127 185.3 209.461 185.06C209.634 184.953 209.794 184.913 209.941 184.94C210.087 184.953 210.207 185.013 210.301 185.12C210.407 185.213 210.474 185.333 210.501 185.48C210.527 185.613 210.514 185.753 210.461 185.9C210.421 186.047 210.327 186.167 210.181 186.26C209.754 186.58 209.287 186.813 208.781 186.96C208.274 187.107 207.787 187.18 207.321 187.18ZM213.298 187.14C213.018 187.14 212.798 187.06 212.638 186.9C212.478 186.74 212.398 186.507 212.398 186.2V173.68C212.398 173.373 212.478 173.147 212.638 173C212.798 172.84 213.018 172.76 213.298 172.76C213.591 172.76 213.818 172.84 213.978 173C214.138 173.147 214.218 173.373 214.218 173.68V179.38H213.958C214.238 178.62 214.691 178.047 215.318 177.66C215.958 177.273 216.684 177.08 217.498 177.08C218.284 177.08 218.931 177.227 219.438 177.52C219.944 177.8 220.324 178.227 220.578 178.8C220.831 179.373 220.958 180.093 220.958 180.96V186.2C220.958 186.507 220.878 186.74 220.718 186.9C220.571 187.06 220.351 187.14 220.058 187.14C219.764 187.14 219.538 187.06 219.378 186.9C219.218 186.74 219.138 186.507 219.138 186.2V181.06C219.138 180.193 218.971 179.56 218.638 179.16C218.304 178.76 217.771 178.56 217.038 178.56C216.184 178.56 215.498 178.827 214.978 179.36C214.471 179.88 214.218 180.587 214.218 181.48V186.2C214.218 186.827 213.911 187.14 213.298 187.14ZM224.723 187.08C224.376 187.08 224.089 186.967 223.863 186.74C223.636 186.513 223.523 186.227 223.523 185.88C223.523 185.533 223.636 185.253 223.863 185.04C224.089 184.827 224.376 184.72 224.723 184.72C225.096 184.72 225.383 184.827 225.583 185.04C225.796 185.253 225.903 185.533 225.903 185.88C225.903 186.227 225.796 186.513 225.583 186.74C225.383 186.967 225.096 187.08 224.723 187.08Z" fill="white"/>
<path d="M854.165 213.218H824.087V265H772.476V213.218H665.835V176.475L775.381 15.1465H824.087V172.202H854.165V213.218ZM772.476 172.202V129.819C772.476 125.832 772.533 121.104 772.646 115.635C772.874 110.166 773.102 104.697 773.33 99.2285C773.558 93.7598 773.786 88.9176 774.014 84.7021C774.355 80.3727 774.583 77.3535 774.697 75.6445H773.33C771.165 80.3158 768.887 84.873 766.494 89.3164C764.102 93.6458 761.31 98.2031 758.12 102.988L712.319 172.202H772.476Z" fill="#004AAD"/>
<path d="M1283 257C1283 261.418 1279.42 265 1275 265L901 265C884.431 265 871 251.569 871 235L871 30.0001C871 13.4315 884.431 6.53615e-05 901 6.39131e-05L1275 3.1217e-05C1279.42 3.08307e-05 1283 3.58175 1283 8.00003L1283 257Z" fill="#004AAD"/>
<rect x="988" y="203.235" width="86.9994" height="139.88" transform="rotate(180 988 203.235)" fill="#37393B"/>
<path d="M988 209.5C988 226.069 974.569 239.5 958 239.5L931.001 239.5C914.432 239.5 901.001 226.069 901.001 209.5L901.001 200.645L988 200.645L988 209.5Z" fill="#37393B"/>
<path d="M901 55.5C901 38.9315 914.431 25.5 931 25.5L957.999 25.5C974.568 25.5 987.999 38.9315 987.999 55.5L987.999 64.3554L901 64.3554L901 55.5Z" fill="#37393B"/>
<defs>
<filter id="filter0_d_776_1566" x="0" y="0" width="1287" height="273" filterUnits="userSpaceOnUse" color-interpolation-filters="sRGB">
<feFlood flood-opacity="0" result="BackgroundImageFix"/>
<feColorMatrix in="SourceAlpha" type="matrix" values="0 0 0 0 0 0 0 0 0 0 0 0 0 0 0 0 0 0 127 0" result="hardAlpha"/>
<feOffset dy="4"/>
<feGaussianBlur stdDeviation="2"/>
<feComposite in2="hardAlpha" operator="out"/>
<feColorMatrix type="matrix" values="0 0 0 0 0 0 0 0 0 0 0 0 0 0 0 0 0 0 0.25 0"/>
<feBlend mode="normal" in2="BackgroundImageFix" result="effect1_dropShadow_776_1566"/>
<feBlend mode="normal" in="SourceGraphic" in2="effect1_dropShadow_776_1566" result="shape"/>
</filter>
</defs>
</svg>
